<svg width="584" height="313" viewBox="0 0 584 313" fill="none" xmlns="http://www.w3.org/2000/svg">
<path d="M315.718 44.1688C312.611 35.1634 311.89 22.1336 306.982 13.4832C300.535 2.16566 289.509 7.24672 280.313 0.744284C281.16 7.08053 277.157 9.94896 276.242 15.6327C276.024 18.325 276.518 21.0273 277.673 23.4686C278.829 25.9099 280.607 28.0043 282.827 29.5419C291.302 36.5462 310.2 34.8331 315.718 44.0249L315.718 44.1688Z" fill="#091C4D"/>
<path d="M277.786 44.1753C278.424 43.3347 279.15 42.5646 279.951 41.8778C280.902 41.0592 281.915 40.3159 282.98 39.6546C295.169 30.6179 316.259 43.7379 316.259 43.7379L310.268 50.1279C307.063 53.6568 303.252 56.5839 299.016 58.7712C296.748 60.2939 294.06 61.0673 291.33 60.9825C288.599 60.8978 285.964 59.9592 283.794 58.2988C279.88 55.3373 276.615 51.4059 271.868 50.2416C274.325 48.757 276.363 46.6688 277.786 44.1753Z" fill="#091C4D"/>
<path d="M325.68 6.37124C324.654 6.80751 323.676 7.34755 322.76 7.98294C321.741 8.71195 320.788 9.52822 319.911 10.4226C308.26 20.1804 316.223 43.7382 316.223 43.7382L323.828 39.4038C328.015 37.116 331.754 34.09 334.865 30.472C336.871 28.6241 338.249 26.1946 338.805 23.524C339.36 20.8534 339.066 18.0759 337.963 15.581C335.996 11.0772 332.875 7.11013 332.889 2.07176C330.884 4.08665 328.405 5.56517 325.68 6.37124Z" fill="#091C4D"/>
<path d="M334.525 50.0488C332.721 51.2362 330.528 51.6815 328.403 51.2922C327.691 51.1342 326.993 50.9156 326.318 50.6388C322.503 49.1963 319.117 46.8099 316.475 43.7028C321.336 42.888 324.372 37.9657 329.268 37.2949C330.496 37.121 331.748 37.2972 332.879 37.8032C334.011 38.3092 334.978 39.1244 335.667 40.155C336.876 42.3437 338.468 44.2981 340.366 45.9257C337.882 46.315 336.472 48.7224 334.525 50.0488C332.578 51.3752 336.4 48.7582 334.525 50.0488Z" fill="#091C4D"/>
<path d="M318.223 62.8894C319.793 61.4153 320.739 59.3959 320.866 57.2462C320.863 56.511 320.805 55.777 320.692 55.0505C320.175 51.0145 318.651 47.1735 316.259 43.8822C314.303 48.4115 308.828 50.2324 307.016 54.8341C306.571 55.9886 306.458 57.2449 306.69 58.4605C306.922 59.6761 307.49 60.8023 308.33 61.7114C310.174 63.4142 311.703 65.4283 312.848 67.6615C313.79 65.3248 316.456 64.5042 318.223 62.8894C316.528 64.4684 319.991 61.2746 318.223 62.8894Z" fill="#091C4D"/>
<path d="M313.534 39.8803C321.79 48.1678 328.385 57.9579 332.963 68.7229L330.367 70.5514C330.367 70.5514 327.487 57.4439 313.065 40.3829L313.534 39.8803Z" fill="#091C4D"/>
<path d="M220.497 258.731C214.323 265.912 203.436 273.081 198.482 281.849C192.01 293.168 202.032 300.069 201.067 311.295C206.116 307.349 210.645 309.341 215.977 307.232C218.408 306.06 220.487 304.267 222.003 302.034C223.52 299.801 224.419 297.207 224.612 294.515C226.332 283.723 215.253 268.254 220.497 258.731Z" fill="#091C4D"/>
<path d="M239.7 291.388C238.575 291.298 237.464 291.077 236.39 290.731C235.151 290.328 233.948 289.819 232.795 289.21C218.812 283.343 219.381 258.512 219.381 258.512L227.942 260.406C232.598 261.367 237.043 263.159 241.063 265.696C243.534 266.867 245.575 268.783 246.899 271.176C248.222 273.568 248.762 276.316 248.442 279.031C247.853 283.924 246.077 288.598 247.54 293.424C245.133 292.112 242.44 291.413 239.7 291.388Z" fill="#091C4D"/>
<path d="M182.86 269.355C183.766 270.035 184.742 270.617 185.771 271.09C186.934 271.588 188.137 271.988 189.366 272.288C203.748 277.364 219.921 258.621 219.921 258.621L212.339 254.246C208.246 251.827 203.753 250.157 199.073 249.317C196.461 248.519 193.665 248.563 191.08 249.441C188.494 250.318 186.25 251.986 184.664 254.209C181.774 258.196 179.927 262.869 175.601 265.449C178.314 266.111 180.813 267.455 182.86 269.355Z" fill="#091C4D"/>
<path d="M216.013 239.645C217.936 240.6 219.425 242.25 220.175 244.262C220.39 244.983 220.531 245.703 220.674 246.423C221.365 250.435 221.032 254.556 219.706 258.405C216.513 254.617 210.755 254.494 207.67 250.635C206.899 249.668 206.416 248.502 206.279 247.273C206.143 246.043 206.357 244.8 206.897 243.687C208.175 241.527 209.048 239.151 209.471 236.676C211.049 238.624 213.856 238.631 216.013 239.645Z" fill="#091C4D"/>
<path d="M235.355 247.074C233.279 246.473 231.052 246.686 229.128 247.67C228.504 248.055 227.902 248.474 227.325 248.924C224.169 251.452 221.687 254.722 220.102 258.442C224.998 257.771 229.342 261.598 234.239 260.819C235.465 260.626 236.611 260.088 237.544 259.269C238.476 258.449 239.157 257.382 239.506 256.19C240.019 253.742 240.963 251.405 242.295 249.288C239.811 249.641 237.728 247.764 235.499 247.075L235.355 247.074Z" fill="#091C4D"/>
<path d="M217.895 262.791C220.853 251.458 225.951 240.795 232.914 231.377L235.825 232.68C235.825 232.68 225.976 241.831 218.614 262.936L217.895 262.791Z" fill="#091C4D"/>
<path d="M273.081 81.1594C266.849 83.4101 257.85 84.0339 251.903 87.509C244.117 92.0948 247.768 99.6981 243.36 106.092C247.752 105.456 249.76 108.197 253.718 108.783C255.582 108.889 257.442 108.509 259.116 107.681C260.79 106.852 262.22 105.604 263.267 104.058C268.033 98.1326 266.629 85.101 273.081 81.1594Z" fill="#091C4D"/>
<path d="M273.443 107.432C272.8 106.983 272.21 106.462 271.684 105.88C271.116 105.225 270.6 104.525 270.142 103.789C263.758 95.4582 272.615 80.7265 272.615 80.7265L277.102 84.8051C279.59 86.9831 281.656 89.5991 283.2 92.5229C284.302 94.0544 284.893 95.8948 284.888 97.7817C284.883 99.6687 284.282 101.506 283.172 103.031C280.795 105.415 278.937 108.266 277.715 111.402C276.667 109.725 275.193 108.355 273.443 107.432Z" fill="#091C4D"/>
<path d="M246.791 74.6476C247.094 75.3623 247.479 76.0396 247.937 76.666C248.465 77.3551 249.04 78.006 249.659 78.6139C256.512 86.5496 272.758 80.8707 272.758 80.8707L269.677 75.6801C268.062 72.805 265.935 70.25 263.399 68.1418C262.101 66.7638 260.402 65.8286 258.543 65.4685C256.684 65.1083 254.759 65.3414 253.04 66.1349C250.229 67.9706 247.061 69.1888 243.745 69.709C245.173 71.062 246.223 72.7643 246.791 74.6476Z" fill="#091C4D"/>
<path d="M276.93 68.1059C277.766 69.3404 278.097 70.8481 277.855 72.319C277.743 72.8197 277.597 73.3123 277.419 73.7934C276.456 76.4392 274.84 78.7992 272.722 80.6547C272.119 77.3062 268.706 75.2457 268.139 71.8613C268.016 71.0098 268.134 70.141 268.48 69.3533C268.826 68.5655 269.385 67.8902 270.094 67.4039C271.6 66.5441 272.933 65.4128 274.026 64.0674C274.309 65.7956 275.998 66.7718 276.93 68.1059Z" fill="#091C4D"/>
<path d="M286.006 79.2505C284.951 78.1937 283.543 77.5623 282.052 77.4765C281.549 77.4399 281.044 77.4385 280.541 77.4725C277.757 77.8774 275.119 78.9714 272.867 80.655C276.03 81.959 277.316 85.7413 280.515 86.9374C281.318 87.2353 282.189 87.3033 283.028 87.1339C283.868 86.9645 284.644 86.5643 285.268 85.9784C286.415 84.669 287.798 83.5863 289.344 82.7863C287.726 82.1342 287.119 80.2971 286.006 79.1785L286.006 79.2505Z" fill="#091C4D"/>
<path d="M270.126 82.7349C275.78 76.9283 282.501 72.2662 289.92 69.004L291.211 70.7709C283.484 73.2545 276.413 77.4419 270.521 83.0239L270.126 82.7349Z" fill="#091C4D"/>
<path d="M93.0541 99.2139C92.1358 92.6615 93.3473 83.7036 91.1334 77.1837C88.241 68.6467 80.0663 70.6763 74.683 65.0478C74.4193 69.4737 71.3204 70.9049 69.9788 74.6442C69.4922 76.4425 69.4792 78.3362 69.941 80.141C70.4029 81.9458 71.324 83.6004 72.6146 84.9439C77.4934 90.8231 90.5895 92.1896 93.0541 99.2139Z" fill="#091C4D"/>
<path d="M67.2995 94.251C67.8632 93.7232 68.4794 93.2546 69.1386 92.8524C69.9027 92.4241 70.6976 92.0533 71.5168 91.7431C80.9579 87.1977 93.5945 98.9996 93.5945 98.9996L88.6905 102.585C86.0418 104.56 83.0651 106.05 79.8975 106.989C78.1621 107.717 76.243 107.888 74.4062 107.476C72.5695 107.065 70.9061 106.093 69.6469 104.694C67.3503 102.169 65.7391 99.0693 62.4684 97.4771C64.3294 96.8352 65.9935 95.724 67.2995 94.251Z" fill="#091C4D"/>
<path d="M104.78 74.8088C104.025 74.9704 103.288 75.2096 102.582 75.5227C101.793 75.8937 101.034 76.3248 100.312 76.8123C91.1569 81.8983 93.4148 98.9629 93.4148 98.9629L99.1422 96.9988C102.279 95.9897 105.209 94.425 107.792 92.3793C109.4 91.3817 110.656 89.906 111.383 88.159C112.111 86.4121 112.273 84.4813 111.848 82.6372C110.615 79.5117 110.035 76.1661 110.147 72.8078C108.556 73.9176 106.709 74.6061 104.78 74.8088Z" fill="#091C4D"/>
<path d="M105.093 105.652C103.706 106.205 102.159 106.201 100.775 105.641C100.302 105.457 99.8555 105.214 99.4449 104.918C97.0271 103.45 95.0253 101.388 93.6307 98.9279C97.2295 98.9375 99.7564 96.0651 103.175 96.2542C104.011 96.3121 104.815 96.5989 105.499 97.0831C106.184 97.5673 106.722 98.2303 107.054 98.9997C107.597 100.643 108.421 102.18 109.489 103.541C107.762 103.536 106.463 104.936 104.985 105.58L105.093 105.652Z" fill="#091C4D"/>
<path d="M92.3359 112.24C93.6176 111.421 94.5258 110.131 94.8646 108.648C94.9614 108.149 95.0229 107.644 95.0486 107.137C95.223 104.324 94.6858 101.513 93.4869 98.9632C91.5719 101.801 87.6118 102.294 85.7686 105.205C85.3099 105.931 85.0654 106.773 85.0631 107.632C85.0608 108.491 85.3009 109.334 85.7557 110.063C86.7904 111.45 87.5666 113.013 88.0467 114.676C89.0223 113.203 90.9303 112.992 92.3362 112.132L92.3359 112.24Z" fill="#091C4D"/>
<path d="M92.1629 96.0084C96.6756 102.731 99.8678 110.25 101.569 118.166L99.5871 119.097C98.6939 111.012 96.0232 103.226 91.7663 96.2953L92.1629 96.0084Z" fill="#091C4D"/>
<path d="M102.98 142.355C96.3947 142.157 87.7648 139.435 80.9961 140.497C72.0672 141.913 72.6926 150.3 66.203 154.673C70.5189 155.692 71.4099 158.969 74.8595 160.958C76.5275 161.716 78.3609 162.037 80.1871 161.89C82.0134 161.744 83.7723 161.136 85.2984 160.122C91.8945 156.325 95.3831 143.666 102.8 142.39L102.98 142.355Z" fill="#091C4D"/>
<path d="M93.7376 166.91C93.3091 166.252 92.9491 165.552 92.6635 164.82C92.3711 164.011 92.1446 163.18 91.9863 162.335C89.0981 152.251 102.838 141.779 102.838 141.779L105.522 147.22C107.048 150.15 108.015 153.337 108.376 156.621C108.803 158.457 108.648 160.381 107.934 162.126C107.221 163.871 105.983 165.352 104.392 166.363C101.288 167.672 98.5074 169.642 96.2429 172.135C95.8563 170.212 94.9952 168.416 93.7376 166.91Z" fill="#091C4D"/>
<path d="M80.9247 126.677C80.9693 127.443 81.0877 128.202 81.2784 128.945C81.5045 129.786 81.8034 130.606 82.1716 131.395C85.7441 141.301 102.801 141.958 102.801 141.958L101.845 135.982C101.392 132.724 100.352 129.575 98.775 126.689C98.0685 124.931 96.8293 123.438 95.2313 122.42C93.6333 121.403 91.7566 120.911 89.8649 121.015C86.579 121.726 83.1782 121.716 79.8961 120.988C80.7111 122.768 81.0648 124.724 80.9247 126.677Z" fill="#091C4D"/>
<path d="M111.394 131.616C111.694 133.069 111.446 134.58 110.699 135.861C110.415 136.278 110.101 136.674 109.76 137.046C107.897 139.167 105.529 140.783 102.874 141.742C103.53 138.397 101.092 135.224 101.82 131.879C101.985 131.014 102.397 130.215 103.005 129.578C103.613 128.941 104.392 128.494 105.249 128.289C106.97 128.054 108.632 127.496 110.148 126.647C109.783 128.373 111.003 129.888 111.394 131.472C111.786 133.057 111.002 130.068 111.394 131.616Z" fill="#091C4D"/>
<path d="M115.712 145.304C115.146 143.919 114.065 142.807 112.697 142.201C112.23 142.019 111.727 141.91 111.259 141.765C108.517 141.132 105.661 141.187 102.945 141.923C105.386 144.304 105.232 148.263 107.781 150.573C108.411 151.149 109.192 151.534 110.033 151.683C110.874 151.832 111.739 151.738 112.529 151.413C114.088 150.634 115.769 150.127 117.499 149.915C116.207 148.76 116.32 146.817 115.712 145.304C116.32 146.781 115.104 143.79 115.712 145.304Z" fill="#091C4D"/>
<path d="M99.7403 142.706C107.144 139.39 115.113 137.518 123.219 137.19L123.754 139.315C115.647 138.797 107.527 140.104 99.9911 143.138L99.7403 142.706Z" fill="#091C4D"/>
<path d="M208.878 189.242C203.434 192.826 194.86 195.862 190.025 200.744C183.638 207.133 189.091 213.554 186.372 220.888C190.444 219.171 193.101 221.302 197.169 220.917C198.997 220.55 200.698 219.716 202.108 218.496C203.517 217.276 204.587 215.712 205.213 213.956C208.326 207.019 203.681 194.734 208.877 189.314L208.878 189.242Z" fill="#091C4D"/>
<path d="M215.864 214.453C215.143 214.183 214.456 213.831 213.816 213.404C213.089 212.92 212.404 212.376 211.769 211.779C203.472 205.351 208.231 188.845 208.231 188.845L213.622 191.63C216.551 193.141 219.2 195.145 221.451 197.553C222.879 198.787 223.886 200.435 224.333 202.268C224.78 204.101 224.644 206.028 223.943 207.78C222.244 210.678 221.169 213.899 220.787 217.237C219.397 215.922 217.707 214.967 215.864 214.453Z" fill="#091C4D"/>
<path d="M181.813 189.53C182.305 190.127 182.845 190.682 183.429 191.19C184.113 191.721 184.833 192.203 185.584 192.635C194.241 198.596 208.518 189.097 208.518 189.097L204.211 184.839C201.93 182.458 199.226 180.523 196.237 179.132C194.636 178.122 192.757 177.646 190.869 177.77C188.981 177.894 187.181 178.613 185.726 179.823C183.463 182.314 180.714 184.315 177.649 185.704C179.342 186.602 180.776 187.919 181.813 189.53Z" fill="#091C4D"/>
<path d="M209.31 175.568C210.443 176.548 211.149 177.931 211.279 179.424C211.313 179.927 211.311 180.432 211.275 180.935C210.995 183.741 210.023 186.434 208.447 188.773C207.016 185.674 203.168 184.548 201.808 181.558C201.466 180.772 201.353 179.906 201.483 179.059C201.612 178.213 201.979 177.42 202.541 176.773C203.779 175.559 204.794 174.137 205.539 172.57C206.219 174.156 208.125 174.665 209.345 175.712C210.566 176.758 208.125 174.521 209.31 175.568Z" fill="#091C4D"/>
<path d="M220.912 184.055C219.63 183.275 218.094 183.025 216.631 183.36C216.152 183.494 215.682 183.662 215.226 183.86C212.626 184.947 210.343 186.674 208.591 188.881C211.972 189.322 214.195 192.495 217.577 193.008C218.433 193.11 219.301 192.961 220.075 192.58C220.849 192.198 221.496 191.601 221.937 190.86C222.729 189.317 223.794 187.93 225.079 186.766C223.316 186.581 222.277 184.923 220.912 184.055Z" fill="#091C4D"/>
<path d="M206.425 191.431C210.429 184.392 215.748 178.188 222.092 173.154L223.816 174.527C216.959 178.9 211.164 184.75 206.856 191.648L206.425 191.431Z" fill="#091C4D"/>
<path d="M103.508 200.838C97.419 203.413 88.4553 204.397 82.7226 208.34C75.2237 213.322 79.2707 220.711 75.2223 227.358C79.5433 226.47 81.7316 229.103 85.6893 229.473C87.5595 229.482 89.3998 229.004 91.0299 228.087C92.66 227.171 94.024 225.846 94.9883 224.244C99.3953 218.065 97.3065 205.104 103.508 200.838Z" fill="#091C4D"/>
<path d="M105.31 227.006C104.657 226.596 104.054 226.112 103.514 225.562C102.892 224.954 102.328 224.289 101.828 223.578C95.0113 215.606 103.041 200.44 103.041 200.44L107.746 204.232C110.319 206.235 112.518 208.677 114.24 211.447C115.402 212.933 116.069 214.746 116.148 216.631C116.227 218.516 115.713 220.378 114.68 221.956C112.414 224.457 110.702 227.408 109.655 230.616C108.519 229.08 107.028 227.841 105.31 227.006Z" fill="#091C4D"/>
<path d="M76.9261 195.764C77.2674 196.46 77.6883 197.113 78.1804 197.711C78.7349 198.388 79.3474 199.016 80.0109 199.587C87.1885 207.128 103.185 200.549 103.185 200.549L99.8154 195.537C98.0481 192.735 95.7721 190.287 93.1047 188.322C91.7337 187.022 89.9899 186.185 88.1184 185.929C86.247 185.672 84.3422 186.008 82.6719 186.89C79.9751 188.904 76.8793 190.32 73.5916 191.041C75.0774 192.315 76.2234 193.938 76.9261 195.764Z" fill="#091C4D"/>
<path d="M106.639 187.566C107.554 188.756 107.975 190.252 107.815 191.744C107.728 192.244 107.606 192.736 107.451 193.219C106.645 195.938 105.166 198.41 103.149 200.405C102.33 197.092 98.8086 195.211 98.0978 191.862C97.9209 191.027 97.9836 190.158 98.2786 189.357C98.5736 188.556 99.089 187.854 99.7654 187.332C101.168 186.355 102.389 185.14 103.374 183.743C103.765 185.471 105.49 186.34 106.495 187.602C107.499 188.864 105.67 186.304 106.639 187.566Z" fill="#091C4D"/>
<path d="M116.291 198.209C115.202 197.187 113.758 196.628 112.264 196.65L110.752 196.862C107.993 197.407 105.415 198.637 103.257 200.441C106.493 201.566 107.995 205.24 111.267 206.293C112.086 206.549 112.96 206.568 113.789 206.347C114.617 206.126 115.366 205.675 115.949 205.046C117.029 203.631 118.347 202.417 119.845 201.457C118.191 200.913 117.476 199.112 116.256 197.849C115.036 196.586 117.584 199.292 116.291 198.209Z" fill="#091C4D"/>
<path d="M100.624 202.558C105.966 196.448 112.43 191.419 119.666 187.745L121.065 189.44C113.474 192.352 106.635 196.934 101.055 202.847L100.624 202.558Z" fill="#091C4D"/>
<path d="M276.827 228.507C276.27 235.091 273.188 243.576 273.782 250.416C274.694 259.379 283.115 259.222 287.128 265.926C288.363 261.647 291.712 260.936 293.844 257.631C294.747 255.964 295.196 254.088 295.144 252.193C295.092 250.297 294.542 248.449 293.549 246.834C290.148 240.023 277.707 235.995 276.828 228.363L276.827 228.507Z" fill="#091C4D"/>
<path d="M300.839 239.115C300.165 239.498 299.452 239.809 298.713 240.045C297.887 240.284 297.045 240.462 296.193 240.578C285.93 242.926 276.251 228.721 276.251 228.721L281.799 226.36C284.812 225.007 288.046 224.211 291.343 224.011C293.204 223.678 295.122 223.935 296.83 224.746C298.538 225.557 299.95 226.882 300.868 228.534C302.021 231.7 303.828 234.586 306.171 237.006C304.246 237.254 302.413 237.979 300.839 239.115Z" fill="#091C4D"/>
<path d="M259.964 249.695C260.738 249.716 261.511 249.646 262.268 249.485C263.116 249.306 263.948 249.055 264.753 248.736C274.838 245.812 276.431 228.686 276.431 228.686L270.419 229.317C267.135 229.605 263.928 230.474 260.948 231.883C259.159 232.499 257.607 233.657 256.506 235.195C255.406 236.734 254.812 238.577 254.807 240.468C255.311 243.832 255.106 247.264 254.204 250.544C256.017 249.762 258.003 249.47 259.964 249.695Z" fill="#091C4D"/>
<path d="M266.558 219.554C268.026 219.306 269.533 219.632 270.767 220.465L271.916 221.476C273.932 223.479 275.41 225.959 276.215 228.685C272.906 227.848 269.589 230.107 266.317 229.198C265.49 228.962 264.746 228.498 264.169 227.861C263.592 227.223 263.205 226.437 263.051 225.591C262.903 223.866 262.444 222.182 261.697 220.621C263.351 221.057 264.938 219.945 266.558 219.626L266.558 219.554Z" fill="#091C4D"/>
<path d="M280.46 215.956C279.047 216.457 277.883 217.486 277.213 218.826C277.006 219.292 276.837 219.773 276.706 220.265C275.901 222.965 275.794 225.825 276.395 228.577C278.885 226.209 282.843 226.615 285.296 224.21C285.911 223.605 286.341 222.837 286.534 221.996C286.728 221.155 286.677 220.276 286.389 219.463C285.688 217.88 285.277 216.185 285.178 214.457C283.915 215.677 282.009 215.456 280.46 215.956Z" fill="#091C4D"/>
<path d="M276.998 231.854C274.082 224.288 272.637 216.234 272.743 208.126L274.903 207.7C273.968 215.771 274.844 223.949 277.467 231.639L276.998 231.854Z" fill="#091C4D"/>
<path d="M353.199 91.9171C345.346 94.7393 333.936 95.4647 326.438 99.9433C316.598 105.747 321.215 115.333 315.579 123.451C321.123 122.638 323.705 126.136 328.67 126.833C331.033 126.999 333.398 126.536 335.524 125.493C337.651 124.449 339.463 122.862 340.778 120.891C346.808 113.385 345.052 96.8618 353.163 91.917L353.199 91.9171Z" fill="#091C4D"/>
<path d="M353.687 125.136C352.892 124.562 352.158 123.909 351.496 123.187C350.751 122.378 350.091 121.496 349.524 120.554C341.419 109.988 352.661 91.3398 352.661 91.3398L358.333 96.5012C361.475 99.2506 364.089 102.551 366.045 106.239C367.411 108.207 368.125 110.554 368.086 112.949C368.048 115.344 367.258 117.667 365.83 119.59C363.301 123.182 359.875 125.836 358.928 130.152C357.63 128.066 355.827 126.341 353.687 125.136Z" fill="#091C4D"/>
<path d="M319.968 83.6595C320.365 84.5624 320.857 85.4203 321.436 86.2186C322.088 87.092 322.808 87.9123 323.589 88.6716C332.272 98.7355 352.804 91.5565 352.804 91.5565L348.935 84.9243C346.869 81.3012 344.172 78.0765 340.971 75.4021C339.328 73.6624 337.18 72.4831 334.831 72.0313C332.481 71.5794 330.049 71.8777 327.878 72.884C323.95 74.673 320.668 77.4353 316.097 77.4951C317.882 79.1945 319.212 81.3138 319.968 83.6595Z" fill="#091C4D"/>
<path d="M358.138 75.3757C359.201 76.9344 359.609 78.8482 359.275 80.705C359.153 81.3326 358.971 81.9468 358.73 82.539C357.507 85.894 355.472 88.8934 352.805 91.2685C352.025 86.9838 347.677 84.417 347.004 80.1325C346.835 79.0587 346.973 77.9588 347.402 76.9601C347.831 75.9613 348.535 75.1045 349.431 74.4888C351.333 73.3917 353.03 71.9713 354.444 70.2915C354.798 72.4517 356.954 73.6811 358.03 75.3754C359.105 77.0697 356.954 73.7171 358.138 75.3757Z" fill="#091C4D"/>
<path d="M369.58 89.4779C368.276 88.1005 366.48 87.2938 364.584 87.2333C363.944 87.238 363.306 87.2965 362.676 87.4082C359.147 87.9226 355.803 89.3118 352.948 91.449C356.939 93.0791 358.618 97.8341 362.68 99.3925C363.693 99.7663 364.79 99.8479 365.847 99.628C366.904 99.4081 367.878 98.8955 368.658 98.1487C370.124 96.5142 371.871 95.154 373.815 94.1318C371.765 93.3346 370.98 90.9572 369.58 89.4779C370.98 90.9212 368.181 87.9987 369.58 89.4779Z" fill="#091C4D"/>
<path d="M349.487 93.8868C356.647 86.5369 365.154 80.6337 374.545 76.4991L376.195 78.7348C376.195 78.7348 364.743 81.4035 349.954 94.284L349.487 93.8868Z" fill="#091C4D"/>
<path d="M606.559 159.207L600.848 155.053L594.024 150.069L589.713 146.926C588.169 145.806 586.121 144.649 584.037 143.312L570.49 135.323C565.495 132.682 559.995 130.364 554.208 127.65C541.032 122.058 527.338 117.778 513.323 114.873C509.441 113.993 505.514 113.322 501.56 112.862C497.567 112.312 493.466 111.653 489.328 111.21L476.626 110.456L470.149 110.079L463.6 110.062L450.283 110.278L436.713 111.358L429.873 111.951L422.997 112.905C418.389 113.54 413.745 114.104 409.1 114.883C390.557 118.073 371.76 122.341 352.961 127.402C334.161 132.462 315.324 138.098 296.666 144.094C278.008 150.091 259.35 155.835 240.982 161.185C231.798 163.967 222.65 166.318 213.61 168.777C204.571 171.237 195.604 173.372 186.674 175.076C177.744 176.779 169.031 178.412 160.39 179.792C156.105 180.536 151.822 180.813 147.574 181.342C143.326 181.87 139.15 182.327 135.011 182.388L122.773 182.967C118.743 182.956 114.785 182.766 110.898 182.719C103.373 182.506 95.865 181.873 88.4101 180.824C84.9004 180.385 81.4179 179.751 77.9785 178.925L68.0151 176.847C61.7224 174.851 55.7171 173.035 50.0361 171.113L34.8665 164.487C30.266 162.207 26.2781 159.677 22.5768 157.616L17.2944 154.615C15.7136 153.603 14.3131 152.484 12.948 151.544L6.12329 146.596L0.448102 142.478C0.448102 142.478 2.31534 144.03 5.9066 146.883L12.4784 152.191C13.8073 153.202 15.1357 154.393 16.7162 155.513L21.8178 158.802C25.4106 161.078 29.3619 163.86 33.8538 166.391L48.913 173.917C54.4853 176.127 60.4896 178.303 66.8892 180.695L76.923 183.349C80.4144 184.367 83.9557 185.205 87.533 185.86C95.1204 187.33 102.783 188.384 110.485 189.016C114.479 189.279 118.545 189.757 122.647 189.876L135.243 189.91C139.526 189.921 143.809 189.681 148.164 189.476C152.519 189.272 156.982 189.104 161.41 188.576C170.266 187.628 179.41 186.717 188.483 185.049C197.557 183.382 206.846 181.823 216.243 180.085C225.641 178.346 234.968 176.14 244.331 173.826C263.201 169.413 282.144 164.389 301.051 159.581C319.958 154.773 338.864 150.109 357.481 146.02C376.098 141.931 394.425 138.92 412.173 136.736C416.601 136.244 420.992 135.968 425.348 135.584L431.827 135.025L438.234 134.826L450.831 134.464L463.03 134.892L468.967 135.124L474.795 135.788L486.129 137.041C489.726 137.627 493.323 138.428 496.92 139.085C500.375 139.669 503.796 140.435 507.17 141.38C519.14 144.54 530.772 148.862 541.901 154.284C546.752 156.889 551.461 159.132 555.449 161.518L565.976 168.456C567.556 169.576 569.03 170.336 570.502 171.527L574.668 174.885L581.203 180.229L586.662 184.634L606.559 159.207Z" fill="#091C4D"/>
<path d="M431.92 113.648L430.883 111.378C430.203 109.973 428.699 107.018 426.979 104.17C422.019 96.2538 415.788 89.2092 408.537 83.3196C398.614 75.1714 387.202 69.0296 374.935 65.2359C368.053 63.0546 360.922 61.7538 353.713 61.3646C349.977 61.1935 346.233 61.328 342.519 61.7666C338.595 62.224 335.318 63.043 331.897 63.6817C325.128 64.9953 318.503 66.0573 311.771 66.7232C305.272 67.455 298.727 67.6902 292.192 67.4268C280.496 66.9379 268.918 64.8858 257.767 61.325C247.878 58.3116 239.789 55.0511 234.181 52.7689L225.374 49.1466L233.819 53.5597C239.282 56.3094 247.045 60.2528 256.788 64.2015C262.061 66.3095 267.437 68.1496 272.896 69.7147C279.066 71.4022 285.355 72.622 291.708 73.3636C298.512 74.1864 305.367 74.5173 312.219 74.3539C319.201 74.3725 326.364 73.7078 333.348 72.9707C336.948 72.5844 340.332 72.0895 343.356 71.9896C346.493 71.8894 349.634 72.0422 352.747 72.4465C358.921 73.2936 364.963 74.9179 370.729 77.2809C380.928 81.3822 390.237 87.4198 398.141 95.0602C403.559 100.295 408.078 106.387 411.516 113.09C412.424 114.871 413.236 116.699 413.949 118.567L414.806 120.908L431.92 113.648Z" fill="#091C4D"/>
<path d="M313.198 139.136L311 140.354C308.674 141.542 306.465 142.946 304.402 144.547C300.932 147.117 297.793 150.106 295.058 153.447C291.834 157.542 289.026 161.947 286.673 166.596C284.033 171.52 281.823 176.948 279.433 182.556C277.043 188.164 274.832 194.024 272.19 199.667C269.498 205.42 265.993 210.755 261.783 215.511C260.721 216.681 259.575 217.772 258.355 218.777C257.742 219.315 257.201 219.889 256.552 220.355L254.569 221.682L252.55 223.008L252.081 223.33L251.829 223.51L252.045 223.51L250.856 224.047L246.027 226.193C239.745 228.235 233.218 229.428 226.62 229.74C219.817 230.118 212.98 230.064 206.284 230.694C204.62 230.779 202.961 230.954 201.316 231.221C199.624 231.504 198.148 231.644 196.312 231.999C193.25 232.927 190.262 233.458 187.344 234.638C181.932 236.758 176.791 239.511 172.027 242.839C167.592 245.778 163.841 248.863 160.451 251.481C157.061 254.099 154.176 256.503 151.76 258.368C149.343 260.233 147.289 261.523 145.954 262.491L143.899 263.961L146.062 262.636C147.432 261.739 149.666 260.63 152.118 258.837C154.57 257.044 157.743 255.001 161.24 252.527C164.738 250.053 168.668 247.293 173.173 244.677C177.911 241.803 182.965 239.486 188.235 237.772C190.973 236.843 194.141 236.42 197.202 235.708L201.737 235.324C203.327 235.152 204.925 235.072 206.524 235.085C212.967 234.922 219.767 235.408 226.749 235.427C234.143 235.598 241.525 234.721 248.673 232.822L253.608 230.964L254.833 230.535L255.157 230.356L255.337 230.357L255.625 230.358L256.274 229.999L258.725 228.566L261.212 227.133C262.005 226.632 262.727 225.986 263.484 225.412C264.991 224.296 266.436 223.099 267.812 221.825C272.926 216.75 277.27 210.954 280.706 204.621C284.321 198.692 286.819 192.833 289.497 187.405C292.175 181.978 294.563 177.018 297.201 172.815C299.409 169.036 301.986 165.487 304.895 162.218C306.987 159.956 309.335 157.945 311.893 156.227C313.641 154.986 315.528 153.952 317.515 153.147L319.822 152.037L313.198 139.136Z" fill="#091C4D"/>
<path d="M170.795 178.344L169.139 178.34C167.822 178.205 166.513 177.998 165.218 177.717C160.487 176.57 156.108 174.285 152.46 171.062C146.97 165.986 142.213 160.172 138.327 153.785C133.635 146.027 128.425 138.595 122.731 131.539C119.644 127.905 116.01 124.775 111.959 122.261C109.912 121.145 107.771 120.212 105.56 119.473C103.403 118.783 101.209 118.238 99.0868 117.764C91.3491 116.309 83.5012 115.517 75.6286 115.399C67.9973 115.153 60.3582 115.469 52.7733 116.345C60.369 115.953 67.9834 116.13 75.5527 116.874C83.259 117.427 90.9022 118.652 98.3957 120.534C100.43 121.096 102.434 121.762 104.4 122.529C106.381 123.326 108.282 124.307 110.079 125.459C113.584 127.939 116.674 130.96 119.232 134.409C124.319 141.626 128.916 149.177 132.992 157.01C136.811 164.233 141.64 170.875 147.335 176.734C151.718 181.142 157.125 184.396 163.072 186.205C164.756 186.717 166.475 187.106 168.216 187.37L169.834 187.627L170.795 178.344Z" fill="#091C4D"/>
</svg>
