<svg width="555" height="296" viewBox="0 0 555 296" fill="none" xmlns="http://www.w3.org/2000/svg">
<path d="M255.663 41.1746C258.639 32.625 259.357 20.2453 264.042 12.0377C270.198 1.29949 280.662 6.15567 289.417 0C288.596 6.01888 292.392 8.75473 293.247 14.158C293.448 16.7169 292.972 19.2835 291.868 21.6004C290.763 23.9174 289.069 25.9031 286.955 27.3585C278.884 33.993 260.93 32.3173 255.663 41.0378V41.1746Z" fill="#091C4D"/>
<path d="M291.708 41.2767C291.104 40.4764 290.416 39.7427 289.656 39.088C288.755 38.3077 287.795 37.5988 286.784 36.9677C275.225 28.3498 255.15 40.7637 255.15 40.7637L260.827 46.851C263.864 50.2124 267.478 53.0035 271.497 55.0927C273.648 56.5454 276.201 57.2872 278.796 57.2135C281.391 57.1399 283.897 56.2547 285.963 54.6824C289.691 51.8781 292.803 48.1505 297.317 47.0562C294.985 45.6392 293.055 43.6498 291.708 41.2767Z" fill="#091C4D"/>
<path d="M246.293 5.23236C247.266 5.64952 248.194 6.16517 249.063 6.77127C250.029 7.46659 250.933 8.24466 251.765 9.09672C262.811 18.3986 255.184 40.7643 255.184 40.7643L247.969 36.6263C243.996 34.4416 240.45 31.5568 237.504 28.1109C235.602 26.3499 234.299 24.0377 233.778 21.4986C233.256 18.9595 233.543 16.3208 234.597 13.9529C236.478 9.67809 239.453 5.91629 239.453 1.12854C241.353 3.04826 243.705 4.45949 246.293 5.23236Z" fill="#091C4D"/>
<path d="M237.777 46.7145C239.489 47.8473 241.571 48.2761 243.591 47.9115C244.269 47.7632 244.932 47.5572 245.575 47.2959C249.203 45.9348 252.427 43.6757 254.945 40.7298C250.328 39.9433 247.455 35.2582 242.805 34.6084C241.638 34.4401 240.449 34.6043 239.372 35.0823C238.295 35.5602 237.375 36.3324 236.717 37.31C235.563 39.3867 234.045 41.2399 232.237 42.7818C234.597 43.1579 235.931 45.4492 237.777 46.7145C239.624 47.9799 235.999 45.4834 237.777 46.7145Z" fill="#091C4D"/>
<path d="M253.235 58.9575C251.747 57.5528 250.854 55.6315 250.739 53.5884C250.743 52.8898 250.8 52.1924 250.91 51.5023C251.41 47.6684 252.869 44.0224 255.15 40.9009C256.997 45.2099 262.195 46.954 263.905 51.3313C264.325 52.4296 264.43 53.6237 264.206 54.7782C263.982 55.9327 263.44 57.0015 262.64 57.8632C260.883 59.4766 259.425 61.3866 258.331 63.5059C257.441 61.283 254.911 60.4964 253.235 58.9575C254.842 60.4622 251.559 57.4186 253.235 58.9575Z" fill="#091C4D"/>
<path d="M257.749 37.1049C249.883 44.9591 243.591 54.2455 239.214 64.4634L241.676 66.2075C241.676 66.2075 244.446 53.7594 258.194 37.5836L257.749 37.1049Z" fill="#091C4D"/>
<path d="M345.605 245.304C351.452 252.143 361.78 258.983 366.465 267.327C372.587 278.1 363.046 284.632 363.935 295.301C359.147 291.54 354.838 293.42 349.777 291.403C347.469 290.283 345.498 288.574 344.063 286.448C342.628 284.322 341.78 281.855 341.603 279.297C339.996 269.037 350.563 254.366 345.605 245.304Z" fill="#091C4D"/>
<path d="M327.274 276.287C328.343 276.204 329.399 275.998 330.421 275.671C331.6 275.291 332.744 274.811 333.84 274.235C347.144 268.695 346.665 245.098 346.665 245.098L338.526 246.877C334.099 247.778 329.871 249.469 326.043 251.869C323.693 252.976 321.748 254.792 320.485 257.062C319.221 259.332 318.701 261.942 318.998 264.523C319.546 269.174 321.221 273.62 319.819 278.202C322.109 276.962 324.67 276.304 327.274 276.287Z" fill="#091C4D"/>
<path d="M381.342 255.494C380.479 256.138 379.551 256.689 378.572 257.136C377.465 257.606 376.321 257.983 375.152 258.264C361.472 263.052 346.152 245.201 346.152 245.201L353.368 241.063C357.264 238.774 361.537 237.199 365.987 236.412C368.47 235.661 371.127 235.709 373.581 236.55C376.036 237.39 378.164 238.981 379.666 241.097C382.402 244.893 384.146 249.339 388.25 251.801C385.67 252.423 383.292 253.694 381.342 255.494Z" fill="#091C4D"/>
<path d="M349.913 227.178C348.083 228.081 346.665 229.646 345.946 231.555C345.741 232.239 345.604 232.923 345.468 233.607C344.801 237.418 345.107 241.335 346.357 244.995C349.4 241.404 354.872 241.302 357.813 237.643C358.549 236.726 359.01 235.619 359.144 234.451C359.277 233.283 359.076 232.101 358.566 231.042C357.356 228.986 356.533 226.726 356.137 224.374C354.633 226.22 351.965 226.221 349.913 227.178Z" fill="#091C4D"/>
<path d="M331.515 234.189C333.489 233.623 335.605 233.831 337.431 234.77C338.022 235.138 338.593 235.538 339.141 235.967C342.134 238.378 344.483 241.491 345.981 245.03C341.33 244.38 337.192 248.005 332.541 247.253C331.376 247.066 330.288 246.552 329.404 245.771C328.52 244.99 327.876 243.974 327.548 242.841C327.066 240.514 326.175 238.29 324.915 236.275C327.274 236.617 329.258 234.839 331.378 234.189H331.515Z" fill="#091C4D"/>
<path d="M348.067 249.168C345.284 238.391 340.467 228.246 333.874 219.278L331.104 220.51C331.104 220.51 340.441 229.23 347.383 249.304L348.067 249.168Z" fill="#091C4D"/>
<path d="M296.085 76.4327C302.002 78.5872 310.551 79.2028 316.194 82.52C323.581 86.8974 320.093 94.1132 324.265 100.2C320.093 99.5849 318.177 102.184 314.416 102.731C312.644 102.827 310.877 102.461 309.289 101.67C307.7 100.879 306.344 99.689 305.353 98.217C300.839 92.5743 302.207 80.1945 296.085 76.4327Z" fill="#091C4D"/>
<path d="M295.675 101.398C296.287 100.972 296.849 100.479 297.351 99.9271C297.892 99.3058 298.384 98.6425 298.821 97.9436C304.908 90.0438 296.53 76.0226 296.53 76.0226L292.255 79.8869C289.886 81.9503 287.915 84.4309 286.441 87.2054C285.39 88.6579 284.824 90.4052 284.824 92.1983C284.824 93.9914 285.39 95.7387 286.441 97.1912C288.694 99.4626 290.452 102.176 291.605 105.159C292.606 103.568 294.01 102.27 295.675 101.398Z" fill="#091C4D"/>
<path d="M321.084 70.3114C320.794 70.9898 320.427 71.6324 319.99 72.2265C319.487 72.88 318.938 73.4971 318.348 74.0732C311.817 81.5968 296.393 76.1593 296.393 76.1593L299.334 71.2347C300.876 68.5067 302.904 66.0842 305.319 64.0873C306.556 62.7811 308.173 61.8968 309.94 61.5592C311.708 61.2217 313.536 61.4481 315.168 62.2064C317.834 63.9579 320.841 65.1235 323.991 65.6262C322.631 66.9083 321.629 68.5233 321.084 70.3114Z" fill="#091C4D"/>
<path d="M292.461 64.0189C291.664 65.1899 291.345 66.6218 291.572 68.0201C291.677 68.4962 291.814 68.9646 291.982 69.4222C292.891 71.9389 294.42 74.1855 296.428 75.9541C297.009 72.7737 300.258 70.8243 300.805 67.6097C300.924 66.801 300.814 65.9751 300.487 65.2256C300.161 64.4762 299.631 63.8331 298.958 63.3692C297.53 62.5483 296.266 61.47 295.231 60.1887C294.957 61.8302 293.35 62.7536 292.461 64.0189Z" fill="#091C4D"/>
<path d="M283.808 74.5863C284.814 73.5848 286.153 72.9883 287.57 72.9105C288.048 72.877 288.528 72.877 289.006 72.9105C291.65 73.3024 294.154 74.3486 296.291 75.9542C293.281 77.1853 292.05 80.7761 289.006 81.9047C288.242 82.1857 287.415 82.2481 286.618 82.085C285.821 81.9219 285.084 81.5397 284.492 80.9813C283.406 79.7342 282.095 78.7018 280.628 77.9377C282.167 77.3221 282.748 75.578 283.808 74.5179V74.5863Z" fill="#091C4D"/>
<path d="M298.89 77.9374C293.531 72.4053 287.157 67.9582 280.115 64.8395L278.884 66.5152C286.22 68.8948 292.928 72.8917 298.513 78.211L298.89 77.9374Z" fill="#091C4D"/>
<path d="M467.111 94.0445C468 87.8205 466.871 79.3051 468.991 73.1152C471.762 65.0103 479.524 66.9595 484.654 61.6246C484.894 65.831 487.835 67.1989 489.1 70.7555C489.558 72.4656 489.566 74.2651 489.122 75.979C488.679 77.6929 487.799 79.2628 486.569 80.5362C481.918 86.1105 469.47 87.3759 467.111 94.0445Z" fill="#091C4D"/>
<path d="M491.596 89.3938C491.062 88.8908 490.478 88.444 489.852 88.0601C489.127 87.6512 488.373 87.2968 487.595 87C478.635 82.6568 466.598 93.8396 466.598 93.8396L471.249 97.2595C473.76 99.1423 476.585 100.566 479.593 101.466C481.24 102.162 483.063 102.329 484.81 101.943C486.556 101.557 488.139 100.637 489.339 99.3113C491.528 96.9174 493.067 93.9763 496.179 92.4716C494.412 91.8569 492.834 90.7968 491.596 89.3938Z" fill="#091C4D"/>
<path d="M456.03 70.8241C456.747 70.9796 457.446 71.2088 458.116 71.5081C458.865 71.8626 459.585 72.2742 460.271 72.7392C468.957 77.5954 466.768 93.8053 466.768 93.8053L461.331 91.9245C458.353 90.9576 455.573 89.4633 453.123 87.5129C451.598 86.5608 450.408 85.1554 449.721 83.4935C449.035 81.8316 448.885 79.9964 449.293 78.2451C450.474 75.2783 451.032 72.1006 450.935 68.9091C452.444 69.9677 454.197 70.6266 456.03 70.8241Z" fill="#091C4D"/>
<path d="M455.654 100.132C456.971 100.661 458.441 100.661 459.758 100.132C460.207 99.9592 460.632 99.7294 461.023 99.4483C463.325 98.0603 465.232 96.1059 466.563 93.7714C463.144 93.7714 460.75 91.0356 457.501 91.2065C456.706 91.2594 455.941 91.5299 455.29 91.9883C454.638 92.4467 454.126 93.0754 453.807 93.8056C453.288 95.3658 452.501 96.8239 451.482 98.1146C453.124 98.1146 454.355 99.4483 455.757 100.064L455.654 100.132Z" fill="#091C4D"/>
<path d="M467.76 106.424C466.544 105.643 465.684 104.415 465.366 103.005C465.276 102.53 465.218 102.05 465.195 101.568C465.037 98.8953 465.554 96.2255 466.7 93.8053C468.513 96.507 472.274 96.9857 474.018 99.7557C474.453 100.447 474.683 101.248 474.683 102.064C474.683 102.881 474.453 103.681 474.018 104.373C473.032 105.688 472.29 107.171 471.83 108.75C470.906 107.348 469.094 107.143 467.76 106.322V106.424Z" fill="#091C4D"/>
<path d="M467.966 91.0009C463.66 97.3773 460.608 104.515 458.971 112.033L460.852 112.922C461.721 105.242 464.279 97.8496 468.342 91.2745L467.966 91.0009Z" fill="#091C4D"/>
<path d="M457.569 135.014C463.828 134.843 472.035 132.278 478.464 133.304C486.945 134.672 486.33 142.64 492.486 146.813C488.382 147.77 487.527 150.882 484.244 152.763C482.657 153.479 480.914 153.779 479.179 153.636C477.444 153.492 475.774 152.909 474.326 151.942C468.068 148.317 464.785 136.279 457.74 135.048L457.569 135.014Z" fill="#091C4D"/>
<path d="M466.29 158.372C466.699 157.747 467.043 157.083 467.316 156.388C467.596 155.62 467.813 154.831 467.966 154.028C470.736 144.453 457.706 134.467 457.706 134.467L455.141 139.631C453.684 142.411 452.757 145.438 452.405 148.557C451.996 150.301 452.138 152.129 452.811 153.789C453.485 155.449 454.658 156.859 456.167 157.824C459.113 159.076 461.75 160.955 463.896 163.33C464.268 161.504 465.091 159.799 466.29 158.372Z" fill="#091C4D"/>
<path d="M478.567 120.172C478.523 120.9 478.408 121.621 478.225 122.327C478.008 123.125 477.722 123.903 477.37 124.652C473.95 134.056 457.74 134.638 457.74 134.638L458.664 128.961C459.103 125.866 460.099 122.877 461.605 120.138C462.281 118.469 463.462 117.054 464.983 116.091C466.504 115.128 468.289 114.666 470.086 114.769C473.207 115.453 476.438 115.453 479.559 114.769C478.78 116.458 478.439 118.316 478.567 120.172Z" fill="#091C4D"/>
<path d="M449.601 124.789C449.312 126.168 449.544 127.605 450.251 128.824C450.52 129.221 450.817 129.598 451.14 129.953C452.905 131.973 455.152 133.514 457.672 134.433C457.056 131.252 459.382 128.243 458.698 125.062C458.543 124.24 458.154 123.48 457.578 122.873C457.002 122.266 456.262 121.839 455.449 121.643C453.814 121.414 452.236 120.881 450.798 120.069C451.14 121.711 449.977 123.147 449.601 124.652C449.225 126.157 449.977 123.318 449.601 124.789Z" fill="#091C4D"/>
<path d="M445.463 137.784C446.005 136.47 447.034 135.416 448.336 134.843C448.78 134.672 449.259 134.57 449.704 134.433C452.311 133.839 455.024 133.897 457.603 134.604C455.278 136.861 455.415 140.623 452.987 142.811C452.387 143.357 451.643 143.721 450.844 143.86C450.045 144 449.222 143.909 448.473 143.598C446.993 142.853 445.397 142.367 443.753 142.162C444.984 141.067 444.882 139.22 445.463 137.784C444.882 139.186 446.044 136.348 445.463 137.784Z" fill="#091C4D"/>
<path d="M460.647 135.356C453.62 132.186 446.052 130.387 438.35 130.055L437.837 132.073C445.542 131.602 453.255 132.864 460.408 135.766L460.647 135.356Z" fill="#091C4D"/>
<path d="M356.821 179.301C361.985 182.721 370.124 185.627 374.707 190.278C380.76 196.366 375.562 202.453 378.127 209.429C374.262 207.788 371.732 209.806 367.867 209.429C366.132 209.076 364.517 208.279 363.181 207.117C361.844 205.954 360.832 204.465 360.241 202.795C357.3 196.195 361.746 184.533 356.821 179.369V179.301Z" fill="#091C4D"/>
<path d="M350.119 203.24C350.804 202.985 351.458 202.652 352.068 202.248C352.759 201.79 353.412 201.275 354.017 200.709C361.917 194.622 357.437 178.925 357.437 178.925L352.307 181.558C349.519 182.987 346.998 184.884 344.852 187.166C343.492 188.335 342.531 189.899 342.102 191.64C341.673 193.381 341.797 195.212 342.458 196.879C344.066 199.637 345.079 202.7 345.433 205.873C346.758 204.627 348.366 203.724 350.119 203.24Z" fill="#091C4D"/>
<path d="M382.538 179.643C382.07 180.209 381.555 180.735 380.999 181.216C380.348 181.719 379.662 182.176 378.948 182.584C370.706 188.226 357.163 179.164 357.163 179.164L361.267 175.129C363.44 172.872 366.015 171.04 368.859 169.725C370.383 168.77 372.169 168.322 373.963 168.445C375.757 168.568 377.466 169.256 378.845 170.409C380.99 172.781 383.596 174.69 386.505 176.018C384.895 176.867 383.529 178.115 382.538 179.643Z" fill="#091C4D"/>
<path d="M356.445 166.306C355.366 167.234 354.691 168.547 354.564 169.965C354.531 170.443 354.531 170.923 354.564 171.401C354.824 174.068 355.74 176.63 357.232 178.856C358.6 175.915 362.259 174.855 363.558 172.017C363.886 171.271 363.995 170.449 363.874 169.644C363.753 168.839 363.407 168.084 362.875 167.468C361.701 166.312 360.74 164.957 360.036 163.467C359.386 164.972 357.574 165.451 356.411 166.442C355.248 167.434 357.574 165.314 356.445 166.306Z" fill="#091C4D"/>
<path d="M345.399 174.342C346.619 173.603 348.079 173.37 349.469 173.692C349.924 173.821 350.37 173.981 350.803 174.171C353.27 175.21 355.435 176.857 357.095 178.959C353.88 179.369 351.76 182.379 348.545 182.857C347.731 182.952 346.907 182.808 346.173 182.444C345.438 182.08 344.825 181.511 344.408 180.805C343.659 179.337 342.651 178.016 341.432 176.907C343.108 176.736 344.1 175.163 345.399 174.342Z" fill="#091C4D"/>
<path d="M359.147 181.387C355.359 174.688 350.321 168.779 344.305 163.98L342.663 165.28C349.169 169.453 354.66 175.026 358.737 181.592L359.147 181.387Z" fill="#091C4D"/>
<path d="M456.92 190.586C462.699 193.049 471.214 194.006 476.652 197.768C483.765 202.522 479.901 209.532 483.731 215.859C479.627 215.004 477.541 217.5 473.779 217.842C472.002 217.846 470.255 217.387 468.708 216.512C467.161 215.637 465.869 214.375 464.956 212.849C460.784 206.967 462.802 194.656 456.92 190.586Z" fill="#091C4D"/>
<path d="M455.141 215.448C455.763 215.061 456.337 214.602 456.851 214.08C457.444 213.504 457.982 212.874 458.459 212.199C464.956 204.642 457.364 190.21 457.364 190.21L452.884 193.801C450.434 195.698 448.338 198.013 446.694 200.64C445.587 202.05 444.948 203.771 444.869 205.562C444.789 207.353 445.272 209.124 446.25 210.626C448.397 213.008 450.017 215.817 451.003 218.868C452.087 217.411 453.506 216.238 455.141 215.448Z" fill="#091C4D"/>
<path d="M482.192 185.832C481.866 186.492 481.464 187.112 480.995 187.679C480.466 188.321 479.883 188.916 479.251 189.457C472.411 196.605 457.227 190.312 457.227 190.312L460.442 185.559C462.128 182.9 464.297 180.58 466.837 178.719C468.143 177.488 469.802 176.697 471.581 176.458C473.36 176.218 475.169 176.543 476.754 177.385C479.312 179.306 482.25 180.659 485.372 181.352C483.957 182.559 482.864 184.099 482.192 185.832Z" fill="#091C4D"/>
<path d="M453.978 177.967C453.106 179.095 452.701 180.516 452.85 181.934C452.931 182.409 453.046 182.877 453.192 183.336C453.951 185.923 455.351 188.275 457.261 190.176C458.048 187.03 461.399 185.252 462.083 182.071C462.254 181.278 462.196 180.452 461.918 179.69C461.64 178.928 461.152 178.259 460.51 177.762C459.18 176.83 458.023 175.673 457.09 174.342C456.714 175.984 455.073 176.805 454.115 178.002C453.158 179.198 454.902 176.77 453.978 177.967Z" fill="#091C4D"/>
<path d="M444.779 188.056C445.817 187.087 447.19 186.56 448.609 186.585L450.046 186.79C452.666 187.314 455.113 188.491 457.159 190.21C454.081 191.27 452.645 194.758 449.533 195.75C448.754 195.991 447.924 196.007 447.137 195.795C446.35 195.583 445.639 195.153 445.087 194.553C444.065 193.207 442.815 192.049 441.394 191.133C442.967 190.62 443.651 188.911 444.813 187.714C445.976 186.517 443.548 189.082 444.779 188.056Z" fill="#091C4D"/>
<path d="M459.655 192.228C454.595 186.408 448.466 181.614 441.599 178.104L440.265 179.711C447.471 182.497 453.958 186.868 459.245 192.501L459.655 192.228Z" fill="#091C4D"/>
<path d="M292.153 216.44C292.666 222.699 295.573 230.769 294.991 237.267C294.102 245.782 286.1 245.611 282.27 251.972C281.107 247.903 277.926 247.219 275.909 244.072C275.055 242.486 274.633 240.703 274.687 238.902C274.741 237.101 275.269 235.345 276.217 233.813C279.465 227.35 291.298 223.554 292.153 216.304V216.44Z" fill="#091C4D"/>
<path d="M269.308 226.46C269.948 226.826 270.625 227.123 271.326 227.349C272.111 227.578 272.911 227.75 273.72 227.862C283.467 230.119 292.7 216.645 292.7 216.645L287.434 214.388C284.574 213.095 281.503 212.33 278.371 212.131C276.603 211.81 274.779 212.049 273.155 212.816C271.53 213.582 270.185 214.837 269.308 216.406C268.205 219.411 266.48 222.149 264.247 224.442C266.076 224.683 267.816 225.377 269.308 226.46Z" fill="#091C4D"/>
<path d="M308.123 236.617C307.388 236.635 306.653 236.566 305.934 236.412C305.129 236.239 304.34 235.999 303.575 235.694C293.999 232.889 292.529 216.611 292.529 216.611L298.24 217.227C301.36 217.509 304.405 218.342 307.234 219.689C308.932 220.279 310.404 221.383 311.446 222.847C312.488 224.312 313.048 226.065 313.048 227.862C312.56 231.057 312.746 234.319 313.595 237.438C311.874 236.691 309.987 236.408 308.123 236.617Z" fill="#091C4D"/>
<path d="M301.933 207.959C300.539 207.719 299.107 208.025 297.932 208.814L296.838 209.771C294.917 211.67 293.506 214.022 292.734 216.611C295.88 215.824 299.027 217.979 302.139 217.124C302.925 216.901 303.633 216.463 304.183 215.858C304.733 215.254 305.103 214.508 305.251 213.704C305.397 212.066 305.837 210.467 306.55 208.985C304.977 209.395 303.472 208.335 301.933 208.027V207.959Z" fill="#091C4D"/>
<path d="M288.733 204.505C290.074 204.984 291.177 205.965 291.811 207.241C292.006 207.683 292.166 208.141 292.289 208.608C293.047 211.176 293.141 213.894 292.563 216.508C290.203 214.251 286.442 214.627 284.116 212.336C283.533 211.759 283.127 211.028 282.945 210.228C282.764 209.429 282.814 208.594 283.09 207.822C283.76 206.32 284.154 204.71 284.253 203.068C285.45 204.231 287.262 204.026 288.733 204.505Z" fill="#091C4D"/>
<path d="M291.982 219.62C294.773 212.438 296.165 204.789 296.086 197.084L294.034 196.673C294.902 204.345 294.049 212.114 291.537 219.415L291.982 219.62Z" fill="#091C4D"/>
<path d="M219.926 86.4528C227.381 89.1544 238.222 89.8726 245.335 94.1473C254.671 99.6875 250.26 108.784 255.595 116.513C250.328 115.726 247.866 119.044 243.147 119.693C240.901 119.845 238.655 119.4 236.637 118.403C234.618 117.406 232.9 115.892 231.656 114.016C225.945 106.869 227.655 91.1721 219.96 86.4528H219.926Z" fill="#091C4D"/>
<path d="M219.379 118.017C220.135 117.474 220.834 116.856 221.465 116.171C222.175 115.405 222.805 114.568 223.346 113.674C231.075 103.654 220.439 85.9054 220.439 85.9054L215.036 90.7957C212.043 93.4004 209.552 96.5296 207.683 100.029C206.38 101.896 205.696 104.124 205.726 106.401C205.757 108.677 206.501 110.886 207.854 112.717C210.248 116.137 213.497 118.667 214.386 122.771C215.624 120.792 217.341 119.157 219.379 118.017Z" fill="#091C4D"/>
<path d="M251.525 78.69C251.146 79.547 250.676 80.3609 250.123 81.1181C249.502 81.9464 248.816 82.724 248.071 83.4436C239.795 92.9849 220.302 86.111 220.302 86.111L223.996 79.8186C225.968 76.381 228.539 73.3235 231.588 70.7903C233.153 69.1412 235.197 68.0261 237.431 67.6027C239.665 67.1792 241.976 67.4688 244.036 68.4306C247.763 70.1405 250.875 72.7737 255.219 72.8421C253.518 74.4524 252.249 76.4629 251.525 78.69Z" fill="#091C4D"/>
<path d="M215.275 70.7215C214.261 72.2 213.868 74.0175 214.181 75.7828C214.295 76.3794 214.467 76.9636 214.694 77.527C215.847 80.7181 217.774 83.5734 220.302 85.8371C221.055 81.7676 225.192 79.3394 225.842 75.2699C226.006 74.2499 225.878 73.2043 225.473 72.2542C225.067 71.304 224.401 70.4881 223.551 69.9007C221.746 68.8534 220.137 67.4994 218.797 65.8995C218.455 67.9514 216.404 69.1142 215.378 70.7215C214.352 72.3288 216.404 69.1484 215.275 70.7215Z" fill="#091C4D"/>
<path d="M204.366 84.0933C205.609 82.7877 207.317 82.0257 209.12 81.973C209.727 81.9791 210.334 82.0363 210.932 82.144C214.284 82.6418 217.458 83.9703 220.165 86.0084C216.369 87.5474 214.762 92.0616 210.898 93.5321C209.934 93.8848 208.891 93.9595 207.888 93.7479C206.884 93.5363 205.96 93.0467 205.221 92.3351C203.831 90.7782 202.175 89.4812 200.331 88.5049C202.28 87.7526 203.032 85.4955 204.366 84.0933C203.032 85.4613 205.7 82.6912 204.366 84.0933Z" fill="#091C4D"/>
<path d="M223.448 88.3338C216.663 81.3314 208.594 75.7003 199.681 71.7477L198.108 73.868C198.108 73.868 208.983 76.4329 223.004 88.71L223.448 88.3338Z" fill="#091C4D"/>
<path d="M-21 149.754L-15.5625 145.821L-9.06487 141.102L-4.96104 138.126C-3.49052 137.066 -1.54127 135.972 0.442224 134.707L13.335 127.149C18.0886 124.652 23.3209 122.464 28.8268 119.899C41.361 114.619 54.385 110.587 67.7101 107.861C71.4015 107.035 75.1344 106.407 78.8929 105.98C82.6889 105.467 86.5874 104.852 90.5202 104.441L102.592 103.757L108.748 103.415H114.972L127.625 103.655L140.518 104.715L147.016 105.296L153.548 106.22C157.925 106.835 162.336 107.382 166.748 108.135C184.36 111.212 202.212 115.316 220.063 120.172C237.914 125.029 255.8 130.432 273.515 136.177C291.229 141.922 308.944 147.428 326.385 152.558C335.106 155.226 343.792 157.483 352.376 159.842C360.959 162.202 369.475 164.254 377.956 165.895C386.437 167.537 394.713 169.11 402.921 170.444C406.99 171.162 411.06 171.436 415.095 171.948C419.131 172.461 423.098 172.906 427.03 172.974L438.658 173.556C442.488 173.556 446.25 173.385 449.943 173.351C457.095 173.167 464.23 172.585 471.317 171.606C474.653 171.198 477.964 170.604 481.234 169.828L490.707 167.879C496.692 165.998 502.403 164.288 507.807 162.476L522.238 156.217C526.616 154.063 530.411 151.669 533.934 149.72L538.961 146.881C540.466 145.924 541.799 144.864 543.099 143.974L549.597 139.289L555 135.391C555 135.391 553.222 136.861 549.802 139.563L543.544 144.59C542.278 145.547 541.013 146.676 539.508 147.736L534.652 150.848C531.232 153.003 527.47 155.636 523.196 158.03L508.867 165.143C503.566 167.229 497.855 169.281 491.768 171.538L482.226 174.035C478.906 174.993 475.539 175.781 472.138 176.394C464.924 177.772 457.64 178.754 450.319 179.335C446.523 179.575 442.659 180.019 438.76 180.122H426.791C422.721 180.122 418.652 179.882 414.514 179.677C410.376 179.472 406.135 179.301 401.929 178.788C393.516 177.865 384.83 176.976 376.212 175.368C367.594 173.761 358.771 172.256 349.845 170.581C340.919 168.905 332.062 166.785 323.17 164.562C305.251 160.321 287.262 155.499 269.308 150.882C251.354 146.266 233.4 141.786 215.72 137.853C198.039 133.92 180.632 131.013 163.773 128.893C159.566 128.414 155.394 128.141 151.256 127.764L145.101 127.217L139.013 127.012L127.044 126.636L115.451 127.012L109.808 127.217L104.268 127.833L93.4956 128.996C90.0757 129.543 86.6559 130.295 83.2361 130.911C79.9515 131.456 76.6981 132.176 73.4896 133.065C62.1075 136.038 51.0431 140.115 40.4541 145.24C35.8374 147.702 31.3574 149.822 27.5614 152.079L17.5413 158.645C16.0366 159.705 14.6345 160.424 13.2324 161.552L9.26541 164.733L3.04132 169.794L-2.15677 173.966L-21 149.754Z" fill="#091C4D"/>
<path d="M145.066 106.903L146.058 104.749C146.708 103.415 148.144 100.611 149.786 97.9094C154.519 90.3994 160.458 83.721 167.363 78.1428C176.813 70.4251 187.673 64.6177 199.339 61.0437C205.884 58.9884 212.664 57.7704 219.516 57.4187C223.066 57.2656 226.623 57.4029 230.151 57.8291C233.879 58.2736 236.991 59.0602 240.24 59.6758C246.669 60.9411 252.961 61.9671 259.357 62.6169C265.531 63.3287 271.75 63.5688 277.96 63.335C289.075 62.9001 300.082 60.9793 310.688 57.6239C320.092 54.7854 327.787 51.7076 333.122 49.5531L341.501 46.1333L333.464 50.3055C328.266 52.9045 320.879 56.6322 311.611 60.3598C306.595 62.3496 301.482 64.0845 296.291 65.5579C290.423 67.1459 284.444 68.2891 278.405 68.9777C271.937 69.7423 265.423 70.0395 258.912 69.8668C252.278 69.8668 245.472 69.2171 238.838 68.4989C235.418 68.1228 232.203 67.644 229.33 67.5414C226.349 67.4382 223.364 67.5755 220.405 67.9518C214.536 68.7411 208.791 70.2693 203.306 72.5001C193.603 76.3717 184.743 82.0853 177.212 89.3256C172.051 94.2865 167.741 100.064 164.457 106.425C163.589 108.115 162.813 109.85 162.131 111.623L161.31 113.846L145.066 106.903Z" fill="#091C4D"/>
<path d="M257.818 131.423L259.904 132.586C262.11 133.721 264.206 135.061 266.162 136.587C269.453 139.038 272.428 141.887 275.019 145.068C278.072 148.968 280.73 153.16 282.953 157.585C285.45 162.27 287.536 167.434 289.793 172.769C292.05 178.104 294.136 183.678 296.633 189.047C299.176 194.52 302.493 199.599 306.482 204.129C307.488 205.243 308.574 206.283 309.73 207.241C310.312 207.754 310.825 208.301 311.44 208.745L313.321 210.011L315.236 211.276L315.681 211.584L315.92 211.755H315.715L316.844 212.268L321.426 214.32C327.391 216.276 333.59 217.426 339.859 217.74C346.322 218.116 352.82 218.082 359.181 218.697C360.762 218.782 362.338 218.953 363.9 219.21C365.508 219.484 366.91 219.621 368.654 219.962C371.561 220.852 374.399 221.365 377.169 222.493C382.306 224.521 387.185 227.15 391.703 230.325C395.91 233.129 399.466 236.07 402.681 238.566C405.896 241.063 408.632 243.354 410.923 245.132C413.214 246.911 415.163 248.142 416.429 249.065L418.378 250.467L416.326 249.202C415.027 248.347 412.906 247.287 410.581 245.577C408.255 243.867 405.246 241.918 401.929 239.558C398.611 237.198 394.884 234.565 390.609 232.069C386.114 229.326 381.317 227.111 376.314 225.468C373.715 224.579 370.706 224.169 367.799 223.485L363.49 223.109C361.98 222.941 360.461 222.861 358.942 222.869C352.82 222.698 346.357 223.143 339.722 223.143C332.695 223.287 325.683 222.435 318.896 220.612L314.21 218.834L313.048 218.424L312.74 218.253H312.569H312.295L311.68 217.911L309.354 216.543L306.995 215.175C306.242 214.696 305.558 214.08 304.84 213.533C303.411 212.469 302.041 211.328 300.736 210.113C295.889 205.278 291.776 199.759 288.528 193.732C285.108 188.09 282.748 182.515 280.217 177.351C277.687 172.188 275.43 167.468 272.933 163.467C270.845 159.871 268.405 156.492 265.649 153.379C263.667 151.223 261.441 149.306 259.015 147.667C257.356 146.484 255.566 145.497 253.68 144.726L251.491 143.666L257.818 131.423Z" fill="#091C4D"/>
<path d="M393.037 169.041H394.61C395.863 168.917 397.107 168.723 398.338 168.46C402.837 167.382 407.004 165.222 410.478 162.167C415.708 157.359 420.243 151.846 423.952 145.787C428.43 138.426 433.4 131.377 438.829 124.686C441.771 121.241 445.232 118.276 449.088 115.897C451.036 114.842 453.073 113.961 455.175 113.264C457.227 112.614 459.313 112.101 461.331 111.657C468.687 110.293 476.147 109.561 483.628 109.468C490.88 109.254 498.139 109.574 505.344 110.426C498.127 110.033 490.891 110.182 483.697 110.87C476.372 111.376 469.106 112.521 461.981 114.29C460.046 114.819 458.14 115.447 456.27 116.171C454.386 116.923 452.577 117.851 450.866 118.941C447.529 121.289 444.586 124.152 442.146 127.422C437.294 134.268 432.906 141.431 429.014 148.864C425.366 155.718 420.76 162.017 415.334 167.571C411.158 171.748 406.012 174.827 400.356 176.531C398.754 177.013 397.12 177.378 395.465 177.625L393.926 177.864L393.037 169.041Z" fill="#091C4D"/>
</svg>
