<svg width="1007" height="779" viewBox="0 0 1007 779" fill="none" xmlns="http://www.w3.org/2000/svg">
<path d="M420.881 244.279C419.837 230.218 413.194 212.082 414.805 197.45C416.95 178.291 434.913 178.748 443.61 164.527C446.166 173.637 453.286 175.195 457.855 182.388C459.727 185.92 460.637 189.883 460.494 193.878C460.351 197.873 459.16 201.761 457.04 205.15C449.616 219.631 422.921 228.359 420.797 244.084L420.881 244.279Z" fill="#425637"/>
<path d="M472.455 222.095C471.096 221.326 469.658 220.703 468.167 220.238C466.396 219.682 464.584 219.263 462.748 218.988C440.891 213.833 419.893 244.009 419.893 244.009L431.777 249.192C438.199 252.114 445.092 253.864 452.131 254.36C456.105 255.103 460.213 254.582 463.875 252.869C467.538 251.156 470.572 248.339 472.55 244.812C476.139 238.495 478.277 231.24 484.051 226.88C479.841 226.299 475.849 224.652 472.455 222.095Z" fill="#425637"/>
<path d="M385.224 198.72C386.874 198.713 388.52 198.875 390.136 199.203C391.948 199.599 393.722 200.15 395.438 200.853C416.986 207.303 419.943 243.99 419.943 243.99L407.067 242.547C400.036 241.886 393.183 239.959 386.837 236.86C383.028 235.522 379.734 233.025 377.416 229.719C375.098 226.413 373.873 222.465 373.912 218.428C373.952 211.154 375.874 203.935 372.908 197.093C376.812 198.659 381.047 199.219 385.224 198.72Z" fill="#425637"/>
<path d="M398.753 263.276C401.9 263.835 405.142 263.157 407.802 261.385C408.679 260.753 409.499 260.048 410.256 259.277C414.598 255.084 417.806 249.858 419.579 244.088C412.494 245.824 405.486 240.908 398.437 242.861C396.666 243.343 395.068 244.315 393.825 245.665C392.582 247.015 391.745 248.689 391.412 250.493C391.048 254.176 390.028 257.764 388.399 261.088C392.004 260.164 395.33 262.612 398.753 263.276C402.176 263.94 395.449 262.618 398.753 263.276Z" fill="#425637"/>
<path d="M428.428 271.197C425.431 270.111 422.964 267.919 421.534 265.07C421.108 264.069 420.757 263.037 420.486 261.983C418.826 256.194 418.652 250.08 419.978 244.206C425.287 249.22 433.796 248.492 438.951 253.688C440.233 254.997 441.121 256.639 441.517 258.427C441.913 260.216 441.799 262.079 441.189 263.807C439.679 267.2 438.778 270.834 438.527 274.54C435.879 271.914 431.776 272.358 428.428 271.197C431.657 272.351 425.08 270.035 428.428 271.197Z" fill="#425637"/>
<path d="M421.341 237.172C414.965 253.269 411.727 270.438 411.801 287.752L416.4 288.719C416.4 288.719 412.647 269.214 422.273 237.581L421.341 237.172Z" fill="#425637"/>
<path d="M675.871 480.277C688.465 486.429 707.462 489.805 719.326 498.828C734.748 510.43 725.159 525.676 733.04 540.373C723.867 537.963 718.874 543.32 710.391 543.572C706.4 543.401 702.525 542.18 699.157 540.031C695.789 537.882 693.048 534.882 691.211 531.335C682.559 517.669 688.572 490.157 675.871 480.277Z" fill="#425637"/>
<path d="M668.87 535.911C670.346 535.13 671.727 534.181 672.985 533.082C674.434 531.808 675.771 530.413 676.982 528.911C692.561 512.752 677.259 479.327 677.259 479.327L666.729 486.911C660.961 490.941 655.966 495.978 651.984 501.779C649.31 504.817 647.657 508.617 647.257 512.644C646.857 516.671 647.731 520.722 649.755 524.226C653.418 530.533 658.567 535.849 659.402 543.266C661.906 540.074 665.158 537.548 668.87 535.911Z" fill="#425637"/>
<path d="M733.255 472.703C732.422 474.158 731.436 475.519 730.314 476.765C729.023 478.122 727.622 479.37 726.126 480.496C709.543 495.812 676.589 479.792 676.589 479.792L684.338 469.409C688.488 463.724 693.619 458.826 699.491 454.945C702.574 452.333 706.401 450.756 710.429 450.437C714.458 450.118 718.485 451.072 721.942 453.166C728.203 456.896 733.45 462.169 740.84 463.145C737.538 465.632 734.927 468.922 733.255 472.703Z" fill="#425637"/>
<path d="M670.8 451.706C668.743 454.129 667.686 457.244 667.842 460.419C667.973 461.524 668.201 462.586 668.429 463.648C669.837 469.506 672.7 474.914 676.755 479.371C678.88 472.354 686.636 468.818 688.572 461.767C689.056 460.001 689.029 458.134 688.496 456.382C687.963 454.63 686.944 453.065 685.558 451.868C682.556 449.679 679.98 446.959 677.957 443.843C676.951 447.414 673.139 449.066 670.8 451.706Z" fill="#425637"/>
<path d="M648.85 473.124C651.321 471.092 654.473 470.078 657.665 470.289C658.738 470.449 659.801 470.666 660.85 470.941C666.62 472.531 671.907 475.525 676.239 479.654C669.19 481.607 665.522 489.351 658.409 491.157C656.629 491.612 654.756 491.551 653.009 490.983C651.262 490.414 649.712 489.361 648.541 487.946C646.411 484.918 643.76 482.293 640.71 480.194C644.294 479.22 646.027 475.45 648.655 473.208L648.85 473.124Z" fill="#425637"/>
<path d="M681.784 484.275C671.131 470.598 657.962 459.084 642.986 450.353L639.79 453.829C639.79 453.829 658.534 460.507 680.891 484.895L681.784 484.275Z" fill="#425637"/>
<path d="M500.49 269.625C510.28 269.039 522.879 264.622 532.998 265.867C546.266 267.547 545.751 280.02 555.485 286.134C549.141 287.839 548.014 292.74 542.977 295.852C540.504 297.087 537.753 297.658 534.993 297.512C532.233 297.365 529.558 296.505 527.23 295.015C517.283 289.748 511.569 271.209 500.49 269.625Z" fill="#425637"/>
<path d="M515.369 305.556C515.98 304.568 516.478 303.515 516.853 302.416C517.242 301.193 517.533 299.94 517.725 298.671C521.531 283.61 500.871 268.763 500.871 268.763L497.156 276.934C495.048 281.35 493.769 286.116 493.381 290.994C492.779 293.721 493.052 296.569 494.163 299.131C495.274 301.694 497.165 303.84 499.567 305.265C504.194 307.115 508.387 309.903 511.883 313.453C512.327 310.559 513.53 307.834 515.369 305.556Z" fill="#425637"/>
<path d="M532.423 245.39C532.429 246.539 532.302 247.685 532.045 248.805C531.731 250.05 531.33 251.272 530.843 252.46C526.17 267.259 500.76 269.043 500.76 269.043L501.912 260.183C502.425 255.33 503.823 250.611 506.037 246.262C506.996 243.628 508.759 241.363 511.075 239.786C513.392 238.209 516.145 237.399 518.947 237.472C523.842 238.324 528.862 238.126 533.674 236.893C532.525 239.568 532.093 242.497 532.423 245.39Z" fill="#425637"/>
<path d="M487.62 254.131C487.206 256.298 487.639 258.541 488.828 260.399C489.273 261.015 489.759 261.599 490.283 262.149C493.141 265.182 496.718 267.446 500.683 268.729C499.543 263.824 502.979 259.026 501.769 254.093C501.438 252.863 500.769 251.751 499.838 250.882C498.908 250.014 497.752 249.423 496.503 249.177C493.953 248.889 491.479 248.13 489.206 246.941C489.832 249.456 488.107 251.771 487.62 254.131Z" fill="#425637"/>
<path d="M481.801 274.591C482.617 272.537 484.162 270.855 486.139 269.866C486.801 269.521 487.487 269.224 488.191 268.976C492.212 267.898 496.438 267.842 500.486 268.813C496.948 272.437 497.413 278.331 493.763 281.829C492.845 282.704 491.702 283.306 490.461 283.566C489.221 283.827 487.932 283.737 486.74 283.306C484.414 282.197 481.902 281.534 479.332 281.351C481.15 279.517 480.9 276.665 481.758 274.493L481.801 274.591Z" fill="#425637"/>
<path d="M505.429 270.038C494.345 265.452 482.48 263.045 470.485 262.951L469.763 266.108C481.722 264.964 493.785 266.52 505.061 270.662L505.429 270.038Z" fill="#425637"/>
<path d="M755.809 188.845C753.224 179.4 746.336 167.93 745.531 157.77C744.469 144.472 756.771 142.448 760.796 131.646C763.744 137.509 768.795 137.642 772.806 141.941C774.52 144.101 775.646 146.668 776.074 149.392C776.502 152.116 776.217 154.904 775.249 157.486C772.055 168.333 755.05 177.853 755.809 188.845Z" fill="#425637"/>
<path d="M787.92 167.029C786.845 166.641 785.733 166.365 784.601 166.204C783.312 166.068 782.014 166.029 780.719 166.087C765.224 165.431 754.949 188.869 754.949 188.869L763.714 190.875C768.47 192.01 773.389 192.295 778.244 191.717C781.03 191.692 783.739 190.801 785.996 189.168C788.252 187.534 789.945 185.239 790.838 182.6C792.483 177.823 792.86 172.667 796.376 168.589C793.47 168.805 790.557 168.268 787.92 167.029Z" fill="#425637"/>
<path d="M725.589 162.525C726.71 162.303 727.851 162.197 728.994 162.21C730.284 162.253 731.568 162.394 732.836 162.634C748.257 164.193 755.172 188.714 755.172 188.714L746.236 189.395C741.381 189.858 736.482 189.445 731.773 188.175C729.004 187.759 726.433 186.488 724.422 184.538C722.411 182.589 721.06 180.059 720.559 177.303C720.408 172.332 719.238 167.445 717.121 162.944C719.934 163.522 722.847 163.378 725.589 162.525Z" fill="#425637"/>
<path d="M743.208 204.643C745.418 204.583 747.518 203.672 749.073 202.1C749.607 201.575 750.073 200.983 750.457 200.339C752.886 196.93 754.401 192.955 754.858 188.794C749.971 190.913 744.855 188.486 740.318 190.743C739.215 191.311 738.289 192.171 737.642 193.23C736.995 194.289 736.652 195.505 736.65 196.745C736.874 199.297 736.652 201.868 735.996 204.344C738.342 203.327 740.927 204.47 743.312 204.481L743.208 204.643Z" fill="#425637"/>
<path d="M764.406 206.133C762.184 205.769 760.194 204.546 758.866 202.729C758.443 202.107 758.064 201.457 757.732 200.782C755.849 197.06 754.935 192.924 755.073 188.756C759.337 191.494 765.01 189.848 769.218 192.726C770.267 193.445 771.092 194.446 771.598 195.613C772.103 196.78 772.27 198.066 772.078 199.323C771.483 201.815 771.342 204.393 771.662 206.935C769.474 205.503 766.757 206.333 764.342 205.986L764.406 206.133Z" fill="#425637"/>
<path d="M755.145 183.965C752.943 195.745 753.002 207.836 755.321 219.593L758.56 219.699C755.044 208.185 754.119 196.036 755.852 184.123L755.145 183.965Z" fill="#425637"/>
<path d="M767.553 253.303C776.391 249.182 786.531 240.432 796.355 237.915C809.322 234.616 813.379 246.385 824.761 248.534C819.489 252.444 820.195 257.421 816.669 262.143C814.844 264.149 812.54 265.658 809.971 266.528C807.403 267.397 804.655 267.599 801.987 267.114C790.798 265.811 778.649 250.641 767.819 253.246L767.553 253.303Z" fill="#425637"/>
<path d="M794.486 281.281C794.683 280.135 794.763 278.972 794.723 277.81C794.647 276.54 794.469 275.277 794.19 274.036C792.217 258.636 767.41 252.437 767.41 252.437L766.944 261.405C766.584 266.281 767.133 271.181 768.563 275.856C769.058 278.602 770.394 281.127 772.385 283.082C774.377 285.037 776.926 286.325 779.681 286.77C784.666 286.734 789.599 287.785 794.137 289.85C793.537 287.009 793.657 284.063 794.486 281.281Z" fill="#425637"/>
<path d="M788.366 219.085C788.754 220.152 789.037 221.254 789.213 222.376C789.397 223.651 789.47 224.94 789.431 226.228C790.37 241.787 767.565 252.66 767.565 252.66L765.368 243.975C764.078 239.28 763.65 234.391 764.105 229.544C764.037 226.741 764.848 223.986 766.426 221.668C768.003 219.35 770.267 217.583 772.899 216.617C777.782 215.661 782.401 213.659 786.436 210.749C786.37 213.645 787.034 216.512 788.366 219.085Z" fill="#425637"/>
<path d="M749.832 243.628C750.274 245.777 751.495 247.688 753.26 248.992C753.89 249.393 754.549 249.748 755.23 250.054C759.003 251.848 763.169 252.658 767.34 252.41C764.49 248.246 765.949 242.505 763.001 238.383C762.271 237.304 761.244 236.458 760.045 235.948C758.845 235.438 757.524 235.285 756.24 235.509C753.762 236.196 751.176 236.41 748.619 236.142C750.124 238.276 749.352 241.049 749.747 243.432C750.142 245.815 749.458 241.293 749.832 243.628Z" fill="#425637"/>
<path d="M751.969 264.763C751.929 262.549 752.748 260.405 754.253 258.781C754.782 258.261 755.403 257.818 755.953 257.347C759.311 254.883 763.225 253.286 767.349 252.697C765.423 257.364 767.949 262.655 765.835 267.287C765.316 268.439 764.479 269.419 763.423 270.114C762.367 270.808 761.135 271.187 759.872 271.207C757.296 271.059 754.714 271.354 752.238 272.078C753.319 269.752 752.028 267.176 751.969 264.763C752.007 267.127 751.91 262.351 751.969 264.763Z" fill="#425637"/>
<path d="M772.164 251.885C760.157 251.709 748.228 253.826 737.016 258.123L737.532 261.324C748.251 255.877 760.055 252.903 772.076 252.62L772.164 251.885Z" fill="#425637"/>
<path d="M651.012 379.004C660.51 380.693 673.942 379.805 683.373 383.612C695.794 388.562 692.136 400.481 700.124 408.862C693.584 408.91 691.218 413.361 685.462 415.218C682.763 415.788 679.962 415.649 677.331 414.816C674.701 413.982 672.332 412.482 670.454 410.461C662.162 402.85 661.291 383.431 651.054 379.102L651.012 379.004Z" fill="#425637"/>
<path d="M656.263 417.368C657.086 416.579 657.814 415.698 658.435 414.743C659.139 413.66 659.752 412.521 660.267 411.336C667.785 397.743 651.659 378.086 651.659 378.086L645.96 385.027C642.861 388.796 640.432 393.069 638.78 397.66C637.561 400.173 637.155 403.003 637.621 405.757C638.086 408.51 639.399 411.051 641.376 413.023C645.381 415.969 648.727 419.719 651.199 424.033C652.32 421.433 654.058 419.145 656.263 417.368Z" fill="#425637"/>
<path d="M687.977 363.564C687.657 364.663 687.247 365.734 686.752 366.765C686.132 367.888 685.435 368.965 684.667 369.991C676.384 383.161 651.417 378.599 651.417 378.599L654.782 370.29C656.49 365.719 659.034 361.505 662.284 357.865C663.87 355.557 666.145 353.81 668.785 352.874C671.425 351.938 674.293 351.862 676.978 352.657C681.512 354.718 686.42 355.83 691.4 355.926C689.624 358.137 688.445 360.767 687.977 363.564Z" fill="#425637"/>
<path d="M642.424 360.667C641.457 362.663 641.306 364.956 642.003 367.062C642.251 367.766 642.549 368.452 642.893 369.114C644.916 372.766 647.812 375.858 651.323 378.116C651.456 373.065 656.029 369.284 656.127 364.422C656.133 363.154 655.78 361.911 655.108 360.835C654.437 359.76 653.474 358.897 652.332 358.346C649.938 357.42 647.726 356.08 645.797 354.386C645.801 356.939 643.507 358.746 642.46 360.884C641.413 363.021 643.423 358.551 642.424 360.667Z" fill="#425637"/>
<path d="M631.617 378.995C632.903 377.184 634.845 375.946 637.03 375.546C637.761 375.448 638.497 375.4 639.233 375.404C643.404 375.36 647.518 376.373 651.192 378.348C646.852 380.926 645.686 386.54 641.389 389.215C640.284 389.855 639.017 390.16 637.742 390.095C636.467 390.03 635.238 389.596 634.204 388.847C632.225 387.212 629.966 385.949 627.537 385.118C629.826 383.836 630.269 380.973 631.617 378.995Z" fill="#425637"/>
<path d="M655.629 380.548C646.066 373.321 635.205 367.998 623.635 364.866L622.094 367.74C633.976 369.674 645.276 374.237 655.169 381.095L655.629 380.548Z" fill="#425637"/>
<path d="M801.052 333.124C810.837 333.062 823.599 329.155 833.7 331.163C846.81 333.549 845.631 345.962 855.024 352.63C848.63 353.951 847.195 358.811 842.031 361.63C839.493 362.736 836.712 363.163 833.959 362.87C831.207 362.578 828.577 361.575 826.329 359.961C816.723 354.139 811.979 335.295 801.052 333.124Z" fill="#425637"/>
<path d="M813.913 369.756C814.561 368.817 815.097 367.805 815.509 366.742C815.999 365.551 816.378 364.318 816.641 363.058C821.245 348.232 801.455 332.311 801.455 332.311L797.277 340.218C794.95 344.447 793.39 349.054 792.668 353.827C791.959 356.528 792.112 359.383 793.108 361.992C794.103 364.6 795.891 366.832 798.219 368.373C802.763 370.447 806.818 373.457 810.118 377.207C810.763 374.453 812.065 371.897 813.913 369.756Z" fill="#425637"/>
<path d="M834.223 310.674C834.166 311.819 833.976 312.953 833.657 314.054C833.299 315.3 832.834 316.511 832.266 317.676C826.919 332.127 801.322 332.541 801.322 332.541L802.971 323.757C803.734 318.912 805.397 314.253 807.873 310.02C808.977 307.452 810.858 305.294 813.252 303.85C815.646 302.406 818.433 301.749 821.22 301.971C826.064 303.131 831.101 303.244 835.993 302.301C834.718 304.902 834.11 307.779 834.223 310.674Z" fill="#425637"/>
<path d="M789.031 316.912C788.483 319.064 788.785 321.345 789.876 323.28C790.287 323.908 790.74 324.507 791.234 325.072C793.92 328.298 797.378 330.793 801.286 332.325C800.461 327.342 804.149 322.724 803.156 317.756C802.908 316.516 802.315 315.372 801.445 314.455C800.575 313.538 799.463 312.885 798.239 312.572C795.76 312.064 793.389 311.127 791.233 309.804C791.712 312.382 789.875 314.572 789.248 316.876C788.621 319.18 789.609 314.629 789.031 316.912Z" fill="#425637"/>
<path d="M782.134 337.027C783.017 335.001 784.653 333.396 786.697 332.553L788.877 331.956C792.947 331.082 797.171 331.247 801.161 332.437C797.419 335.859 797.527 341.733 793.694 345.079C792.731 345.906 791.554 346.443 790.298 346.627C789.042 346.812 787.76 346.637 786.599 346.122C784.304 344.831 781.801 343.952 779.203 343.523C781.133 341.815 781.051 338.948 781.971 336.517C782.891 334.087 781.01 339.256 782.134 337.027Z" fill="#425637"/>
<path d="M805.979 333.775C795.142 328.593 783.412 325.539 771.425 324.777L770.515 327.9C782.538 327.417 794.516 329.646 805.562 334.42L805.979 333.775Z" fill="#425637"/>
<path d="M581.604 472.143C586.214 480.769 595.368 490.502 598.562 500.148C602.567 512.867 591.025 517.58 589.491 529.043C585.309 523.948 580.34 524.941 575.508 521.694C573.304 519.956 571.597 517.669 570.559 515.061C569.52 512.454 569.187 509.619 569.592 506.842C570.23 495.593 584.789 482.838 581.519 471.947L581.604 472.143Z" fill="#425637"/>
<path d="M555.164 500.613C556.305 500.739 557.456 500.746 558.598 500.634C559.861 500.476 561.111 500.225 562.337 499.884C577.664 497.072 582.512 472.096 582.512 472.096L573.588 472.133C568.7 472.056 563.838 472.866 559.239 474.522C556.514 475.158 554.055 476.63 552.208 478.732C550.361 480.834 549.217 483.461 548.936 486.245C549.22 491.223 548.452 496.204 546.681 500.865C549.444 500.077 552.36 499.99 555.164 500.613Z" fill="#425637"/>
<path d="M616.926 491.083C615.886 491.564 614.794 491.921 613.671 492.145C612.413 492.397 611.136 492.543 609.854 492.581C594.432 494.505 582.246 472.153 582.246 472.153L590.789 469.495C595.423 467.965 600.291 467.27 605.168 467.442C607.96 467.233 610.748 467.898 613.144 469.346C615.54 470.794 617.426 472.952 618.54 475.521C619.822 480.389 622.109 484.935 625.254 488.866C622.332 488.865 619.46 489.629 616.926 491.083Z" fill="#425637"/>
<path d="M590.327 453.963C588.186 454.484 586.328 455.809 585.138 457.664L584.168 459.71C582.599 463.614 582.039 467.85 582.54 472.027C586.549 468.953 592.38 470.083 596.298 466.934C597.283 466.128 598.024 465.063 598.435 463.859C598.847 462.654 598.913 461.359 598.626 460.119C597.82 457.687 597.459 455.129 597.56 452.569C595.566 454.13 592.759 453.547 590.369 454.061L590.327 453.963Z" fill="#425637"/>
<path d="M569.322 457.205C571.536 457.059 573.72 457.777 575.415 459.208C575.969 459.72 576.481 460.274 576.947 460.866C579.62 464.066 581.439 467.892 582.232 471.986C577.462 470.222 572.319 473.09 567.576 471.256C566.386 470.793 565.352 470 564.597 468.97C563.842 467.939 563.397 466.715 563.313 465.441C563.341 462.88 562.906 460.334 562.03 457.927C564.461 458.847 566.924 457.431 569.322 457.205Z" fill="#425637"/>
<path d="M583.329 476.793C582.868 464.8 580.12 453.006 575.233 442.044L572.046 442.729C578.039 453.155 581.633 464.786 582.567 476.775L583.329 476.793Z" fill="#425637"/>
<path d="M397.859 331.124C410.187 330.366 426.124 324.676 438.938 326.379C455.712 328.512 455.043 344.245 467.455 351.985C459.441 354.124 457.977 360.39 451.636 364.242C448.52 365.85 445.034 366.605 441.533 366.431C438.031 366.256 434.638 365.158 431.698 363.248C419.108 356.571 411.828 333.08 397.908 331.102L397.859 331.124Z" fill="#425637"/>
<path d="M416.632 376.573C417.377 375.328 417.992 374.011 418.469 372.642C419.009 371.107 419.392 369.521 419.611 367.909C424.448 348.801 398.254 330.026 398.254 330.026L393.562 340.362C390.899 345.938 389.276 351.953 388.774 358.112C388.069 361.587 388.471 365.195 389.925 368.429C391.379 371.663 393.811 374.359 396.878 376.137C402.418 379.542 408.629 381.146 412.442 386.459C412.985 382.864 414.426 379.464 416.632 376.573Z" fill="#425637"/>
<path d="M438.208 300.455C438.196 301.915 438.029 303.369 437.708 304.794C437.334 306.362 436.835 307.898 436.217 309.388C430.3 328.15 398.185 330.403 398.185 330.403L399.565 319.122C400.255 312.988 402.035 307.025 404.822 301.517C406.037 298.191 408.268 295.331 411.198 293.342C414.128 291.352 417.609 290.335 421.149 290.433C427.536 290.567 433.614 292.403 439.863 289.81C438.431 293.164 437.862 296.824 438.208 300.455Z" fill="#425637"/>
<path d="M381.467 311.525C380.934 314.266 381.499 317.107 383.039 319.436C383.572 320.218 384.179 320.946 384.853 321.611C388.478 325.457 393.001 328.343 398.016 330.012C396.57 323.73 400.979 317.697 399.387 311.479C398.989 309.92 398.158 308.505 396.99 307.398C395.822 306.291 394.364 305.538 392.786 305.225C389.558 304.847 386.42 303.908 383.514 302.452C384.297 305.596 382.085 308.529 381.614 311.461C381.144 314.394 382.106 308.578 381.467 311.525Z" fill="#425637"/>
<path d="M374.16 337.391C375.128 334.755 377.098 332.607 379.64 331.416C380.513 331.048 381.415 330.754 382.336 330.537C387.435 329.172 392.794 329.104 397.926 330.34C393.454 334.891 393.954 342.337 389.342 346.833C388.184 347.934 386.74 348.687 385.174 349.006C383.609 349.325 381.985 349.198 380.488 348.639C377.537 347.275 374.367 346.447 371.127 346.195C373.446 343.912 373.123 340.221 374.16 337.391C373.102 340.172 375.198 334.561 374.16 337.391Z" fill="#425637"/>
<path d="M404.058 331.631C390.024 325.827 375.004 322.779 359.817 322.652L358.883 326.656C358.883 326.656 376.013 323.585 403.656 332.444L404.058 331.631Z" fill="#425637"/>
<path d="M92.7721 570.84L98.1063 561.851L104.468 551.082L108.49 544.288C109.935 541.862 112.042 539.09 114.093 536.053L127.836 517.265C133.083 510.753 139.204 504.384 145.484 497.308C160.125 481.997 176.239 468.167 193.594 456.017C198.357 452.549 203.303 449.34 208.409 446.401C213.516 443.316 218.706 440.021 224.072 436.999L240.901 428.543L249.486 424.241L258.38 420.385L276.611 412.888L295.693 406.416L305.339 403.222L315.245 400.495C321.882 398.663 328.525 396.712 335.296 395.054C362.372 388.542 390.425 383.348 418.945 379.229C447.464 375.11 476.372 371.752 505.246 368.988C534.121 366.224 562.848 363.118 590.95 359.645C605.065 358.054 618.877 355.899 632.605 353.953C646.334 352.008 659.774 349.665 672.911 346.757C686.049 343.849 698.85 340.97 711.406 337.791C717.666 336.297 723.651 334.167 729.736 332.4C735.821 330.633 741.765 328.811 747.428 326.472L764.405 320.1C769.878 317.727 775.148 315.152 780.405 312.815C790.512 308.123 800.348 302.87 809.87 297.082C814.384 294.431 818.748 291.531 822.941 288.397L835.271 279.743C842.658 273.347 849.761 267.366 856.36 261.428L873.107 243.544C878.027 237.754 881.969 231.981 885.795 227.013L891.221 219.842C892.778 217.542 894.028 215.201 895.334 213.125L901.717 202.404L907.024 193.485C907.024 193.485 905.393 196.689 902.18 202.668L896.351 213.729C895.136 215.882 894.026 218.278 892.533 220.725L887.521 228.181C883.968 233.378 880.224 239.472 875.598 245.541L859.527 264.583C853.244 270.848 846.354 277.319 839.053 284.315L826.964 293.794C822.813 297.22 818.489 300.432 814.009 303.416C804.553 309.853 794.752 315.769 784.65 321.135C779.374 323.829 774.127 326.858 768.619 329.42L751.514 336.835C745.698 339.356 739.734 341.535 733.693 343.805C727.653 346.075 721.487 348.458 715.158 350.331C702.563 354.223 689.599 358.333 676.287 361.375C662.976 364.417 649.435 367.732 635.641 370.867C621.848 374.002 607.876 376.459 593.792 378.79C565.556 383.831 536.863 388.084 508.345 392.609C479.827 397.133 451.394 401.854 423.691 407.186C395.988 412.519 369.311 419.148 343.904 426.563C337.596 428.484 331.464 430.678 325.318 432.704L316.182 435.735L307.355 439.213L290.017 446.09L273.683 453.81L265.746 457.599L258.21 461.911L243.536 470.246C238.987 473.146 234.566 476.34 230.061 479.338C225.705 482.153 221.501 485.196 217.467 488.455C203.042 499.754 189.756 512.435 177.798 526.319C172.726 532.697 167.637 538.503 163.611 544.08L153.359 559.671C151.865 562.118 150.307 564.013 149.002 566.494L145.303 573.497L139.544 584.586L134.7 593.768L92.7721 570.84Z" fill="#425637"/>
<path d="M303.548 406.726L303.631 403.033C303.733 400.724 304.049 395.827 304.721 390.949C306.833 377.285 311.183 364.062 317.596 351.812C326.319 334.929 338.241 319.902 352.698 307.568C360.779 300.575 369.713 294.635 379.287 289.888C384.266 287.469 389.434 285.462 394.74 283.885C400.343 282.211 405.277 281.408 410.302 280.275C420.273 278.1 429.901 275.668 439.443 272.635C448.707 269.828 457.744 266.318 466.474 262.136C482.089 254.629 496.629 245.065 509.707 233.7C521.388 223.818 530.477 214.653 536.767 208.269L546.622 198.191L537.722 209.132C531.903 216.066 523.656 225.97 512.721 237.038C506.785 242.989 500.553 248.636 494.047 253.958C486.645 259.862 478.809 265.199 470.605 269.925C461.836 275.024 452.71 279.485 443.299 283.271C433.818 287.381 423.69 290.669 413.764 293.752C408.644 295.333 403.753 296.641 399.584 298.274C395.259 299.973 391.079 302.018 387.083 304.389C379.185 309.153 371.921 314.896 365.465 321.482C353.998 333.025 344.874 346.68 338.599 361.692C334.295 371.979 331.715 382.904 330.962 394.03C330.77 396.982 330.735 399.943 330.859 402.899L331.063 406.584L303.548 406.726Z" fill="#425637"/>
<path d="M479.868 371.916L483.569 372.285C487.426 372.541 491.25 373.157 494.992 374.127C501.213 375.59 507.229 377.818 512.903 380.76C519.681 384.441 526.077 388.786 531.996 393.732C538.466 398.881 544.646 404.968 551.176 411.194C557.707 417.419 564.141 424.093 571.035 430.22C578.061 436.465 585.947 441.669 594.453 445.671C596.582 446.64 598.778 447.454 601.024 448.106C602.172 448.478 603.244 448.942 604.4 449.196L607.871 449.84L611.392 450.461L612.218 450.626L612.666 450.722L612.373 450.849L614.304 450.883L622.123 450.976C631.859 450.077 641.43 447.88 650.584 444.445C660.054 440.978 669.318 436.904 678.79 433.843C681.102 432.984 683.46 432.253 685.852 431.653C688.318 431.048 690.407 430.375 693.111 429.783C697.816 429.253 702.19 428.228 706.848 428.124C715.445 427.84 724.046 428.575 732.47 430.312C740.219 431.714 747.123 433.714 753.264 435.29C759.404 436.866 764.733 438.446 769.109 439.567C773.485 440.689 777.034 441.241 779.414 441.777L783.068 442.573L779.352 442.036C776.966 441.619 773.279 441.418 768.896 440.415C764.513 439.412 759.005 438.49 752.803 437.173C746.6 435.856 739.642 434.402 731.987 433.483C723.864 432.347 715.637 432.154 707.469 432.906C703.204 433.245 698.649 434.523 694.072 435.347L687.681 437.478C685.418 438.174 683.199 439.001 681.032 439.954C672.178 443.502 663.217 448.141 653.736 452.251C643.783 456.81 633.234 459.936 622.405 461.537L614.608 461.898L612.692 462.032L612.146 461.978L611.902 462.084L611.511 462.253L610.419 462.146L606.249 461.632L602.029 461.139C600.657 460.92 599.299 460.465 597.933 460.127C595.231 459.492 592.566 458.71 589.95 457.783C580.028 453.875 570.731 448.536 562.355 441.936C553.972 435.991 547.147 429.486 540.331 423.675C533.516 417.863 527.366 412.517 521.32 408.345C516.109 404.5 510.528 401.182 504.661 398.44C500.493 396.588 496.124 395.228 491.642 394.389C488.538 393.725 485.368 393.423 482.196 393.491L478.411 393.332L479.868 371.916Z" fill="#425637"/>
<path d="M696.412 341.91L698.66 340.935C700.373 339.982 702.031 338.933 703.627 337.795C709.388 333.467 714.006 327.799 717.079 321.282C721.573 311.17 724.638 300.482 726.186 289.525C728.026 276.232 730.761 263.079 734.374 250.155C736.445 243.409 739.555 237.028 743.591 231.239C745.721 228.525 748.086 226.004 750.659 223.705C753.189 221.506 755.852 219.48 758.46 217.595C768.128 211.089 778.335 205.421 788.969 200.654C799.2 195.855 809.771 191.816 820.596 188.57C810.039 192.48 799.79 197.175 789.935 202.615C779.782 207.876 770.107 214.013 761.02 220.955C758.583 222.91 756.248 224.988 754.024 227.181C751.797 229.423 749.787 231.869 748.018 234.487C744.704 239.91 742.27 245.825 740.81 252.01C738.116 264.799 736.284 277.754 735.326 290.788C734.36 302.842 731.679 314.697 727.366 325.995C723.985 334.553 718.538 342.14 711.511 348.079C709.52 349.76 707.411 351.295 705.2 352.672L703.149 353.968L696.412 341.91Z" fill="#425637"/>
</svg>
