<svg width="472" height="409" viewBox="0 0 472 409" fill="none" xmlns="http://www.w3.org/2000/svg">
<path d="M150.787 80.7594C149.758 74.1506 144.68 67.9936 142.859 61.794C141.91 63.8912 140.699 66.7008 139.461 70.2466C138.764 72.0949 138.071 74.1344 137.329 76.3L136.27 79.6134L135.252 83.1097L134.304 86.744C133.966 87.9731 133.673 89.2306 133.425 90.5164C133.096 91.7821 132.884 93.0596 132.641 94.5365C132.397 96.0134 132.181 97.0998 132.003 98.5236C131.588 101.115 131.255 103.727 131.056 106.424L130.911 108.339L130.803 110.247C130.752 110.873 130.738 111.491 130.724 112.11L130.681 113.964C130.813 114.549 130.652 115.2 130.674 115.81L130.733 117.603C130.724 118.758 130.797 119.933 130.89 121.027C130.983 122.12 131.137 122.124 130.997 122.694L131.269 123.9C133.469 120.509 136.164 117.466 139.264 114.872C144.066 110.905 147.752 105.756 149.961 99.9312C151.767 93.6989 152.05 87.124 150.787 80.7594Z" fill="#091C4D"/>
<path d="M128.369 123.824C128.245 123.276 128.313 122.723 128.262 122.158C128.212 121.592 128.198 121.019 128.184 120.446C128.156 119.299 128.119 118.116 128.12 116.925L128.163 115.07C128.153 114.448 128.18 113.826 128.242 113.207C128.11 112.622 128.307 111.963 128.314 111.308L128.466 109.429C128.545 108.758 128.596 108.131 128.639 107.468L128.893 105.528C129.19 102.924 129.633 100.288 130.096 97.5702C130.336 96.2478 130.621 94.9538 130.881 93.5501C131.141 92.1463 131.487 90.9538 131.824 89.7247C132.162 88.4955 132.483 87.1933 132.858 85.9559C133.232 84.7185 133.578 83.526 133.96 82.3252C134.343 81.1244 134.734 79.9601 135.096 78.8407C135.459 77.7213 135.858 76.5937 136.273 75.5392C137.059 73.4018 137.862 71.3376 138.759 69.5212C140.212 66.0805 141.533 63.2461 142.535 61.2138C138.946 65.4053 132.972 65.3305 128.71 69.0972C123.639 73.6947 120.462 80.0146 119.795 86.8264C118.963 93.6711 119.662 100.615 121.843 107.156C123.76 112.758 126.751 118.694 128.433 124.617L128.369 123.824Z" fill="#091C4D"/>
<path d="M136.24 136.23C135.992 135.133 135.431 133.838 135.012 132.318C134.839 131.55 134.657 130.746 134.459 129.868C134.261 128.99 134.063 128.112 133.849 127.162C133.634 126.211 133.626 126.174 133.519 125.699L133.173 124.163L132.826 122.627C132.702 122.078 132.587 121.566 132.463 121.017L132.267 119.294C132.143 118.745 132.019 118.197 132.143 117.554C132.267 116.911 132.071 116.379 132.048 115.769C132.026 115.159 132.012 114.586 131.982 113.939C131.951 113.293 131.974 112.711 131.951 112.101C131.929 111.491 131.972 110.829 131.95 110.219L131.976 108.291L132.084 106.384C132.19 103.785 132.45 101.19 132.738 98.5495L133.267 94.5871C133.515 93.3013 133.682 91.9955 133.905 90.6C134.128 89.2045 134.373 88.0733 134.666 86.8158L135.496 83.1697C135.797 81.9488 136.115 80.8011 136.388 79.625L137.357 76.255C137.981 74.0775 138.653 72.1194 139.253 70.1778C139.853 68.2363 140.519 66.5873 141.1 65.0727C141.681 63.5582 141.991 62.7195 142.387 61.7464L142.337 61.527C141.425 63.6159 140.193 66.5069 138.866 69.996C138.169 71.8444 137.439 73.8921 136.734 76.0495C136.364 77.1324 136.038 78.2435 135.683 79.3995C135.329 80.5555 134.975 81.7115 134.637 82.9406L133.689 86.5749C133.36 87.8406 133.067 89.0981 132.782 90.3921C132.497 91.6861 132.241 92.9353 132.034 94.4039C131.827 95.8726 131.546 97.0121 131.359 98.3993C130.953 101.027 130.628 103.676 130.412 106.299C130.544 106.884 130.282 107.597 130.24 108.26C130.197 108.923 130.183 109.541 130.14 110.204L130.069 112.103L130.034 113.994C130.174 114.616 130.014 115.267 130.036 115.877L130.578 117.599C130.702 118.148 130.578 118.791 130.636 119.393C130.695 119.994 130.892 120.526 130.76 121.133C130.627 121.739 131.007 122.23 130.875 122.836L131.055 124.486L131.401 126.023C131.517 126.535 131.632 127.047 131.74 127.522C131.847 127.997 132.177 129.46 132.383 130.375L132.952 132.898C133.315 134.507 133.628 135.897 133.892 137.067C134.631 139.322 135.083 140.642 135.083 140.642L137.8 139.568C137.8 139.568 137.027 138.359 136.24 136.23Z" fill="#091C4D"/>
<path d="M188.983 67.9561C189.024 62.6818 185.814 57.1412 185.193 52.1699C184.193 53.702 182.882 55.7271 181.487 58.2324C180.71 59.5604 179.893 61.0513 179.057 62.6236C178.62 63.4139 178.228 64.2324 177.808 65.0958L176.547 67.686L175.356 70.4143C174.944 71.3143 174.577 72.2426 174.182 73.2157C173.786 74.1888 173.464 75.1454 173.069 76.1186C172.673 77.0917 172.387 78.0401 172.073 79.0333C171.409 81.0279 170.85 83.1523 170.343 84.996L169.982 86.4611C169.862 86.9494 169.749 87.4744 169.665 87.9545C169.582 88.4346 169.424 88.9311 169.341 89.4113L169.089 90.8516L168.829 92.2553C168.928 92.6942 168.734 93.199 168.65 93.6791C168.567 94.1592 168.445 95.4934 168.334 96.364C168.222 97.2345 168.267 97.2629 168.248 97.6899L168.198 98.6619C170.335 96.2899 172.817 94.2533 175.56 92.6205C179.81 90.1315 183.34 86.5808 185.804 82.3165C187.974 77.845 189.063 72.9259 188.983 67.9561Z" fill="#091C4D"/>
<path d="M166.096 98.714L166.182 97.388L166.34 96.0456C166.488 95.1668 166.582 94.2231 166.759 93.2995L167.01 91.8591L167.298 90.4106L167.623 88.9538L167.985 87.4887L168.338 85.9871L168.772 84.5056C169.356 82.4908 169.996 80.3865 170.73 78.5299L171.871 75.5822L173.074 72.736L174.359 69.9098C174.771 69.0099 175.219 68.1016 175.676 67.23C176.133 66.3583 176.553 65.4949 177.018 64.6599C177.483 63.8248 177.875 63.0062 178.356 62.2443C179.23 60.6637 180.091 59.2012 180.896 57.8283C182.446 55.3266 183.729 53.3463 184.919 51.8095C181.707 54.6092 176.873 53.624 173.112 56.2017C168.649 59.1455 165.432 63.6352 164.079 68.8075C162.545 74.0426 162.212 79.5564 163.105 84.9381C163.872 89.5308 165.457 94.5153 166.054 99.3769L166.096 98.714Z" fill="#091C4D"/>
<path d="M170.652 109.369C170.454 108.492 170.215 107.431 170.198 106.167C170.066 105.581 169.918 104.923 170.026 104.207C170.133 103.491 169.968 102.76 169.913 102.003L169.877 100.82C169.786 100.418 169.703 100.052 169.905 99.5839C170.107 99.1156 169.907 98.7381 169.889 98.3193C169.872 97.9005 169.964 97.457 169.975 96.9934C169.985 96.5297 170.004 96.1027 170.06 95.6674C170.074 95.2089 170.112 94.7513 170.173 94.2967L170.315 92.8811L170.494 91.4573C170.578 90.9772 170.617 90.4688 170.701 89.9887L170.944 88.5118L171.224 87.0267C171.125 86.5878 171.428 86.0582 171.541 85.5333C171.941 83.5598 172.471 81.4802 173.035 79.5469C173.312 78.5619 173.626 77.5687 173.94 76.5755C174.254 75.5823 174.568 74.5891 174.936 73.6608L176.02 70.8028C176.379 69.8379 176.755 68.9462 177.122 68.0179C177.489 67.0896 177.917 66.2627 178.256 65.3793L179.424 62.8869C180.207 61.2498 180.988 59.7671 181.744 58.5204C182.501 57.2737 183.143 55.8606 183.786 54.7932L185.234 52.3529C184.234 53.885 182.895 55.955 181.435 58.5133C180.667 59.8779 179.85 61.3688 179.005 62.9045L177.756 65.3768L176.504 68.0035C176.128 68.8953 175.68 69.8035 175.313 70.7318C174.946 71.6601 174.505 72.6049 174.146 73.5698C173.787 74.5346 173.392 75.5078 173.033 76.4726L171.981 79.477C171.353 81.4634 170.758 83.596 170.268 85.5129C170.147 86.0012 169.99 86.4978 169.878 87.0227C169.766 87.5477 169.674 87.9912 169.562 88.5161C169.449 89.041 169.357 89.4846 169.245 90.0095L168.993 91.4498L168.75 92.9267L168.571 94.3505L168.393 95.7743C168.332 96.229 168.294 96.6865 168.279 97.1451C168.37 97.5474 168.176 98.0522 168.157 98.4792L168.109 99.7969L168.043 101.041L168.015 102.278C168.188 103.046 168.016 103.815 168.071 104.571L168.187 106.62C168.285 107.905 168.422 109.027 168.519 109.966C168.931 111.794 169.162 112.818 169.162 112.818L171.393 112.315L170.652 109.369Z" fill="#091C4D"/>
<path d="M194.206 147.524C198.842 147.632 203.717 144.88 208.213 144.366C206.897 143.471 205.096 142.302 202.925 141.023C201.723 140.295 200.439 139.547 199.047 138.823L196.863 137.663L194.607 136.519L192.212 135.445L189.737 134.351L187.204 133.346L184.607 132.395C182.856 131.79 181.114 131.223 179.36 130.773L178.086 130.407L176.792 130.122L175.498 129.837L174.212 129.589L172.963 129.333L171.73 129.15L169.318 128.848L168.175 128.722L167.321 128.684C169.404 130.569 171.193 132.757 172.628 135.173C174.731 139.01 177.789 142.239 181.506 144.547C185.451 146.511 189.799 147.53 194.206 147.524Z" fill="#091C4D"/>
<path d="M167.246 126.817L168.389 126.944L169.577 127.099L172.014 127.51L173.263 127.766L174.549 128.014L175.851 128.336L177.117 128.665L178.427 129.023L179.746 129.417C181.517 129.94 183.275 130.581 184.997 131.231L187.583 132.3L190.104 133.423C190.95 133.77 191.769 134.162 192.551 134.562L194.942 135.79L197.17 136.979L199.297 138.229L203.126 140.555C205.331 141.98 207.112 143.23 208.4 144.17C205.959 141.185 206.8 137.075 204.731 133.698C202.23 129.716 198.357 126.789 193.844 125.469C189.242 124.034 184.375 123.66 179.608 124.375C175.519 124.99 171.087 126.297 166.766 126.733L167.246 126.817Z" fill="#091C4D"/>
<path d="M157.816 130.673L160.661 130.339L162.438 130.207C163.023 130.075 163.694 130.155 164.385 130.152L165.373 129.93L166.463 129.991L167.581 130.008L168.752 130.09L169.924 130.172L171.148 130.318L172.409 130.457L173.642 130.64L174.948 130.806L176.234 131.055L177.528 131.339L178.858 131.616C180.604 132.029 182.366 132.515 184.137 133.039L186.754 133.909L189.344 134.824L191.839 135.837C192.678 136.147 193.488 136.502 194.254 136.829L196.567 137.883C197.341 138.247 198.07 138.582 198.77 138.962C200.2 139.677 201.548 140.373 202.733 141.028L206.037 142.896C206.836 143.369 207.516 143.831 208.144 144.227C206.827 143.333 204.982 142.135 202.757 140.792C201.555 140.064 200.235 139.324 198.834 138.563L196.696 137.432L194.403 136.296L192 135.185C191.181 134.794 190.335 134.446 189.488 134.099L186.947 133.058L184.313 132.115C182.563 131.51 180.784 130.951 178.993 130.509L177.683 130.151L176.344 129.838C175.941 129.929 175.485 129.609 175.05 129.554L173.719 129.277L172.478 129.057L171.201 128.846L169.94 128.708L168.752 128.553L167.617 128.463L166.482 128.373L165.356 128.319L164.274 128.294L162.273 128.284L160.443 128.351L157.463 128.6L154.94 129.169L155.385 131.144L157.816 130.673Z" fill="#091C4D"/>
<path d="M272.914 237.5C275.969 234.006 277.042 228.537 279.539 224.784C277.966 225.139 275.931 225.828 273.547 226.673L269.355 228.195L267.154 228.999L264.81 230.027L262.411 231.145L260.027 232.336C259.15 232.534 258.408 233.162 257.588 233.616L255.201 234.961C253.614 235.934 252.063 236.899 250.603 237.92L249.475 238.712L248.42 239.488L247.373 240.301L246.363 241.105L245.353 241.909L244.425 242.734L242.64 244.366L241.822 245.165L241.197 245.806C244.009 245.461 246.858 245.557 249.64 246.092C253.923 246.869 258.333 246.549 262.459 245.162C266.491 243.453 270.07 240.83 272.914 237.5Z" fill="#091C4D"/>
<path d="M239.941 244.667L240.76 243.867L241.652 243.051L243.518 241.439L244.528 240.635L245.583 239.859L246.629 239.046L247.729 238.299L248.857 237.506L249.692 236.78C251.234 235.779 252.829 234.842 254.469 233.935L256.909 232.654L259.402 231.439L261.875 230.304L264.336 229.288L266.696 228.333L269.007 227.505L273.26 226.084C275.784 225.515 277.884 224.773 279.412 224.39C275.556 224.337 272.903 221.092 268.997 220.474C264.304 219.804 259.527 220.881 255.575 223.501C251.533 226.127 248.12 229.613 245.58 233.71C243.407 237.198 241.562 241.457 239.141 245.039L239.941 244.667Z" fill="#091C4D"/>
<path d="M236.613 254.448C237.046 253.812 237.547 252.969 238.187 252.056L239.211 250.634L240.447 249.125L241.103 248.286L241.812 247.511L242.578 246.646L243.352 245.818L244.199 244.974L245.083 244.121L246.004 243.26C246.309 242.964 246.631 242.686 246.969 242.428L247.926 241.559L248.936 240.754L249.974 239.905L251.057 239.085C252.502 237.99 254.035 236.953 255.578 235.951L257.903 234.505L260.282 233.123L262.648 231.859L264.995 230.676C265.75 230.275 266.522 229.948 267.285 229.583L269.519 228.58C270.952 227.949 272.357 227.363 273.633 226.884L277.183 225.583L279.547 224.82C278.011 225.166 275.939 225.864 273.445 226.734L269.253 228.256L267.153 228.998L264.81 230.026C263.969 230.216 263.202 230.735 262.41 231.144L259.991 232.343L257.559 233.66L255.144 235.05C253.549 235.986 251.97 236.996 250.444 238.07L249.345 238.818L248.261 239.638L247.178 240.459L246.14 241.308L245.13 242.112L244.173 242.982L243.244 243.806L242.36 244.659L241.505 245.466L240.703 246.339L239.957 247.122L239.219 247.942C238.761 248.468 238.295 248.957 237.911 249.467L236.777 250.914C236.1 251.835 235.562 252.687 235.064 253.375L233.713 255.563L235.509 256.542L236.613 254.448Z" fill="#091C4D"/>
<path d="M275.595 283.475C278.81 286.824 280.076 292.265 282.747 295.928C281.2 295.547 279.121 295.016 276.691 294.296C275.372 293.902 273.964 293.451 272.53 292.89L270.239 292.1L267.841 291.181C267.038 290.862 266.236 290.543 265.418 290.151C264.599 289.759 263.761 289.449 262.95 289.094L260.486 287.881L258.05 286.624C256.433 285.759 254.845 284.849 253.312 283.85L252.155 283.15L251.063 282.397L249.971 281.644L248.952 280.874C248.596 280.641 248.255 280.384 247.933 280.105L246.951 279.327C246.301 278.833 245.685 278.319 245.104 277.784C244.81 277.504 244.488 277.269 244.239 277.018L243.311 276.651C246.123 276.877 248.954 276.667 251.702 276.027C255.945 275.053 260.366 275.181 264.545 276.397C268.733 277.857 272.518 280.281 275.595 283.475Z" fill="#091C4D"/>
<path d="M241.985 277.757L242.849 278.523L243.787 279.273C244.402 279.787 245.018 280.302 245.707 280.8L246.726 281.569L247.818 282.322L248.91 283.075L250.031 283.783L251.196 284.519L252.353 285.219C253.95 286.166 255.604 287.023 257.274 287.953C258.101 288.381 258.956 288.765 259.811 289.148L262.332 290.271L264.864 291.276L267.344 292.215L269.762 293.054L272.082 293.799L276.392 295.017C278.923 295.676 281.06 296.117 282.635 296.453C278.837 296.656 276.257 300.044 272.401 300.837C267.741 301.66 262.94 300.746 258.908 298.268C254.738 295.84 251.164 292.51 248.447 288.521C246.16 285.194 244.121 280.927 241.536 277.474L241.985 277.757Z" fill="#091C4D"/>
<path d="M238.388 268.115C238.882 268.772 239.409 269.575 240.071 270.464L241.149 271.835C241.528 272.326 242.018 272.792 242.442 273.311C242.867 273.83 242.903 273.822 243.152 274.073C243.401 274.325 243.658 274.613 243.907 274.864L244.67 275.691L245.498 276.465L246.379 277.304L247.288 278.098L248.242 278.921L249.233 279.735L250.26 280.541L251.316 281.302L252.38 282.1L253.472 282.853C254.976 283.897 256.536 284.852 257.954 285.685L260.369 287.024L262.805 288.281C263.595 288.718 264.414 289.109 265.224 289.465C266.035 289.82 266.817 290.22 267.627 290.575L269.968 291.585L272.204 292.464C273.718 293.045 275.098 293.541 276.389 293.98C277.679 294.419 278.925 294.83 279.991 295.128L282.376 295.82C280.793 295.446 278.677 294.924 276.202 294.176C274.847 293.79 273.43 293.302 272.042 292.77L269.705 291.952L267.344 291.024L264.884 290.003L262.409 288.908L259.908 287.704L257.428 286.419C255.802 285.517 254.177 284.616 252.653 283.653L251.488 282.916L250.387 282.127L249.259 281.382L248.195 280.584L247.176 279.815L246.185 279L245.194 278.186L244.285 277.392C243.991 277.112 243.669 276.878 243.412 276.59C243.116 276.338 242.836 276.068 242.576 275.779L241.756 275.041L241.002 274.251C240.54 273.74 240.043 273.237 239.627 272.755L238.467 271.363C237.733 270.492 237.124 269.668 236.63 269.011L235.18 266.84L236.905 265.797L238.388 268.115Z" fill="#091C4D"/>
<path d="M301.577 269.506C303.567 272.479 305.358 275.58 306.937 278.79C305.761 278.517 304.215 278.135 302.399 277.584L299.212 276.573L297.498 275.96C296.94 275.702 296.318 275.496 295.723 275.246L293.903 274.504L292.066 273.688L290.25 272.791C289.625 272.514 289.016 272.203 288.425 271.857C287.203 271.211 286.01 270.519 284.889 269.811L284.038 269.273L283.214 268.69L282.399 268.143L281.613 267.552C281.38 267.374 281.111 267.204 280.871 266.989L280.129 266.426L278.747 265.239L278.123 264.688L277.633 264.222C279.737 264.383 281.852 264.229 283.911 263.767C287.075 263.02 290.38 263.109 293.5 264.026C296.581 265.201 299.346 267.078 301.577 269.506Z" fill="#091C4D"/>
<path d="M276.645 265.291L277.277 265.879L277.982 266.45L279.429 267.584L280.208 268.138C280.448 268.353 280.717 268.523 280.994 268.73L281.809 269.276L282.661 269.814L283.512 270.352L284.401 270.882C285.558 271.582 286.816 272.221 288.03 272.831L289.928 273.748L291.801 274.556L293.702 275.318L295.551 276.016L297.346 276.649L299.08 277.18L302.324 278.101C304.204 278.599 305.779 278.936 306.947 279.172C304.068 279.36 302.209 281.855 299.304 282.433C295.823 283.057 292.234 282.375 289.225 280.517C286.127 278.692 283.468 276.208 281.435 273.242C279.711 270.71 278.201 267.592 276.27 264.991L276.645 265.291Z" fill="#091C4D"/>
<path d="M273.971 258.207C274.342 258.661 274.747 259.262 275.241 259.919L276.053 260.965C276.327 261.327 276.674 261.671 276.992 262.06C277.176 262.241 277.347 262.434 277.506 262.636L278.102 263.232L278.661 263.836C278.71 264.056 279.089 264.201 279.293 264.424L279.933 265.048L280.639 265.619L281.316 266.235L282.066 266.835L282.816 267.434L283.603 268.026L284.426 268.609L285.249 269.191C286.35 269.981 287.507 270.681 288.7 271.373C289.894 272.064 289.894 272.064 290.505 272.388L292.293 273.329L294.109 274.226L295.909 275.05L297.648 275.773L299.342 276.467L302.481 277.604L305.171 278.457L306.933 278.944C305.757 278.671 304.174 278.298 302.314 277.718L299.127 276.707L297.405 276.058L295.601 275.389L293.781 274.646L291.937 273.794L290.084 272.905C289.473 272.582 288.833 272.303 288.214 271.943C287.595 271.583 285.798 270.605 284.67 269.86L283.773 269.294L282.958 268.747L282.135 268.164L281.348 267.573C281.071 267.367 280.802 267.197 280.562 266.982L279.812 266.382L279.098 265.775L278.429 265.195C278.193 265.001 277.968 264.796 277.752 264.579L277.12 263.992L276.533 263.432L275.974 262.828C275.619 262.447 275.236 262.111 274.917 261.721C274.599 261.332 274.333 261.007 274.068 260.683C273.803 260.359 273.052 259.413 272.672 258.923L271.618 257.316L272.9 256.527L273.971 258.207Z" fill="#091C4D"/>
<path d="M309.581 243.989C312.867 241.518 314.423 237.17 317.111 234.604C315.831 234.893 313.993 234.923 311.867 235.21L308.21 236.035L306.198 236.488L304.114 236.959L301.956 237.445C301.225 237.61 300.457 237.783 299.725 237.948L297.494 238.451L295.284 239.219C293.834 239.776 292.385 240.334 290.988 240.956L289.94 241.423L288.937 241.918L287.934 242.414L286.968 242.901L286.01 243.424L285.097 243.976L283.372 245.018L282.568 245.545L281.939 245.995C284.324 246.151 286.671 246.671 288.898 247.538C292.317 248.94 296.043 249.425 299.707 248.944C303.336 248.075 306.715 246.379 309.581 243.989Z" fill="#091C4D"/>
<path d="M280.951 244.68L281.755 244.153L282.595 243.618L284.438 242.587L285.396 242.064L286.362 241.577L287.365 241.082L288.413 240.615L289.46 240.148L290.558 239.9C291.999 239.306 293.502 238.814 294.961 238.293L297.265 237.773C298.033 237.6 298.764 237.435 299.532 237.262L303.957 236.264L306.079 235.785L308.09 235.332L311.821 234.836C314.037 234.605 315.858 234.502 317.224 234.425C314.038 233.76 312.52 230.605 309.198 229.509C305.462 228.255 301.395 228.42 297.773 229.972C293.974 231.483 290.562 233.828 287.791 236.835C285.449 239.4 283.255 242.623 280.685 245.201L280.951 244.68Z" fill="#091C4D"/>
<path d="M276.746 252.278L278.432 250.553L279.511 249.541C279.884 249.149 280.346 248.814 280.764 248.451L281.441 247.876L282.163 247.328L282.914 246.736L283.709 246.173L284.541 245.601L285.417 245.057L286.286 244.477L287.236 243.917L288.194 243.393L289.152 242.87L290.146 242.338L291.186 241.835C292.53 241.147 293.963 240.517 295.405 239.922L297.562 239.09L299.735 238.331L301.966 237.828L304.123 237.341L306.208 236.871L308.219 236.418C309.536 236.121 310.779 235.84 311.877 235.593L314.985 234.892L317.033 234.43C315.753 234.719 313.87 234.721 311.671 235.024L307.973 235.666L305.962 236.12L303.877 236.59L301.683 237.085L299.452 237.588L297.184 238.099L294.938 238.875C293.438 239.213 292.001 239.998 290.605 240.621L289.557 241.088L288.517 241.591L287.478 242.094L286.52 242.618L285.562 243.141L284.612 243.702L283.699 244.253L282.83 244.834L281.99 245.369L281.195 245.933L280.436 246.488L279.714 247.035L278.38 248.105L277.228 249.133L275.396 250.891L273.912 252.494L275.242 253.616L276.746 252.278Z" fill="#091C4D"/>
<path d="M215.568 116.65C219.623 116.735 223.881 114.315 227.82 113.888C226.646 113.115 225.069 112.087 223.338 111.055C222.315 110.44 221.166 109.777 219.944 109.13L218.03 108.14L216.043 107.166L213.937 106.18L211.767 105.248L209.568 104.36L207.276 103.57C205.775 103.028 204.247 102.564 202.697 102.182L201.549 101.864L200.418 101.62L199.279 101.339L198.192 101.122L197.078 100.951L195.999 100.771L193.904 100.514L192.887 100.436L192.143 100.373C193.954 102.056 195.506 103.999 196.748 106.137C198.622 109.449 201.326 112.217 204.593 114.168C208.023 115.798 211.771 116.646 215.568 116.65Z" fill="#091C4D"/>
<path d="M191.975 98.6042L193 98.7189L194.033 98.8702L196.145 99.2011L197.268 99.409L198.362 99.6618L199.494 99.9063L200.633 100.187L201.781 100.505L202.937 100.859C204.5 101.314 206.006 101.858 207.557 102.431L209.792 103.31L212.016 104.308C212.745 104.643 213.465 104.941 214.166 105.321L216.243 106.352L218.211 107.407L220.097 108.442L223.442 110.493C225.369 111.711 226.926 112.821 227.998 113.655C225.838 111.067 226.596 107.438 224.744 104.512C222.504 101.019 219.057 98.4724 215.06 97.3566C211.027 96.0778 206.757 95.727 202.569 96.3303C198.854 96.8991 195.254 97.9799 191.506 98.4023L191.975 98.6042Z" fill="#091C4D"/>
<path d="M183.682 102.05L186.145 101.725L187.694 101.606L189.414 101.564L190.255 101.374L191.219 101.388L192.183 101.401L193.2 101.479L194.253 101.549L195.315 101.655L196.413 101.753L197.491 101.933L198.642 102.096L199.765 102.304L200.888 102.512L202.064 102.785C203.603 103.13 205.157 103.548 206.684 104.011L208.996 104.719L211.259 105.554L213.45 106.405L215.567 107.273L217.619 108.193L219.517 109.11C220.767 109.712 221.945 110.331 222.995 110.901L225.867 112.559L227.733 113.676C226.56 112.903 224.975 111.838 223.032 110.893C222.009 110.278 220.824 109.623 219.602 108.976L217.724 107.977L215.692 106.975L213.595 106.026L211.424 105.094L209.144 104.186L206.844 103.36C205.31 102.86 203.775 102.361 202.229 101.979L201.044 101.67L199.868 101.397L198.737 101.152L197.614 100.945L196.491 100.737L195.376 100.565L194.27 100.43L193.208 100.324L192.183 100.209L191.174 100.168L190.194 100.081L189.28 100.288L187.507 100.265L185.905 100.318L183.307 100.558L181.113 101.053L181.509 102.809L183.682 102.05Z" fill="#091C4D"/>
<path d="M328.407 155.346C240.504 170.135 144.62 217.7 54.1341 216.431C26.347 216.087 11.7199 204.397 -13.9079 206.641C-36.511 208.663 -64.3115 231.266 -86.3863 238.358C-132.823 253.135 -198.859 237.243 -239.381 262.062C-237.822 268.974 -236.255 275.923 -234.688 282.871L-223.075 334.365C-226.133 309.728 -188.218 303.176 -177.946 301.858C-148.191 298.492 -119.129 295.627 -88.8678 283.422C-65.759 274.099 -42.2966 253.05 -18.159 247.607C4.73518 242.444 28.9689 252.083 52.2407 250.639C149.759 244.405 237.008 184.797 331.367 168.13C330.089 163.941 329.1 159.67 328.407 155.346Z" fill="#091C4D"/>
<path d="M52.1395 218.494L52.8272 218.646L53.1929 218.564C52.7091 218.46 52.2107 218.442 51.7207 218.511C50.9161 218.693 51.3278 218.984 52.9276 218.239C55.5353 216.95 57.9591 215.317 60.1344 213.386C63.6707 210.321 66.9817 207.005 70.0417 203.465C73.9463 199.264 77.622 194.856 81.0528 190.259L83.6232 186.49L84.1897 185.593L83.9029 186.196L84.0645 185.891L84.3596 185.324L85.5317 183.023C86.1455 181.655 86.3108 181.195 86.8432 179.807C87.3756 178.418 87.737 176.953 88.1503 175.207C88.9982 171.98 89.8888 168.09 91.1852 163.954C91.8891 161.715 92.7731 159.536 93.8283 157.44L94.6486 155.794L94.867 155.399L95.1786 154.906L95.5385 154.287L97.0397 151.911C97.6711 150.962 98.6388 149.629 99.4649 148.521C100.156 147.721 100.916 146.984 101.735 146.318L103.041 145.293C103.637 144.933 104.261 144.625 104.909 144.372C106.072 143.889 107.309 143.61 108.566 143.547L110.989 143.385L113.734 143.458C115.333 143.488 116.931 143.397 118.516 143.187L119.686 142.923L127.549 141.149L128.683 140.894L133.061 139.176C134.615 138.476 136.133 137.698 137.608 136.844C139.171 136.066 140.663 135.151 142.064 134.11C147.877 130.082 153.278 125.491 158.19 120.404L172.612 105.622C174.877 103.228 177.33 100.984 179.556 98.7522C181.781 96.5209 184.272 94.6141 186.499 92.7284C188.725 90.8427 191.128 89.2249 193.461 87.8146C195.795 86.4044 197.999 85.1003 200.322 84.1536L206.573 81.7064L212.095 80.461C212.936 80.2713 213.704 80.0981 214.436 79.9331L216.566 79.837L219.908 79.6598L222.685 79.5331L219.979 80.1435L216.719 80.6864L214.708 81.14C213.977 81.305 213.208 81.4782 212.453 81.879L207.282 83.6601L201.619 86.6667C199.61 87.8116 197.744 89.4237 195.683 90.8494C193.622 92.275 191.754 94.3873 189.632 96.0571C187.511 97.7269 185.705 100.286 183.724 102.578C181.743 104.869 179.758 107.316 177.721 110.042L165.139 126.677C160.427 132.846 155.12 138.536 149.292 143.663C147.8 145.077 146.185 146.355 144.465 147.481C142.775 148.765 141.017 149.957 139.198 151.051L133.141 154.185L131.622 154.95L130.232 155.264L127.491 156.228L124.794 157.221L124.099 157.377L121.21 158.029C119.034 158.576 116.821 158.959 114.589 159.176L111.581 159.47L111.178 159.561C111.419 159.567 111.658 159.513 111.873 159.404L112.454 159.081L112.746 159.015C112.746 159.015 113.111 158.587 113.039 158.949L112.352 160.334L111.12 162.879L110.804 163.527L110.854 163.746L110.56 164.658C110.119 165.991 109.771 167.354 109.52 168.736C108.948 171.824 108.58 175.135 107.99 178.996C107.784 180.81 107.425 182.967 107.045 184.859C106.536 187.148 105.904 189.407 105.151 191.627L104.239 194.062L104.026 194.648L103.909 194.982L103.432 195.935L102.81 197.267C101.933 199.002 101.096 200.574 100.259 202.146C97.0311 207.981 93.4811 213.631 89.6258 219.072C86.3208 223.885 82.6769 228.457 78.7218 232.753C75.2563 236.638 71.2761 240.031 66.8917 242.838C62.8719 245.489 58.267 247.121 53.4751 247.593C52.1936 247.662 50.9091 247.657 49.6282 247.577L48.412 247.467L47.7042 247.396L52.1395 218.494Z" fill="#091C4D"/>
<path d="M172.045 202.292L173.797 203.242C175.752 204.221 177.652 205.306 179.488 206.493C180.877 207.371 182.617 208.439 183.97 209.326L188.319 212.765C191.263 215.252 194.407 218.117 197.528 221.218C203.859 227.477 210.392 234.805 217.493 241.581C220.963 244.901 224.716 247.912 228.708 250.582C232.307 253.101 236.416 254.798 240.744 255.554C241.777 255.705 242.781 255.556 243.798 255.634L244.607 255.643L245.266 255.495L247.314 255.033C250.252 254.601 252.251 253.92 254.921 253.318C260.378 251.686 265.96 250.504 271.61 249.784C277.122 249.268 282.682 249.773 288.011 251.274C292.545 252.787 296.923 254.734 301.082 257.089C304.309 258.948 307.717 260.472 311.255 261.636C313.951 262.484 316.814 262.656 319.593 262.138C320.642 262.042 321.675 261.81 322.665 261.445C323.425 261.18 324.16 260.847 324.861 260.45L326.648 259.51L325.037 260.718C324.412 261.245 323.726 261.696 322.996 262.062C322.046 262.679 321.02 263.169 319.943 263.52C317.006 264.57 313.857 264.884 310.771 264.435C306.866 263.805 303.033 262.79 299.327 261.405C295.275 259.931 291.101 258.814 286.853 258.069C282.269 257.512 277.62 257.843 273.16 259.043C268.238 260.525 263.443 262.404 258.823 264.659C256.224 265.745 253.028 267.08 250.518 267.877L248.556 268.55L248.044 268.666L245.849 269.16C244.106 269.521 242.345 269.79 240.574 269.966C233.72 270.116 226.923 268.705 220.696 265.84C215.224 263.354 209.987 260.38 205.049 256.955C195.928 250.595 188.15 244.394 181.581 239.803C178.324 237.463 175.366 235.594 172.617 234.138L169.06 232.173C168.026 231.676 167.367 231.479 166.629 231.107C165.152 230.451 163.638 229.882 162.094 229.401L160.181 228.757C158.363 228.137 156.685 227.165 155.243 225.897C153.8 224.629 152.622 223.089 151.775 221.366C150.927 219.642 150.428 217.769 150.305 215.852C150.181 213.935 150.437 212.013 151.057 210.196C151.676 208.378 152.648 206.7 153.916 205.257C155.184 203.815 156.724 202.637 158.447 201.789C160.171 200.942 162.044 200.442 163.961 200.319C165.878 200.196 167.8 200.452 169.618 201.071C170.451 201.429 171.261 201.836 172.045 202.292Z" fill="#091C4D"/>
<path d="M13.8974 324.313C17.1122 327.662 18.3777 333.103 21.0404 336.73C19.5022 336.385 17.4226 335.855 14.9844 335.098L10.8323 333.729L8.53219 332.902C7.73835 332.62 6.94451 332.338 6.13417 331.983L3.71966 330.99L1.24382 329.896L-1.21193 328.72L-3.64759 327.463C-5.27293 326.561 -6.8617 325.651 -8.38557 324.688L-9.55089 323.952L-10.6431 323.199L-11.727 322.483L-12.7542 321.677C-13.1095 321.441 -13.4498 321.184 -13.7733 320.907L-14.7557 320.129C-15.4107 319.611 -16.0263 319.096 -16.6027 318.586L-17.4671 317.82L-18.0993 317.232C-15.2742 317.44 -12.434 317.227 -9.67154 316.6C-5.44425 315.593 -1.02551 315.723 3.13487 316.979C7.25023 318.541 10.938 321.055 13.8974 324.313Z" fill="#091C4D"/>
<path d="M-19.5388 318.517L-18.6744 319.283C-18.3807 319.563 -18.0587 319.798 -17.7285 320.069C-17.3982 320.341 -16.4972 321.098 -15.8084 321.596L-14.7528 322.357L-13.7054 323.082L-12.6133 323.835L-11.4845 324.579L-10.3275 325.279L-9.1704 325.979C-7.57339 326.926 -5.91974 327.783 -4.24958 328.713L-1.71242 329.908L0.799971 330.994L3.33244 331.999C4.14278 332.354 4.98145 332.665 5.81187 332.939C6.64228 333.213 7.43613 333.495 8.22997 333.777L10.5502 334.522L14.6775 335.782C17.2089 336.441 19.3534 336.918 20.9199 337.218C17.1225 337.421 14.5428 340.808 10.678 341.565C6.01768 342.406 1.21106 341.491 -2.81439 338.996C-6.98161 336.564 -10.5551 333.234 -13.2754 329.249C-15.563 325.922 -17.6015 321.655 -20.1864 318.202L-19.5388 318.517Z" fill="#091C4D"/>
<path d="M-23.1269 308.912C-22.6411 309.533 -22.114 310.336 -21.4524 311.225C-20.7909 312.113 -20.746 312.142 -20.338 312.588C-19.93 313.034 -19.5054 313.553 -19.0809 314.072L-18.3627 314.871L-17.6162 315.625L-16.8531 316.452C-16.5595 316.732 -16.2741 316.975 -16.017 317.263L-15.1442 318.065L-14.2349 318.859L-13.2808 319.682L-12.2901 320.496L-11.2628 321.302L-10.199 322.1L-9.13514 322.897L-8.04298 323.65C-6.54743 324.658 -4.97874 325.65 -3.56101 326.483L-1.17373 327.866L1.26196 329.123L3.68113 330.307C4.46314 330.707 5.27347 331.062 6.07556 331.381L8.41694 332.39L10.6604 333.306C12.1667 333.851 13.555 334.383 14.8455 334.822L18.4479 335.97L20.8247 336.625C19.25 336.289 17.1255 335.73 14.6508 334.982C13.2955 334.595 11.8871 334.144 10.4905 333.575L8.15376 332.757C7.39649 332.467 6.60266 332.185 5.79232 331.829L3.34122 330.845C2.49432 330.498 1.67576 330.106 0.857173 329.714C0.0385886 329.322 -0.816578 328.939 -1.63516 328.547L-4.11565 327.261C-5.74099 326.36 -7.37459 325.421 -8.89021 324.495L-10.0555 323.758L-11.1477 323.005C-11.5145 322.742 -11.9179 322.487 -12.2481 322.216L-13.3037 321.455L-14.3675 320.657L-15.3582 319.843L-16.3407 319.065L-17.25 318.271L-18.1227 317.468L-18.9589 316.658L-19.7868 315.884L-20.5416 315.093C-21.0027 314.582 -21.4921 314.116 -21.9084 313.634L-23.0759 312.206C-23.8106 311.334 -24.4191 310.51 -24.9132 309.853L-26.3553 307.719L-24.6386 306.64L-23.1269 308.912Z" fill="#091C4D"/>
<path d="M40.0534 310.267C42.034 313.246 43.8243 316.346 45.4136 319.55C44.2376 319.278 42.6911 318.896 40.8757 318.345C39.8908 318.067 38.8162 317.733 37.6886 317.334L35.9747 316.721L34.2077 316.044L32.3877 315.301L30.5511 314.486L28.7182 313.515C28.1072 313.192 27.4679 312.913 26.8935 312.582C25.6633 311.898 24.4779 311.243 23.3492 310.499C23.0437 310.337 22.7665 310.13 22.4976 309.96L21.6826 309.414L20.8676 308.868L20.0809 308.276C20.0232 308.02 19.5714 307.892 19.3391 307.714L18.5889 307.114L17.2149 305.963L16.5828 305.376L16.1016 304.946C18.2041 305.112 20.3195 304.946 22.3705 304.455C25.5411 303.718 28.8489 303.82 31.9683 304.75C35.0577 305.932 37.827 307.821 40.0534 310.267Z" fill="#091C4D"/>
<path d="M15.1043 305.978L15.7365 306.565L16.4335 307.1L17.8889 308.271L18.6674 308.825L19.4458 309.38L20.2608 309.926C20.538 310.133 20.8434 310.295 21.1123 310.464L21.9722 311.039L22.8521 311.533C24.0091 312.232 25.2677 312.871 26.4896 313.518L28.3792 314.398L30.2606 315.242C30.8916 315.484 31.5309 315.763 32.1537 315.968L34.0021 316.666C34.5966 316.916 35.2112 317.085 35.7974 317.299L37.5396 317.867L40.7835 318.788C42.6555 319.25 44.2385 319.623 45.4429 319.851C42.5562 320.002 40.7057 322.533 37.8 323.112C34.3192 323.736 30.7304 323.053 27.7215 321.195C24.6236 319.37 21.9644 316.887 19.9317 313.921C18.2361 311.344 16.6892 308.234 14.7659 305.67L15.1043 305.978Z" fill="#091C4D"/>
<path d="M12.4428 298.777C12.786 299.276 13.1904 299.876 13.6845 300.533L14.4888 301.543C14.5795 301.946 15.1174 302.286 15.4358 302.675C15.6265 302.849 15.7988 303.042 15.9499 303.251L16.5373 303.81L17.0963 304.414C17.154 304.67 17.5326 304.815 17.7284 305.002L18.3688 305.626L19.0823 306.234L19.7593 306.85L20.5094 307.449L21.2595 308.049C21.5367 308.255 21.8056 308.425 22.0462 308.64L22.8694 309.223L23.6927 309.806C24.7849 310.559 25.9502 311.295 27.1438 311.987L28.9484 313.002L30.7365 313.944L32.5447 314.804L34.3447 315.628L36.0916 316.387L37.7771 317.045C38.8765 317.489 39.9593 317.859 40.9159 318.182L43.6065 319.035L45.4136 319.55C44.2376 319.277 42.6463 318.868 40.7861 318.288C39.8012 318.01 38.7266 317.676 37.5989 317.277L35.8851 316.664L34.0815 315.995L32.2532 315.216L30.4167 314.4L28.7182 313.515L26.8487 312.553C25.6551 311.862 24.4249 311.178 23.2961 310.433L22.408 309.904L21.5847 309.321L20.7615 308.738L19.9748 308.146L19.1964 307.592L18.4463 306.992L17.7327 306.385L17.0558 305.769L16.3871 305.189L15.7549 304.601L15.1594 304.006C14.9645 303.828 14.7805 303.638 14.6086 303.438C14.2454 303.02 13.8621 302.684 13.5885 302.323L12.7029 301.293C12.1274 300.616 11.7229 300.015 11.3432 299.524L10.2524 297.925L11.5349 297.137L12.4428 298.777Z" fill="#091C4D"/>
<path d="M48.0577 284.749C51.352 282.315 52.908 277.967 55.5877 275.365C54.2665 275.47 52.4615 275.647 50.3439 275.971C49.2102 276.226 47.9668 276.507 46.6372 276.576L44.6258 277.03C43.9675 277.178 43.236 277.343 42.5412 277.5L40.3834 277.986L38.1525 278.489L35.9216 278.993L33.7119 279.76C32.2124 280.098 30.8037 280.839 29.4068 281.461L28.3591 281.928L27.3562 282.423L26.3534 282.918L25.3953 283.442L24.4373 283.965L23.5524 284.472C22.8941 284.621 22.3713 285.2 21.7991 285.559L20.9956 286.087L20.395 286.491C22.7718 286.669 25.1082 287.205 27.3252 288.08C30.7434 289.485 34.4702 289.969 38.1341 289.485C41.7671 288.705 45.1662 287.083 48.0577 284.749Z" fill="#091C4D"/>
<path d="M19.4279 285.441L20.2314 284.914L21.0797 284.415L22.9144 283.348L23.8807 282.861L24.847 282.374L25.8498 281.879L26.8975 281.412L27.9452 280.945L29.0424 280.698C30.4841 280.104 31.9789 279.574 33.4453 279.09L35.7494 278.57L38.0169 278.059C38.7849 277.886 39.5163 277.721 40.2478 277.556L42.4421 277.061L44.5633 276.583L46.5747 276.129C47.8547 275.84 49.0982 275.56 50.3062 275.634C52.5134 275.366 54.3349 275.263 55.7009 275.186C52.5231 274.557 51.0045 271.402 47.6829 270.307C43.9458 269.06 39.8833 269.211 36.2494 270.733C32.4451 272.248 29.0348 274.607 26.2757 277.632C23.8968 280.206 21.7029 283.429 19.1328 286.007L19.4279 285.441Z" fill="#091C4D"/>
<path d="M15.2224 293.038L16.9086 291.313L17.9871 290.301C18.3682 289.946 18.8307 289.611 19.2402 289.211L19.9257 288.672L20.6396 288.089L21.3983 287.533L22.1935 286.97L23.0254 286.398L23.8938 285.818L24.7704 285.274C25.0995 285.2 25.4158 284.898 25.7202 284.714L26.67 284.154L27.628 283.63L28.6226 283.098L29.6621 282.595C31.0059 281.908 32.4476 281.314 33.8893 280.719L36.046 279.887L38.2192 279.128L40.4501 278.625L42.6078 278.138L44.6925 277.668L46.7039 277.215L50.3611 276.39L53.4698 275.689L55.559 275.41C54.279 275.698 52.3963 275.7 50.2055 276.041C49.0718 276.296 47.8283 276.577 46.4988 276.646L40.2084 278.064L37.9775 278.568L35.71 279.079L33.4637 279.855C32.0137 280.412 30.5272 280.978 29.1303 281.6L28.0909 282.104L27.0514 282.607L26.0486 283.102L25.054 283.634L24.0959 284.158L23.1461 284.718L22.2247 285.233L21.3563 285.813L20.5162 286.349L19.7292 286.949L18.9623 287.468L18.2484 288.051L16.9139 289.121L15.754 290.113C15.0201 290.778 14.4324 291.41 13.9581 291.863L12.4465 293.511L13.7674 294.596L15.2224 293.038Z" fill="#091C4D"/>
<path d="M-92.381 249.779L-90.5363 250.631C-88.6821 251.481 -86.8847 252.449 -85.1554 253.53C-83.9087 254.287 -82.4544 255.112 -81.1299 256.043L-76.9724 259.141C-74.1229 261.38 -71.0365 263.989 -67.8758 266.928C-61.4977 272.715 -54.6764 279.785 -46.9821 286.466C-43.1629 289.867 -39.0414 292.913 -34.6688 295.565C-30.405 298.095 -25.6314 299.644 -20.6945 300.1C-19.4865 300.174 -18.2997 299.983 -17.0717 299.975L-16.1939 299.777C-16.1939 299.777 -15.7917 299.686 -15.8648 299.703L-13.3047 299.125C-10.4887 298.49 -8.11153 297.954 -5.4995 297.096C-0.253792 295.29 5.13583 293.934 10.6112 293.04C15.815 292.375 21.097 292.683 26.1885 293.947C30.5775 295.301 34.8326 297.056 38.9004 299.189C42.2539 300.928 45.7747 302.323 49.409 303.353C52.1956 304.106 55.1251 304.158 57.9368 303.505C58.9983 303.291 60.0315 302.954 61.016 302.503C61.7611 302.215 62.4786 301.861 63.1598 301.443L64.8847 300.401L63.2293 301.581C62.5885 302.068 61.8956 302.482 61.1634 302.816C60.1968 303.359 59.1742 303.796 58.1136 304.119C55.2083 305.023 52.1283 305.217 49.1326 304.684C45.3262 303.916 41.6053 302.772 38.0245 301.27C34.0009 299.589 29.8423 298.251 25.5931 297.271C20.8233 296.486 15.9481 296.607 11.2234 297.629C6.10156 298.896 1.09878 300.603 -3.72917 302.731C-6.31646 303.699 -9.24472 304.859 -11.8532 305.562L-13.9012 306.024L-15.1081 306.296L-16.2418 306.552C-17.7779 306.898 -19.3505 307.253 -20.9855 307.16C-27.205 307.089 -33.3289 305.62 -38.9035 302.861C-43.9999 300.322 -48.856 297.327 -53.4122 293.912C-62.1753 287.433 -69.5194 280.942 -76.0251 275.952C-79.2862 273.421 -82.2654 271.287 -84.9345 269.506L-88.6911 267.164C-89.8034 266.492 -90.7765 266.097 -91.6564 265.603C-93.2041 264.776 -94.8149 264.073 -96.4736 263.5L-98.3668 262.774C-100.147 262.056 -101.573 260.666 -102.338 258.905C-103.102 257.144 -103.143 255.153 -102.452 253.362C-101.76 251.571 -100.393 250.124 -98.6434 249.333C-96.8942 248.542 -94.9041 248.471 -93.1028 249.135L-92.381 249.779Z" fill="#091C4D"/>
<path d="M326.622 155.441C330.869 153.484 335.152 151.173 339.292 148.74C341.35 147.469 343.371 146.206 345.339 144.879C347.307 143.551 349.295 142.142 351.157 140.684C353.019 139.227 354.82 137.668 356.584 136.117C357.439 135.309 358.205 134.445 359.061 133.637C359.87 132.815 360.623 131.939 361.313 131.015C362.076 130.16 362.77 129.245 363.387 128.28C364.023 127.365 364.604 126.412 365.127 125.428C365.514 124.418 366.064 123.449 366.406 122.411L367.206 119.309L367.647 117.519L368.891 117.238L435.343 94.7581L370.769 122.157L372.457 119.931L371.746 123.935C371.388 125.246 370.831 126.524 370.392 127.815C369.864 129.068 369.252 130.284 368.561 131.456C367.92 132.628 367.198 133.754 366.4 134.825C365.688 135.929 364.898 136.981 364.035 137.972C363.185 138.971 362.379 139.998 361.475 140.932C359.712 142.829 357.896 144.66 355.974 146.362C354.051 148.064 352.084 149.737 350.142 151.52C348.2 153.304 346.077 154.628 344.024 156.09C339.837 158.994 335.633 161.826 331.037 164.284C330.477 164.643 329.848 164.884 329.191 164.991C328.534 165.099 327.862 165.07 327.216 164.907C326.57 164.745 325.964 164.451 325.436 164.045C324.908 163.64 324.469 163.13 324.146 162.548C323.822 161.965 323.622 161.323 323.556 160.66C323.491 159.998 323.562 159.329 323.765 158.694C323.968 158.06 324.299 157.474 324.738 156.973C325.176 156.472 325.713 156.065 326.314 155.779L326.643 155.705L326.622 155.441Z" fill="#091C4D"/>
<path d="M323.072 159.125L358.825 167.357L359.883 167.618L360.361 168.202L388.66 203.365L356.403 171.785L357.939 172.63L321.43 168.718C320.126 168.584 318.928 167.938 318.101 166.921C317.273 165.904 316.884 164.6 317.018 163.295C317.152 161.991 317.798 160.793 318.815 159.966C319.832 159.138 321.136 158.749 322.441 158.883L323.072 159.125Z" fill="#091C4D"/>
</svg>
