<svg width="1920" height="2981" viewBox="0 0 1920 2981" fill="none" xmlns="http://www.w3.org/2000/svg">
<path d="M789.43 2074.51C808.905 2083.96 829.402 2098.05 849.542 2097.78C885.092 2097.91 909.948 2075.17 931.719 2049.71C929.819 2049.68 927.918 2049.77 926.028 2049.97C917.217 2048.82 908.503 2047.02 899.958 2044.59C931.723 2037.48 952.654 2005.39 967.111 1978.48C953.802 1984.31 939.71 1988.15 925.285 1989.89C935.566 1978.58 944.303 1965.96 951.268 1952.36L953.413 1947.11C975.615 1890.12 939.259 1836.69 939.259 1836.69C926.563 1873.54 896.019 1884.31 861.586 1899.95C868.51 1886.83 876.602 1874.37 885.766 1862.7C847.246 1874.41 772.754 1888.18 764.241 1938.86C760.621 1933.29 758.538 1926.87 758.205 1920.24C757.873 1913.61 759.303 1907.02 762.349 1901.12C740.688 1926.91 728.445 1959.3 727.632 1992.97C727.504 2019.97 738.981 2036.68 747.612 2057.81C750.3 2053.05 753.28 2048.46 756.534 2044.06C760.207 2038.58 764.176 2033.3 768.422 2028.25L771.309 2024.63L770.307 2023.43C769.152 2021.36 768.271 2019.15 767.684 2016.85C766.632 2013.75 765.881 2010.56 765.443 2007.31C765.201 2005.53 765.068 2003.74 765.044 2001.94C764.884 2000.04 765.065 1998.05 765.005 1996.27L765.728 1990.78L766.652 1985.53L768.196 1980.78L769.239 1977.87L769.761 1975.81L769.48 1977.67C770.261 1975.62 771.186 1973.63 772.247 1971.7L773.33 1969.58L772.568 1971.84C772.206 1973.37 771.344 1975.51 770.882 1978.14C770.489 1979.49 770.214 1980.88 770.059 1982.28L769.517 1987.01L769.175 1991.98L769.594 1997.13C769.674 1998.84 769.929 2000.54 770.354 2002.2C770.654 2003.79 771.054 2005.49 771.475 2006.97C772.296 2009.71 773.354 2012.37 774.639 2014.93C775.74 2016.25 776.742 2017.46 777.443 2018.3L782.374 2014.19L789.49 2006.84L797.188 2000.43C802.359 1996.12 807.411 1991.91 812.221 1987.91L814.987 1985.6L814.487 1985C814.031 1983.85 813.657 1982.66 813.366 1981.46C812.858 1979.95 812.515 1978.39 812.345 1976.81C812.022 1975.03 811.888 1973.23 811.946 1971.44C811.861 1969.44 811.896 1967.44 812.048 1965.44C812.314 1963.35 812.689 1961.27 813.172 1959.21C813.559 1957.15 814.116 1955.11 814.837 1953.14C815.419 1951.07 816.199 1949.05 817.164 1947.13C817.943 1945.22 818.854 1943.38 819.891 1941.6L822.778 1936.75L825.605 1932.56C827.289 1929.94 829.013 1928.09 830.035 1926.63L832.2 1924.83L830.757 1927.25L829.694 1929.16L828.491 1930.16C827.716 1931.41 827.039 1932.73 826.466 1934.09L824.28 1938.55C823.078 1939.56 822.857 1941.98 822.155 1943.58L820.309 1949.19C819.721 1951.08 819.285 1953.01 819.005 1954.96C818.5 1956.86 818.21 1958.81 818.141 1960.78C817.96 1962.76 818.02 1964.54 817.959 1966.43C817.898 1968.31 818.199 1969.89 818.499 1971.48L819.539 1975.91C820.341 1976.87 820.42 1978.43 820.881 1979.47C821.342 1980.52 821.983 1980.8 822.383 1981.28L827.214 1978.27C831.664 1974.57 836.575 1971.9 840.443 1969.7C847.375 1965.43 854.52 1961.52 861.849 1957.98L863.773 1956.38C877.803 1948.77 890.631 1942.16 896.123 1939.22C882.794 1946.45 847.337 1968.44 847.337 1968.44C847.687 1969.03 848.127 1969.55 848.639 1970C849.234 1970.93 849.941 1971.78 850.742 1972.53C851.785 1973.59 852.925 1974.55 854.148 1975.4C854.646 1976.07 855.181 1976.71 855.751 1977.32C856.532 1977.79 857.35 1978.2 858.195 1978.54L860.86 1979.79L863.786 1980.61C864.817 1980.95 865.868 1981.23 866.932 1981.45C868.021 1981.66 869.129 1981.76 870.238 1981.75C872.503 1981.92 874.778 1981.87 877.032 1981.6L880.519 1981.14L884.046 1980.23L887.453 1979.43L890.56 1978.27C892.612 1977.54 894.62 1976.68 896.572 1975.71L901.723 1972.85C903.238 1972.09 904.692 1971.22 906.073 1970.24L908.959 1967.84L911.605 1965.63L917.859 1960.43L914.973 1962.83L911.605 1965.63L907.275 1969.24L902.104 1973.55L900.781 1974.65L897.534 1977.35C895.65 1978.63 893.689 1979.79 891.661 1980.82L888.514 1982.42L885.047 1983.88L881.6 1985.12L877.852 1986C875.297 1986.61 872.696 1987 870.076 1987.18L866.189 1987.16L862.441 1986.82L858.834 1986.16L855.368 1985.18C854.307 1984.81 853.27 1984.38 852.262 1983.89C851.561 1983.05 850.238 1982.93 849.397 1982.41C847.718 1981.58 846.133 1980.58 844.668 1979.42C842.729 1977.95 840.908 1976.34 839.219 1974.59L836.915 1971.82L826.692 1980.34C822.242 1984.04 817.672 1987.85 812.861 1991.86C808.051 1995.86 803.119 1999.97 799.29 2005.4L793.096 2012.39C794.472 2014.49 796.085 2016.43 797.904 2018.16C800.679 2020.58 803.79 2022.59 807.14 2024.12C811.203 2025.89 815.558 2026.89 819.985 2027.07C828.777 2027.35 837.52 2025.64 845.557 2022.07C848.358 2020.95 851.077 2019.64 853.694 2018.14L856.841 2016.54L855.759 2017.44L857.322 2016.14L855.157 2017.94L854.195 2018.74C852.511 2020.14 850.106 2022.15 847.099 2024.65C839.224 2030.16 830.185 2033.79 820.684 2035.24C815.306 2036.1 809.814 2035.9 804.512 2034.66C799.712 2033.62 795.111 2031.81 790.886 2029.3C788.392 2027.96 786.043 2026.37 783.874 2024.55L780.586 2028.92L777.018 2033.93L775.213 2036.65C772.722 2040.05 770.432 2043.59 768.356 2047.25C749.435 2076.79 735.07 2109.01 725.742 2142.83L750.916 2130.01C750.415 2115.56 753.208 2101.18 759.085 2087.97C760.02 2084.97 761.586 2082.2 763.676 2079.86C765.767 2077.51 768.334 2075.64 771.207 2074.36C774.08 2073.09 777.192 2072.44 780.334 2072.47C783.477 2072.49 786.578 2073.19 789.43 2074.51Z" fill="#DEE7D9"/>
<path d="M910.552 2164.67C920.638 2145.48 928.34 2121.96 944.195 2110.18C972.818 2088.78 1006.28 2092.28 1038.93 2099.93C1037.54 2101.27 1036.05 2102.51 1034.48 2103.63C1028.07 2109.78 1022.16 2116.41 1016.77 2123.47C1046.54 2110.29 1082.45 2123.57 1109.55 2137.04C1095.37 2140.26 1081.74 2145.57 1069.11 2152.8C1084.15 2155.71 1098.72 2160.63 1112.45 2167.42C1114.15 2168.24 1115.77 2169.2 1117.3 2170.31C1169.11 2202.93 1171.78 2267.52 1171.78 2267.52C1139.68 2245.36 1108.58 2254.97 1071.74 2262.84C1085.07 2269.26 1098.95 2274.47 1113.22 2278.4C1075.34 2291.62 1007.67 2325.56 970.272 2289.7C970.742 2296.31 972.93 2302.68 976.619 2308.18C980.308 2313.68 985.37 2318.13 991.304 2321.07C958.44 2313.29 929.244 2294.46 908.596 2267.74C892.451 2246.15 891.736 2225.97 886.031 2203.22C890.849 2205.4 895.802 2207.26 900.859 2208.8C907.093 2211.06 913.448 2212.98 919.895 2214.54L924.343 2215.72C924.683 2216.05 924.985 2216.41 925.245 2216.8C925.702 2219.17 926.344 2221.49 927.167 2223.76C928.16 2226.87 929.49 2229.86 931.132 2232.68C932.234 2234 933.335 2235.32 934.537 2236.77C935.739 2238.21 936.941 2239.65 938.143 2241.09C939.345 2242.54 940.547 2243.98 941.649 2245.3C942.75 2246.63 943.952 2248.07 945.054 2249.39L949.001 2252.42L951.626 2254.1C951.88 2254.29 952.085 2254.54 952.227 2254.83L953.529 2256.39L952.327 2254.95C954.154 2256.14 956.062 2257.21 958.037 2258.13L960.261 2259.34L958.659 2257.41C956.925 2256.18 955.266 2254.84 953.69 2253.4C952.659 2252.44 951.75 2251.35 950.986 2250.16L947.981 2246.55L944.776 2242.7C943.674 2241.38 942.572 2240.05 941.47 2238.73C940.534 2237.3 939.742 2235.77 939.107 2234.18C938.33 2232.74 937.686 2231.23 937.185 2229.67C936.242 2227 935.525 2224.26 935.043 2221.47C934.513 2220.02 934.092 2218.54 933.782 2217.03L940.014 2218.15C943.3 2218.67 946.687 2219.31 950.093 2219.74C953.5 2220.16 956.806 2220.46 960.093 2220.98C966.685 2221.81 973.359 2221.75 979.651 2222.21L983.198 2222.31L983.699 2222.91C984.036 2224.09 984.451 2225.24 984.94 2226.36C985.39 2227.87 986.044 2229.31 986.883 2230.65C987.891 2232.11 989.031 2233.48 990.288 2234.74C991.467 2236.4 992.773 2237.97 994.195 2239.43C995.416 2241.12 996.755 2242.73 998.201 2244.24C999.503 2245.8 1000.91 2247.49 1003.29 2248.15C1005.67 2248.81 1006.86 2250.47 1008.66 2251.42C1010.4 2252.48 1012.21 2253.42 1014.07 2254.24C1015.89 2254.97 1017.7 2255.91 1019.2 2256.49L1024.05 2258.15C1026.95 2259.2 1029.46 2259.76 1031.3 2260.26L1034.01 2261.06L1031.44 2259.94L1029.3 2259.08L1029.8 2259.68L1028.08 2259.08C1027.37 2258.24 1025.51 2257.96 1024.13 2257.27L1019.78 2254.99C1018.68 2253.66 1016.74 2253.04 1015.05 2252C1013.34 2251.05 1011.73 2249.94 1010.24 2248.67C1009.04 2247.23 1007.14 2246.17 1005.7 2244.92C1004.25 2243.68 1003.19 2241.92 1001.89 2240.35C1000.59 2238.79 999.486 2237.47 998.384 2236.14C997.432 2234.67 996.569 2233.15 995.8 2231.57C995.098 2230.22 994.483 2228.83 993.958 2227.4L992.837 2223.86L992.497 2221.49L998.088 2221.11C1003.9 2220.75 1009.47 2220.6 1014.3 2220.04C1022.46 2219.36 1030.57 2218.25 1038.61 2216.7L1041.09 2216.26C1057.09 2213.94 1071.2 2211.56 1077.27 2210.78C1062.18 2212.96 1021.16 2216.77 1021.16 2216.77L1021.12 2214.77C1021.19 2213.66 1021.37 2212.56 1021.64 2211.48C1021.86 2210 1022.21 2208.55 1022.7 2207.13L1023.58 2204.77L1023.96 2203.03L1025.53 2200.5L1027.31 2198C1028.06 2197.26 1028.86 2196.59 1029.72 2195.99L1032.24 2193.89C1034.05 2192.39 1035.73 2190.99 1037.54 2189.48L1040.18 2187.28L1043.53 2185.92L1046.76 2184.66C1047.84 2184.28 1048.94 2183.97 1050.06 2183.74C1052.11 2183.09 1054.2 2182.57 1056.32 2182.19L1062.17 2181.39C1063.82 2181.02 1065.52 2180.84 1067.22 2180.85L1071 2180.76L1074.47 2180.52C1075.91 2180.5 1077.35 2180.6 1078.78 2180.8L1082.51 2181.36L1078.68 2180.68L1074.39 2180.18C1072.52 2179.94 1070.64 2179.8 1068.76 2179.77L1062.09 2179.83L1060.4 2180.01L1056.18 2180.07C1053.88 2180.19 1051.59 2180.47 1049.32 2180.89L1045.83 2181.35L1042.19 2182.35C1040.98 2182.63 1039.79 2183 1038.64 2183.47L1035.07 2184.81C1032.67 2185.84 1030.36 2187.08 1028.18 2188.52L1022.28 2193.43L1019.52 2195.73L1017.25 2198.63L1015.55 2201.48L1014.06 2204.35C1013.28 2206.02 1012.61 2207.74 1012.04 2209.49L1010.98 2213.84L1010.59 2216.81C1006.37 2216.87 1001.94 2216.69 997.288 2216.48C992.639 2216.28 985.585 2215.64 979.413 2215.08C973.241 2214.51 966.768 2213.59 960.456 2212.12L951.178 2210.28C951.175 2207.72 951.445 2205.18 951.982 2202.68C952.809 2199.12 954.132 2195.68 955.913 2192.48C958.167 2188.73 960.986 2185.35 964.273 2182.47C971.238 2177.02 979.332 2173.2 987.963 2171.29C990.891 2170.47 993.88 2169.89 996.901 2169.55L1000.29 2168.97L998.845 2168.95L1000.99 2168.59L998.184 2168.89L996.741 2168.87C994.637 2168.79 991.531 2168.73 987.623 2168.93C977.977 2169.15 968.511 2171.59 959.966 2176.07C955.463 2178.77 951.406 2182.15 947.939 2186.09C944.787 2189.85 942.163 2194.02 940.14 2198.49C939.049 2201.11 938.17 2203.82 937.513 2206.59L932.323 2205L926.392 2203.02L923.366 2202.07C919.309 2200.79 915.328 2199.28 911.444 2197.54C878.555 2185 847.705 2167.65 819.898 2146.07L847.675 2141.27C855.951 2153.17 866.779 2163.08 879.368 2170.28C881.761 2172.02 884.482 2173.26 887.367 2173.93C890.253 2174.59 893.243 2174.67 896.157 2174.14C899.072 2173.62 901.85 2172.51 904.324 2170.88C906.798 2169.26 908.917 2167.14 910.552 2164.67Z" fill="#DEE7D9"/>
<path d="M1316.45 834.087C1337.79 835.256 1362.14 840.033 1380.54 832.043C1413.16 817.905 1426.86 787.148 1436.57 755.028L1431.34 757.551C1422.84 760.057 1414.17 761.903 1405.39 763.074C1431.7 743.804 1438.03 706.151 1440.36 675.692C1430.71 686.555 1419.48 695.907 1407.05 703.437C1411.99 688.942 1414.97 673.854 1415.92 658.57L1415.88 652.899C1413.35 591.657 1359 557.693 1359 557.693C1361.83 596.07 1338.32 618.707 1313.1 646.635C1314.23 631.851 1316.68 617.198 1320.43 602.85C1289.52 628.592 1227.04 671.458 1239.39 721.26C1233.87 717.581 1229.41 712.515 1226.46 706.571C1223.51 700.626 1222.18 694.011 1222.59 687.388C1213.02 719.613 1214.69 754.133 1227.33 785.283C1238.08 809.935 1255.21 820.722 1272.06 837.04C1272.74 831.99 1273.35 826.599 1274.61 821.269C1275.73 814.808 1277.21 808.413 1279.02 802.112L1280.33 797.564C1279.93 797.149 1279.56 796.706 1279.23 796.241C1277.62 794.524 1276.12 792.718 1274.72 790.829C1272.49 788.483 1270.41 785.992 1268.51 783.372C1267.41 782.049 1266.2 780.606 1265.95 778.582C1265.12 776.925 1264.39 775.226 1263.74 773.491C1263.07 771.742 1262.53 769.947 1262.12 768.12L1261.04 762.909L1260.38 757.959L1260.22 754.833L1259.72 754.232L1259.24 752.188L1260.34 753.511C1260.23 751.327 1260.24 749.139 1260.38 746.958L1260.61 744.533L1260.82 746.998C1260.97 749.152 1261.26 751.293 1261.68 753.411C1261.87 754.802 1262.19 756.172 1262.65 757.499L1264.01 762.069L1265.69 766.778C1266.79 768.101 1267.29 769.925 1268.05 771.328C1268.81 772.731 1270.26 773.974 1271.36 775.297C1272.27 776.637 1273.31 777.885 1274.46 779.025C1276.27 781.21 1278.28 783.217 1280.47 785.019C1281.59 786.029 1282.82 786.923 1284.12 787.686L1286.32 781.775C1287.51 778.549 1288.47 775.302 1289.75 772.197L1293.83 762.899C1296.39 756.688 1299.7 750.877 1302.43 745.347L1304.27 742.181L1303.77 741.58C1303.05 742.181 1303.17 742.081 1303.77 741.58L1303.27 740.979C1302.57 740.137 1301.77 739.175 1300.87 738.092C1299.97 737.01 1298.96 735.807 1297.86 734.484C1296.76 733.161 1295.66 731.839 1295.3 729.694C1294.94 727.55 1293.86 726.007 1293.04 724.042C1292.21 722.078 1291.95 720.054 1291.59 717.91C1291.1 715.836 1290.77 713.724 1290.61 711.597C1290.44 709.484 1290.37 707.363 1290.42 705.244C1290.42 703.249 1290.52 701.256 1290.74 699.272C1291.04 697.188 1291.1 695.304 1291.48 693.561L1292.26 688.632C1292.89 685.466 1293.67 682.981 1294.05 681.238L1294.85 678.533L1294.49 681.278L1294.17 683.583L1293.91 685.225C1293.61 686.675 1293.48 688.154 1293.51 689.634L1293.16 694.604L1293.44 700.075C1293.42 702.034 1293.61 703.99 1294.02 705.907C1294.08 707.902 1294.43 709.879 1295.04 711.778C1295.4 713.709 1295.89 715.611 1296.52 717.47C1297.63 718.793 1297.99 720.937 1298.73 722.561C1299.45 724.157 1300.32 725.686 1301.31 727.131C1302.13 728.343 1303.07 729.471 1304.12 730.498C1305.02 731.581 1305.82 732.543 1306.52 733.385L1308.12 735.309L1311.21 730.701C1314.22 725.752 1317.3 721.144 1320.23 717.077C1324.79 710.341 1329.76 703.891 1335.11 697.763L1337.15 696.06C1346.98 683.398 1356 672.219 1359.99 667.471C1349.96 679.892 1326.87 713.792 1326.87 713.792C1327.49 714.061 1328.09 714.376 1328.67 714.735C1329.65 715.288 1330.69 715.719 1331.77 716.018C1333.16 716.487 1334.57 716.875 1336 717.182C1336.87 717.394 1337.74 717.549 1338.63 717.644L1341.27 717.885L1344.28 717.826L1347.31 717.546L1350.37 716.826C1351.49 716.588 1352.6 716.28 1353.68 715.905C1355.83 715.17 1357.89 714.202 1359.83 713.021L1362.6 710.717L1367.89 706.31L1370.54 704.106C1372.19 702.715 1373.68 701.135 1374.97 699.398L1378.71 694.851C1379.77 693.536 1380.72 692.135 1381.54 690.663L1383.73 687.417L1385.53 684.692L1387.46 680.645L1388.88 677.219L1387.56 680.766L1385.75 684.713L1383.28 689.822C1382.29 691.821 1381.19 693.761 1379.98 695.632L1378.77 696.634L1376.55 700.321C1375.49 702.224 1373.78 703.847 1372.5 705.73L1369.73 708.034L1366.97 710.338L1361.07 715.245C1359.04 716.841 1356.87 718.243 1354.58 719.432L1350.99 720.994C1349.8 721.497 1348.58 721.905 1347.32 722.215L1343.7 722.996L1340.21 723.456L1336.86 723.595C1335.76 723.494 1334.64 723.614 1333.66 723.413C1331.78 723.248 1329.91 722.967 1328.07 722.57C1326.67 722.234 1325.3 721.812 1323.96 721.306C1323.01 720.986 1322.08 720.605 1321.17 720.163L1320.57 719.442L1314.28 731.203C1311.59 736.292 1309.2 741.742 1307.16 747.112C1305.11 752.482 1302.1 758.654 1300.2 764.925L1297.27 773.882C1299.44 775.137 1301.72 776.165 1304.1 776.95C1307.64 778.084 1311.34 778.646 1315.06 778.617C1319.42 778.6 1323.74 777.828 1327.83 776.337C1336.01 772.973 1343.38 767.883 1349.42 761.414L1355.37 754.622L1357.39 751.917L1356.43 752.719L1358.12 751.316L1355.95 753.119L1354.99 753.921L1350.38 761.835C1345.33 770.016 1338.51 776.953 1330.41 782.129C1325.73 785.089 1320.52 787.141 1315.08 788.176C1310.26 789.087 1305.34 789.274 1300.47 788.733C1297.67 788.388 1294.9 787.838 1292.17 787.087L1290.91 792.417L1289.81 798.429L1289.18 801.595C1288.27 805.751 1287.63 809.96 1287.26 814.199C1281.68 848.959 1281.3 884.354 1286.12 919.227L1304.22 897.429C1298.12 884.961 1294.81 871.308 1294.54 857.427C1294.34 854.432 1294.76 851.428 1295.78 848.603C1296.79 845.778 1298.37 843.191 1300.43 841.002C1302.48 838.814 1304.96 837.071 1307.72 835.881C1310.48 834.692 1313.45 834.081 1316.45 834.087Z" fill="#DEE7D9"/>
<path d="M1749.57 566.871C1762.27 569.029 1775.28 568.59 1787.81 565.58C1796.64 561.112 1804.33 554.669 1810.28 546.751C1816.22 538.833 1820.26 529.652 1822.09 519.92L1819.06 521.422C1813.98 522.928 1808.78 524.052 1803.53 524.784C1810.43 517.998 1815.85 509.854 1819.45 500.866C1823.04 491.877 1824.73 482.241 1824.41 472.567C1818.67 479.049 1811.98 484.622 1804.56 489.093C1807.54 480.5 1809.33 471.54 1809.88 462.462L1809.86 459.016C1808.72 447.571 1805.07 436.519 1799.17 426.645C1793.27 416.772 1785.27 408.32 1775.73 401.892C1777.61 425.179 1763.4 438.44 1748.32 455.069C1749.02 446.274 1750.48 437.558 1752.7 429.019C1734.3 444.343 1696.96 469.943 1704.36 499.624C1701.06 497.454 1698.38 494.447 1696.62 490.908C1694.85 487.37 1694.05 483.427 1694.31 479.481C1688.6 498.79 1689.66 519.469 1697.3 538.098C1703.78 550.271 1712.92 560.829 1724.04 568.987C1724.42 566.021 1724.82 562.835 1725.56 559.569C1726.27 555.717 1727.17 551.905 1728.27 548.147L1729.08 545.442C1728.83 545.175 1728.59 544.893 1728.37 544.6C1727.39 543.589 1726.49 542.503 1725.67 541.353C1724.33 539.963 1723.09 538.476 1721.96 536.903C1721.24 536.148 1720.57 535.344 1719.96 534.498C1719.43 533.487 1718.97 532.442 1718.58 531.371C1718.2 530.364 1717.88 529.333 1717.64 528.285L1716.92 525.218L1716.52 522.292L1716.48 520.288C1716.38 518.958 1716.43 517.621 1716.62 516.301L1716.64 514.858L1716.84 516.321C1716.92 517.608 1717.1 518.888 1717.38 520.148L1717.82 522.633L1718.68 525.379L1719.76 528.145C1720.36 528.867 1721.06 529.708 1721.67 530.43C1722.25 531.232 1722.89 531.995 1723.57 532.715C1724.27 533.557 1724.87 534.279 1725.47 535C1726.4 536.396 1727.47 537.686 1728.68 538.849C1729.15 539.606 1729.72 540.295 1730.38 540.893L1731.7 537.347L1733.67 531.636L1736.18 526.086C1737.62 522.439 1739.61 518.953 1741.25 515.547L1742.81 514.245C1742.81 514.245 1741.91 513.162 1741.41 512.561C1740.76 511.878 1740.16 511.155 1739.61 510.396C1738.9 509.633 1738.23 508.829 1737.6 507.99C1736.99 506.945 1736.53 505.818 1736.24 504.643C1735.84 503.447 1735.51 502.23 1735.24 500.996C1735 499.73 1734.82 498.452 1734.7 497.168L1734.6 493.381C1734.57 492.161 1734.64 490.94 1734.82 489.734L1735.13 486.427L1735.73 483.481C1736.01 481.618 1736.59 480.115 1736.79 479.133L1737.27 477.51L1737.01 479.153L1736.89 480.476L1736.29 480.976C1736.1 481.845 1736.02 482.734 1736.05 483.622L1735.89 486.607L1736.03 489.954L1735.93 489.834C1736.01 491.051 1736.19 492.258 1736.49 493.441L1737.41 496.748C1738.11 497.59 1738.81 498.432 1738.69 499.755C1738.57 501.077 1740.09 501.438 1740.69 502.16C1741.2 502.888 1741.77 503.573 1742.39 504.204C1742.92 504.718 1743.39 505.282 1743.8 505.888C1744.07 506.27 1744.37 506.632 1744.7 506.971L1746.62 504.146C1748.55 501.321 1750.25 498.476 1752.02 496.192C1754.76 492.159 1757.71 488.273 1760.86 484.551L1762.06 483.55L1775.73 466.46C1770.08 473.612 1755.88 493.988 1755.88 493.988C1756.04 494.328 1756.28 494.619 1756.59 494.83C1757.16 495.236 1757.82 495.522 1758.51 495.672C1759.31 496.019 1760.14 496.281 1760.99 496.455L1762.54 496.596C1763.06 496.791 1763.62 496.879 1764.18 496.856L1765.96 496.797L1767.77 496.517C1768.38 496.49 1768.98 496.396 1769.57 496.237L1771.01 495.035C1772.29 494.57 1773.53 494.015 1774.72 493.373L1776.41 491.971L1781.1 488.065C1782.15 487.297 1783.16 486.46 1784.1 485.56L1786.75 483.357L1788.41 480.952L1790.22 479.45L1791.66 478.248L1792.76 475.904L1791.76 478.368L1790.38 481.354L1788.39 484.84L1787.67 485.441L1786.25 487.645C1785.52 488.776 1784.72 489.853 1783.84 490.871L1782.16 492.273L1776.99 496.58C1775.97 497.713 1774.8 498.691 1773.5 499.485L1771.81 500.887L1769.63 501.688L1767.59 502.168L1765.34 502.408C1764.68 502.532 1764 502.545 1763.34 502.447L1761.45 502.387L1758.17 501.865C1757.31 501.691 1756.48 501.429 1755.68 501.082C1755.08 500.974 1754.5 500.771 1753.96 500.481L1750.09 507.574C1748.49 510.539 1747.08 513.745 1745.54 517.271C1743.99 520.798 1742.57 524.224 1741.35 527.891L1739.64 533.181C1740.93 533.989 1742.34 534.604 1743.81 535.006C1745.85 535.696 1748 536.042 1750.16 536.03C1752.82 536.027 1755.46 535.553 1757.96 534.63C1762.87 532.64 1767.29 529.589 1770.88 525.696L1774.37 521.569L1775.94 520.267L1775.34 520.767L1776.3 519.966L1775.09 520.968L1774.49 521.468L1771.73 526.217C1768.67 531.064 1764.62 535.203 1759.84 538.357C1757.04 540.069 1753.96 541.257 1750.74 541.862C1747.88 542.428 1744.94 542.535 1742.04 542.18C1740.38 541.991 1738.74 541.655 1737.13 541.176L1736.29 544.322L1735.63 547.929L1735.23 549.893C1734.69 552.351 1734.32 554.841 1734.1 557.347C1730.73 578.102 1730.49 599.245 1733.38 620.071L1744.13 607.049C1740.4 599.265 1738.52 590.727 1738.62 582.098C1738.33 580.378 1738.38 578.615 1738.77 576.914C1739.16 575.213 1739.89 573.607 1740.9 572.19C1741.92 570.772 1743.21 569.571 1744.7 568.658C1746.19 567.745 1747.84 567.138 1749.57 566.871Z" fill="#DEE7D9"/>
<path d="M1005.06 835.12C1016.16 823.6 1024.71 809.88 1030.18 794.848C1035 768.838 1021.7 747.732 1005.89 728.509C1005.58 729.88 1005.38 731.274 1005.29 732.677C1003.29 738.959 1000.84 745.087 997.951 751.011C996.936 726.803 976.562 707.719 958.53 693.405C961.038 703.89 962 714.686 961.386 725.449C954.498 716.403 946.411 708.337 937.346 701.474C936.199 700.637 935.009 699.861 933.78 699.149C921.192 692.388 907.26 688.505 892.99 687.78C878.719 687.055 864.466 689.505 851.257 694.955C876.643 709.051 880.363 732.839 887.329 760.035C878.724 753.174 870.679 745.639 863.268 737.503C867.267 766.762 867.11 823.314 902.937 836.251C898.368 838.108 893.396 838.748 888.506 838.107C883.617 837.466 878.978 835.567 875.042 832.595C891.01 851.877 913.1 865.109 937.635 870.089C954.682 871.803 971.896 869.65 987.997 863.792C985.593 860.905 982.126 858.7 979.282 855.773C976.437 852.846 972.35 848.917 969.265 844.969L967.062 842.323L966.099 843.124C964.445 843.641 962.737 843.97 961.009 844.104C958.609 844.467 956.178 844.58 953.755 844.443L949.787 844.081L945.639 843.258L941.631 842.114L937.985 840.671L934.799 839.046C934.06 838.676 933.356 838.24 932.695 837.743L931.192 837.161L932.495 837.503C931.102 836.671 929.775 835.733 928.528 834.696L927.426 833.373L929.129 834.195C929.73 834.917 931.453 835.518 933.276 836.24C934.253 836.691 935.257 837.08 936.282 837.403L939.628 838.487L943.336 839.269L947.063 839.831L950.95 839.853L954.417 839.613C956.543 839.444 958.638 839 960.65 838.293L963.857 837.251C962.855 836.049 961.854 834.846 960.852 833.644C959.85 832.441 957.547 829.675 955.944 827.75L951.958 821.497C948.753 817.648 947.071 812.938 944.668 808.829L943.065 806.905L940.36 807.325L936.913 807.344C935.545 807.371 934.178 807.283 932.825 807.082L928.576 806.139C927.073 805.557 925.551 805.196 924.168 804.515C922.642 803.986 921.177 803.293 919.8 802.449C918.393 801.715 917.058 800.849 915.813 799.863C914.501 799.114 913.278 798.22 912.167 797.196C911.265 796.114 910.364 795.031 908.961 794.57C908.111 793.65 907.308 792.687 906.557 791.684C905.292 790.364 904.121 788.957 903.052 787.474L901.65 785.791L902.951 787.354C903.271 787.833 903.64 788.276 904.053 788.677C904.697 789.565 905.399 790.409 906.157 791.203L909.182 793.368C909.983 794.33 911.386 794.791 912.648 795.573L916.355 797.579C917.256 798.661 919.02 798.822 920.522 799.403C921.858 799.927 923.231 800.35 924.63 800.667C926.033 801.128 927.355 801.249 928.658 801.59L932.526 801.832L935.872 801.693L938.698 801.172L939.901 800.171C939.2 799.329 938.298 798.247 938.359 796.363C936.617 792.314 934.955 788.607 933.713 785.159C931.499 779.53 929.574 773.79 927.947 767.963C927.749 767.364 927.582 766.756 927.447 766.14C923.602 754.676 920.519 744.615 919.258 740.165C922.722 750.928 934.096 779.749 934.096 779.749L935.178 778.847L941.071 773.939L942.635 772.637L944.319 771.235L945.281 769.211C945.727 768.571 946.022 767.838 946.143 767.067L947.026 764.703C947.419 763.046 947.648 761.354 947.709 759.653L947.83 757.108C947.872 756.208 947.805 755.306 947.63 754.423L947.531 751.857C947.03 751.256 947.13 750.154 947.091 749.372C946.82 747.76 946.446 746.167 945.97 744.602L944.568 740.474C944.244 739.295 943.829 738.142 943.327 737.027L941.524 734.862L940.623 732.557C939.822 731.595 939.121 730.753 938.52 730.031C939.268 730.832 939.971 731.675 940.623 732.557C941.424 733.519 942.326 734.602 943.227 735.684C944.129 736.766 944.729 738.711 945.37 740.214C945.581 740.577 945.852 740.902 946.171 741.176L947.453 744.182C948.126 745.71 948.688 747.284 949.135 748.892L949.916 751.297L950.436 754.123L951.076 756.848L951.156 759.634C951.309 761.592 951.241 763.562 950.953 765.505L950.371 768.231C950.244 769.196 950.008 770.144 949.669 771.056L948.766 773.641L947.563 775.865L945.639 777.467L943.955 778.87L940.708 781.574L938.303 783.577L936.619 784.98C938.021 787.886 939.543 790.692 941.265 793.738C942.988 796.785 945.692 801.255 948.216 805.263C950.739 809.272 953.283 813.06 956.388 816.789C957.891 818.593 959.393 820.397 960.896 822.201C962.434 821.205 963.848 820.028 965.105 818.695C967.323 817.049 969.208 814.996 970.658 812.645C972.565 809.951 973.902 806.897 974.588 803.668C975.87 797.119 975.612 790.361 973.833 783.929C973.193 781.203 972.612 779.039 972.092 777.436L971.311 775.03L971.912 775.752L971.01 774.67L971.711 776.734L973.314 778.658C974.315 779.861 975.216 782.166 976.318 784.712C979.299 791.249 980.775 798.371 980.64 805.554C980.467 809.555 979.619 813.498 978.131 817.216C976.606 820.525 974.681 823.634 972.397 826.473L967.586 830.479C968.391 831.573 969.261 832.617 970.191 833.606L973.195 837.214L974.698 839.018C976.867 841.308 979.154 843.482 981.549 845.533C1000.71 863.286 1022.39 878.109 1045.88 889.52L1039.94 869.419C1029.26 867.88 1019.07 863.989 1010.08 858.027C1008.14 856.948 1006.46 855.47 1005.14 853.691C1003.81 851.911 1002.88 849.871 1002.41 847.705C1001.93 845.54 1001.92 843.298 1002.38 841.128C1002.84 838.958 1003.75 836.91 1005.06 835.12Z" fill="#DEE7D9"/>
<path d="M1080.46 585.95C1096.37 584.147 1111.76 579.162 1125.7 571.295C1146.02 554.367 1149.5 529.68 1149.77 504.81L1146.52 507.515C1140.98 511.121 1135.15 514.269 1129.1 516.928C1143.86 497.714 1140.64 469.638 1136.12 447.333C1131.25 457.051 1124.97 465.991 1117.47 473.859C1117.94 462.505 1116.96 451.137 1114.56 440.031L1113.48 436.043C1108.17 422.745 1100 410.782 1089.54 401.009C1079.07 391.237 1066.58 383.896 1052.95 379.513C1063.15 406.67 1050.81 427.327 1038.62 452.553C1036.31 441.761 1035.01 430.779 1034.72 419.747C1018.45 444.711 982.28 487.865 1001.39 520.837C996.703 519.332 992.494 516.627 989.18 512.991C985.865 509.354 983.561 504.914 982.497 500.11C982.268 525.112 990.597 549.439 1006.1 569.054C1018.19 581.318 1032.92 590.647 1049.18 596.321C1048.38 592.505 1047.87 588.632 1047.68 584.737C1047.13 579.807 1046.88 574.849 1046.92 569.888L1046.9 566.441L1046.2 565.599C1044.64 564.844 1043.12 564 1041.65 563.073C1039.63 561.767 1037.72 560.291 1035.94 558.662C1035.02 557.67 1034.15 556.626 1033.34 555.535C1032.38 554.504 1031.48 553.42 1030.64 552.288L1028.03 549.161L1026.23 545.774L1024.77 542.306C1024.41 541.616 1024.14 540.881 1023.97 540.122L1022.97 538.919L1023.87 540.002C1023.3 538.44 1022.85 536.839 1022.53 535.212L1021.52 534.009L1022.63 535.332C1023.19 536.853 1023.87 538.327 1024.67 539.741C1025.19 540.651 1025.87 541.465 1026.67 542.147L1028.87 544.793L1030.98 547.318C1031.72 548.329 1032.52 549.293 1033.38 550.205C1034.12 551.214 1034.93 552.178 1035.79 553.091C1036.45 554.029 1037.19 554.914 1037.99 555.737C1039.75 556.949 1041.63 557.976 1043.6 558.805C1044.4 559.767 1045.96 559.687 1046.83 559.988L1047.15 555.239L1047.61 547.724L1048.52 540.25C1049.08 535.3 1050.4 530.531 1051.04 525.922L1051.73 523.317C1050.89 522.882 1050.08 522.399 1049.3 521.874C1048.7 521.152 1047.9 520.19 1047.1 519.228C1046.16 518.243 1045.29 517.198 1044.49 516.101C1043.59 515.018 1042.69 513.936 1041.69 512.733C1040.69 511.53 1039.69 510.328 1039.39 508.745C1039.09 507.161 1037.98 505.838 1037.46 504.235C1036.83 502.794 1036.34 501.298 1035.98 499.766C1035.53 498.315 1035.19 496.835 1034.94 495.336C1034.59 494.001 1034.34 492.641 1034.2 491.268L1033.88 487.46C1033.64 485.216 1033.7 483.332 1033.6 481.99L1033.56 479.986L1033.94 481.91L1034.12 483.593L1034.22 484.936L1034.82 488.102L1035.72 491.629C1036.53 492.591 1036.61 494.155 1036.93 495.518C1037.38 496.863 1037.93 498.175 1038.57 499.446C1039.15 500.834 1039.81 502.192 1040.53 503.514C1041.89 506.006 1043.5 508.35 1045.34 510.51C1046.06 511.532 1046.87 512.497 1047.74 513.396C1048.57 514.16 1049.48 514.838 1050.45 515.421C1051.19 516.009 1052 516.495 1052.87 516.865L1053.87 518.067L1055.12 514.18C1056.38 510.072 1057.52 506.065 1058.85 502.518C1060.71 496.857 1062.88 491.305 1065.37 485.887L1066.19 484.184C1070.66 472.923 1074.77 463.185 1076.6 459.017C1072.2 469.397 1062.42 498.732 1062.42 498.732L1063.94 499.093L1066.46 499.434L1069.69 499.395L1071.59 499.235L1073.64 498.755L1075.8 498.175L1077.49 496.773C1078.15 496.353 1078.76 495.848 1079.29 495.27L1081.09 493.768C1082.51 492.788 1083.84 491.682 1085.06 490.462L1086.99 488.86L1089.03 487.157L1090.96 485.555L1092.16 483.33C1093 481.978 1093.72 480.557 1094.32 479.082L1096.03 475.015L1097.23 471.568L1098.16 468.763L1098.82 466.379L1099.22 463.193L1099.7 460.347L1099.44 463.213L1099.04 466.399C1098.86 467.799 1098.59 469.185 1098.22 470.547C1098 472.175 1097.63 473.779 1097.11 475.336L1096.27 476.037L1095.43 479.183C1095.07 480.706 1094.26 482.189 1093.66 483.912C1093.43 484.771 1093.09 485.598 1092.66 486.377L1091.34 488.701L1089.99 491.245L1087.83 493.048C1086.74 494.609 1085.45 496.023 1084 497.255L1081.83 499.058C1081.22 499.781 1080.49 500.391 1079.67 500.861L1077.5 502.664L1075.08 503.665L1072.67 504.446L1070.51 505.027L1066.24 505.527L1063.01 505.565L1060.93 505.264C1060.09 508.41 1059.47 511.576 1058.82 514.963C1058.18 518.349 1057.36 523.719 1056.61 528.208C1055.87 532.697 1055.55 537.446 1055.43 542.436L1055.13 549.41C1056.97 549.799 1058.85 550.008 1060.74 550.033C1063.48 550.179 1066.22 549.826 1068.83 548.993C1071.96 548.099 1074.91 546.677 1077.55 544.788C1082.73 540.747 1086.93 535.582 1089.82 529.682L1092.59 523.71L1093.59 521.246L1092.99 521.747L1094.07 520.845L1093.23 522.769C1092.83 525.011 1092.3 527.226 1091.62 529.402C1089.75 536.323 1086.28 542.706 1081.48 548.035C1078.96 551.151 1075.86 553.738 1072.34 555.648C1069.1 557.342 1065.62 558.524 1062.02 559.151C1059.94 559.446 1057.84 559.626 1055.74 559.69L1055.94 563.598C1055.99 565.177 1056.14 566.75 1056.4 568.308L1056.52 570.652C1056.78 573.899 1057.28 576.945 1057.78 579.991C1060.86 605.949 1067.88 631.286 1078.6 655.126L1086.9 635.991C1079.78 627.92 1074.54 618.371 1071.56 608.031C1070.51 606.025 1069.91 603.815 1069.8 601.554C1069.69 599.294 1070.07 597.036 1070.92 594.937C1071.77 592.838 1073.06 590.948 1074.71 589.396C1076.35 587.845 1078.32 586.669 1080.46 585.95Z" fill="#DEE7D9"/>
<path d="M1603.63 983.752C1618.63 989.535 1634.66 992.134 1650.72 991.382C1676.57 985.738 1690.41 965.663 1702.46 943.202L1698.35 944.383C1691.73 945.056 1685.06 945.228 1678.41 944.898C1700.36 934.564 1710.32 908.135 1716.42 886.354C1707.75 892.669 1698.19 897.676 1688.06 901.214C1693.79 891.423 1698.19 880.911 1701.14 869.956L1701.84 865.909C1703.29 851.571 1701.5 837.091 1696.63 823.532C1691.75 809.972 1683.9 797.676 1673.65 787.545C1670.35 816.361 1649.75 829.04 1627.62 846.247C1630.63 835.64 1634.47 825.288 1639.11 815.289C1613.32 830.05 1561.43 851.878 1563.3 889.833C1559.78 886.387 1557.25 882.073 1555.94 877.327C1554.64 872.582 1554.61 867.576 1555.87 862.818C1544.28 884.989 1540.62 910.46 1545.51 934.998C1550.53 951.359 1559.1 966.409 1570.61 979.073C1571.83 975.406 1573.05 971.739 1574.74 967.892C1576.42 964.045 1578.33 958.995 1580.73 954.547L1582.46 951.482C1582.13 951.213 1581.86 950.886 1581.66 950.519C1580.44 949.228 1579.3 947.862 1578.25 946.43C1577.01 944.333 1575.98 942.117 1575.19 939.816C1574.65 938.566 1574.25 937.263 1573.99 935.928C1573.63 934.621 1573.34 933.296 1573.13 931.96L1572.61 927.912L1572.53 923.904L1572.75 920.257L1573.19 917.852L1573.23 916.189L1574.03 917.151L1575.02 912.462L1575.62 910.739L1575.46 912.502C1575.19 914.071 1575.08 915.662 1575.13 917.251C1575.63 917.853 1575.05 919.356 1575.17 920.478L1575.51 924.065L1576.19 927.572C1576.49 928.847 1576.86 930.105 1577.29 931.34C1577.65 932.563 1578.1 933.755 1578.64 934.908C1579.1 935.99 1579.64 937.041 1580.24 938.054C1581.44 939.828 1582.82 941.479 1584.34 942.985C1584.98 943.881 1585.68 944.725 1586.45 945.511L1588.81 941.504L1592.74 934.972L1596.97 928.801C1599.8 924.614 1603.03 920.907 1605.81 917.161L1607.74 915.558C1607.04 914.921 1606.44 914.193 1605.94 913.393C1605.37 912.419 1604.87 911.408 1604.43 910.367C1603.96 909.093 1603.56 907.795 1603.23 906.479C1602.85 905.031 1602.58 903.557 1602.41 902.07C1602.22 900.514 1602.14 898.947 1602.17 897.38C1602.12 895.79 1602.22 894.199 1602.5 892.631L1603.26 887.922L1604.32 883.574L1605.47 879.566L1606.89 876.14L1609.26 870.91L1610.2 869.107L1609.46 871.151L1609.09 872.673L1608.25 873.374L1607.41 876.521L1606.53 880.107L1605.82 884.155C1605.53 885.531 1605.4 886.937 1605.44 888.344L1605.26 892.772C1605.24 894.215 1605.54 895.798 1605.64 897.141L1606.38 901.209C1607.18 902.171 1607.26 903.735 1607.72 904.777C1608.18 905.819 1609.22 906.581 1609.1 907.903C1609.65 908.668 1610.25 909.391 1610.91 910.068L1612.01 911.391L1615.14 908.787L1623.72 900.012C1629.37 895.304 1634.18 891.298 1637.55 888.494L1639.11 887.191C1648.37 879.479 1656.55 872.668 1660.04 869.763C1651.38 876.975 1629.39 898.751 1629.39 898.751L1630.29 899.834C1630.29 899.834 1631.29 901.037 1631.89 901.758C1632.84 902.316 1633.84 902.78 1634.88 903.142C1635.41 903.443 1635.99 903.647 1636.6 903.744C1637.21 904.053 1637.87 904.263 1638.54 904.365L1640.73 904.787L1642.93 904.988L1645.38 904.989L1647.84 904.769C1649.5 904.499 1651.14 904.091 1652.73 903.548L1655.26 902.667L1657.18 901.064L1659.11 899.462L1661.15 897.759C1662.45 896.876 1663.65 895.87 1664.76 894.754L1668.13 891.95L1671.01 889.546L1673.18 887.743L1675.1 886.141L1677.01 883.536L1675.32 886.161L1672.68 889.587L1669.45 893.293L1668.49 894.094L1666.08 896.097L1660.19 901.005L1658.02 902.808L1655.86 904.611L1653.81 906.314C1652.07 907.162 1650.26 907.853 1648.4 908.376C1645.58 908.895 1645.58 908.894 1642.75 909.414L1639.96 909.496L1637.32 909.255C1636.5 909.217 1635.69 909.068 1634.91 908.813C1634.14 908.694 1633.38 908.512 1632.63 908.271C1631.27 907.907 1629.94 907.451 1628.64 906.907C1627.94 906.066 1626.62 905.945 1625.78 905.423C1624.94 904.902 1624.78 904.221 1624.48 903.86L1623.97 903.259L1617.72 910.912C1614.97 914.218 1612.53 917.884 1609.74 921.631C1606.95 925.377 1604.59 929.385 1602.2 933.612L1598.75 939.743C1600.17 941.017 1601.76 942.096 1603.46 942.951C1605.81 944.352 1608.4 945.304 1611.1 945.759C1614.28 946.386 1617.56 946.421 1620.76 945.862C1627.2 944.667 1633.29 942.031 1638.57 938.152L1643.74 933.845L1639.27 938.994C1634.42 944.267 1628.42 948.358 1621.74 950.953C1618 952.418 1614 953.112 1609.99 952.993C1606.34 953.074 1602.71 952.517 1599.25 951.347C1597.24 950.798 1595.3 950.024 1593.46 949.04L1591.8 952.667L1590.07 956.955L1589.21 959.099C1587.96 961.975 1586.88 964.918 1585.96 967.915C1576.87 992.423 1571.52 1018.16 1570.1 1044.26L1586.22 1030.84C1583.57 1020.45 1583.31 1009.6 1585.45 999.097C1585.46 996.836 1585.97 994.605 1586.93 992.558C1587.89 990.51 1589.28 988.695 1591.01 987.237C1592.73 985.779 1594.76 984.712 1596.94 984.111C1599.11 983.509 1601.4 983.387 1603.63 983.752Z" fill="#DEE7D9"/>
<path d="M-281.177 2262.99C-281.177 2262.99 614.381 2122.3 819.312 1193.93L1920.93 495.041L950.708 1275.15C950.708 1275.15 818.324 2125.79 -125.425 2450.01L-281.177 2262.99Z" fill="#DEE7D9"/>
<path d="M510.081 1993.69L511.283 1995.13C512.178 1996.42 513.184 1997.62 514.288 1998.74C517.293 2002.35 522.943 2007.42 530.355 2013.87C551.31 2031.99 574.163 2047.79 598.516 2060.99C615.036 2070.03 632.185 2077.87 649.831 2084.45C669.633 2091.99 690.019 2097.9 710.786 2102.12C756.942 2111.18 804.275 2112.57 850.882 2106.23C862.927 2104.55 874.971 2102.87 886.655 2100.27L904.191 2096.87L921.747 2092.03C933.591 2088.88 945.055 2085.04 956.319 2080.96C967.582 2076.87 978.846 2072.79 989.709 2068.22C1000.57 2063.66 1011.19 2059.29 1021.34 2054.1C1031.48 2048.92 1041.76 2044.63 1051.04 2039.14C1070.1 2028.77 1088.14 2018.63 1104.09 2008.2C1120.05 1997.76 1134.7 1988.21 1147.31 1979.13C1159.92 1970.06 1171.18 1962.31 1179.82 1955.32L1207.7 1933.52L1182.64 1958.46C1174.91 1966.54 1164.92 1976.07 1153.2 1986.45C1141.47 1996.83 1128.58 2008.99 1113.37 2021.05C1098.15 2033.1 1081.52 2046.15 1063.56 2059.07C1054.9 2066.28 1044.64 2071.56 1034.92 2078.23C1025.19 2084.9 1014.65 2090.83 1003.87 2096.96C993.085 2103.09 982.302 2109.22 970.697 2114.61C959.093 2119.99 947.768 2125.96 935.542 2130.85L917.304 2138.3L898.585 2144.92C886.059 2149.45 873.172 2153.05 860.185 2156.54C808.342 2170.39 754.534 2175.4 701.025 2171.36C676.072 2169.41 651.309 2165.51 626.962 2159.71C605.185 2154.3 583.834 2147.3 563.082 2138.77C531.13 2126.27 500.613 2110.37 472.056 2091.35C461.578 2084.39 453.584 2078.22 447.994 2073.71C445.69 2070.94 442.925 2069.58 440.962 2067.95L439.059 2065.67L510.081 1993.69Z" fill="#DEE7D9"/>
<path d="M1033.47 1095.22L1031.53 1087.26C1030.29 1082.18 1028.82 1075.05 1027.14 1065.86C1022.52 1040.82 1019.23 1015.55 1017.27 990.165C1010.47 913.69 1016.26 836.619 1034.41 762.018C1039.52 741.964 1045.7 722.199 1052.93 702.807C1056.36 693.229 1060.53 684.052 1064.38 674.734L1077.03 648.105L1090.87 623.14L1105.42 600.019C1115.53 585.493 1125.31 572.049 1135.27 560.289C1145.24 548.529 1154.94 538.412 1163.54 529.417C1172.14 520.422 1180.14 513.15 1186.99 507.441L1208.4 489.612L1188.72 509.265C1182.58 515.595 1175.71 523.97 1167.77 533.026C1159.83 542.081 1151.35 553.421 1143.09 566.003C1134.83 578.585 1126.03 592.23 1117.74 607.478L1105.81 631.061L1094.84 656.287L1084.98 682.837C1082.25 692.034 1079.66 700.911 1076.47 710.288C1071.16 729.396 1066.9 748.783 1063.73 768.36C1053.32 839.727 1054.54 912.311 1067.35 983.287C1071.29 1006.42 1076.43 1029.33 1082.76 1051.93C1085.14 1059.92 1087.12 1066.22 1088.52 1070.35L1090.53 1076.42L1033.47 1095.22Z" fill="#DEE7D9"/>
<path d="M1206.59 967.539L1212.4 970.848C1215.35 972.672 1221.18 975.76 1228.73 979.45C1236.28 983.139 1245.68 987.33 1256.96 991.582L1274.8 998.321C1281.39 1000.37 1288.2 1002.43 1295.21 1004.74C1309.46 1009.37 1325.39 1012.6 1342.24 1016.7C1359.1 1020.79 1377.19 1023.44 1396.09 1024.61C1405.47 1025.35 1415.12 1026.68 1424.86 1027.12L1454.6 1027.61L1469.81 1027.78L1485.02 1026.72L1515.76 1024.75C1535.99 1022.37 1556.33 1018.67 1576.21 1015.15L1634.33 1000.56L1687.72 981.755C1704.61 975.628 1719.69 967.557 1734.26 961.329C1747.51 955.733 1760.42 949.34 1772.9 942.183L1801.86 925.599L1827.18 911.238L1803.7 928.545L1776.77 948.537C1765.12 957.279 1752.92 965.261 1740.25 972.433C1726.52 980.404 1711.92 990.52 1695.49 998.912L1643.14 1024.59L1584.63 1047.03C1564.11 1052.72 1543.19 1059.14 1521.82 1064.31L1489.8 1070.61L1473.63 1073.69L1457.35 1075.43L1425.27 1078.73C1414.53 1079.53 1403.99 1079.34 1393.73 1079.74C1372.84 1080.83 1352.44 1079.09 1333.43 1078.02C1314.41 1076.95 1296.19 1074.4 1279.6 1071.11L1255.56 1066.69C1247.94 1064.88 1240.87 1063.24 1234.14 1061.51C1220.65 1058.28 1209.01 1054.33 1199.39 1051.34C1189.77 1048.35 1182.28 1045.23 1176.31 1042.46L1168.49 1039.19L1206.59 967.539Z" fill="#DEE7D9"/>
</svg>
