<svg width="499" height="422" viewBox="0 0 499 422" fill="none" xmlns="http://www.w3.org/2000/svg">
<path d="M324.555 86.3497C325.725 79.7644 330.933 73.7171 332.886 67.5576C333.79 69.6746 334.941 72.5094 336.102 76.0807C336.76 77.9435 337.41 79.9973 338.105 82.1782L339.093 85.5135L340.036 89.0306L340.907 92.6843C341.218 93.9204 341.484 95.1838 341.705 96.4745C342.007 97.747 342.192 99.0287 342.404 100.51C342.615 101.992 342.808 103.083 342.957 104.51C343.316 107.11 343.594 109.728 343.735 112.429L343.839 114.347L343.906 116.256C343.943 116.884 343.945 117.502 343.946 118.12L343.949 119.975C343.805 120.557 343.951 121.212 343.916 121.821L343.82 123.613C343.804 124.767 343.706 125.941 343.59 127.032C343.473 128.123 343.319 128.124 343.447 128.696L343.149 129.897C341.022 126.46 338.393 123.36 335.349 120.701C330.632 116.632 327.056 111.405 324.973 105.535C323.3 99.2654 323.157 92.686 324.555 86.3497Z" fill="#314725"/>
<path d="M346.05 129.883C346.186 129.337 346.13 128.783 346.193 128.219C346.255 127.655 346.281 127.082 346.308 126.509C346.36 125.363 346.422 124.181 346.447 122.99L346.443 121.135C346.466 120.513 346.453 119.891 346.403 119.271C346.548 118.689 346.365 118.025 346.372 117.371L346.26 115.489C346.195 114.816 346.157 114.189 346.129 113.525L345.916 111.579C345.675 108.97 345.288 106.325 344.883 103.598C344.671 102.271 344.414 100.971 344.184 99.5618C343.954 98.1529 343.634 96.9532 343.322 95.7172C343.011 94.4811 342.718 93.1723 342.37 91.9273C342.022 90.6822 341.701 89.4825 341.345 88.2739C340.988 87.0652 340.622 85.8929 340.283 84.766C339.945 83.6391 339.57 82.5032 339.177 81.4401C338.436 79.2865 337.678 77.2056 336.82 75.3705C335.44 71.8996 334.18 69.0377 333.222 66.9845C336.721 71.2516 342.695 71.3042 346.876 75.1608C351.847 79.8653 354.89 86.2515 355.411 93.076C356.097 99.9368 355.25 106.864 352.93 113.358C350.895 118.917 347.777 124.788 345.97 130.674L346.05 129.883Z" fill="#314725"/>
<path d="M337.917 142.118C338.188 141.026 338.776 139.743 339.228 138.233C339.418 137.469 339.616 136.668 339.833 135.795C340.049 134.922 340.266 134.048 340.501 133.102C340.735 132.156 340.744 132.12 340.862 131.647L341.241 130.119L341.62 128.59C341.755 128.044 341.882 127.535 342.017 126.989L342.25 125.27C342.385 124.724 342.521 124.179 342.411 123.533C342.3 122.888 342.508 122.36 342.544 121.751C342.579 121.141 342.605 120.569 342.649 119.923C342.694 119.277 342.683 118.695 342.719 118.086C342.754 117.477 342.725 116.813 342.761 116.204L342.775 114.276L342.708 112.367C342.658 109.766 342.453 107.166 342.221 104.52L341.777 100.548C341.556 99.2569 341.417 97.9478 341.224 96.5479C341.03 95.1479 340.81 94.0118 340.544 92.7484L339.791 89.0853C339.516 87.8583 339.223 86.7041 338.975 85.5225L338.078 82.1325C337.501 79.9422 336.87 77.9703 336.312 76.0163C335.754 74.0624 335.123 72.3996 334.575 70.873C334.026 69.3465 333.734 68.5014 333.359 67.5201L333.413 67.3017C334.281 69.4096 335.45 72.3263 336.702 75.8429C337.361 77.7057 338.046 79.7685 338.705 81.9404C339.053 83.0309 339.355 84.1488 339.684 85.312C340.014 86.4753 340.343 87.6386 340.655 88.8746L341.525 92.5283C341.828 93.8007 342.094 95.0641 342.351 96.3639C342.608 97.6637 342.838 98.9181 343.013 100.391C343.189 101.864 343.445 103.009 343.602 104.4C343.953 107.036 344.222 109.691 344.381 112.318C344.237 112.9 344.483 113.618 344.512 114.282C344.54 114.946 344.542 115.564 344.57 116.228L344.601 118.128L344.595 120.019C344.442 120.638 344.589 121.292 344.553 121.902L343.975 123.612C343.839 124.158 343.95 124.803 343.878 125.404C343.806 126.004 343.598 126.532 343.718 127.141C343.837 127.75 343.447 128.232 343.566 128.841L343.351 130.487L342.972 132.016C342.846 132.525 342.719 133.035 342.602 133.508C342.484 133.981 342.123 135.436 341.898 136.346L341.275 138.857C340.878 140.458 340.535 141.84 340.246 143.005C339.459 145.243 338.98 146.553 338.98 146.553L336.286 145.422C336.286 145.422 337.084 144.229 337.917 142.118Z" fill="#314725"/>
<path d="M286.64 72.7357C286.713 67.4617 290.039 61.9908 290.767 57.0338C291.733 58.5869 293.001 60.6395 294.343 63.1739C295.091 64.5183 295.875 66.0262 296.679 67.616C297.098 68.4154 297.473 69.2421 297.874 70.1143L299.079 72.7307L300.212 75.4838C300.605 76.3923 300.952 77.3282 301.327 78.3096C301.701 79.2909 302.003 80.2542 302.378 81.2355C302.752 82.2168 303.018 83.1711 303.311 84.1707C303.933 86.1791 304.446 88.3149 304.913 90.169L305.243 91.6414C305.353 92.1322 305.454 92.6594 305.528 93.1412C305.601 93.623 305.748 94.1228 305.822 94.6046L306.042 96.05L306.272 97.4589C306.164 97.8956 306.347 98.4044 306.421 98.8862C306.494 99.368 306.588 100.704 306.68 101.577C306.773 102.45 306.727 102.477 306.737 102.905L306.766 103.878C304.681 101.461 302.243 99.3714 299.535 97.6806C295.339 95.1016 291.886 91.4765 289.513 87.1606C287.439 82.6439 286.455 77.7027 286.64 72.7357Z" fill="#314725"/>
<path d="M308.867 103.974L308.81 102.647L308.68 101.301C308.551 100.419 308.476 99.4738 308.32 98.5466L308.099 97.1013L307.842 95.6469L307.548 94.1835L307.218 92.7111L306.897 91.2023L306.494 89.7118C305.954 87.6851 305.359 85.5676 304.664 83.6958L303.586 80.7244L302.444 77.8532L301.22 75.0003C300.828 74.0918 300.399 73.1742 299.96 72.293C299.522 71.4118 299.121 70.5397 298.674 69.6949C298.226 68.8501 297.852 68.0233 297.387 67.2513C296.547 65.6525 295.717 64.1719 294.942 62.7822C293.446 60.2481 292.205 58.2409 291.048 56.6791C294.199 59.5465 299.053 58.6646 302.759 61.3219C307.158 64.3601 310.279 68.9174 311.521 74.1174C312.943 79.384 313.158 84.9036 312.151 90.265C311.287 94.8403 309.595 99.79 308.895 104.638L308.867 103.974Z" fill="#314725"/>
<path d="M304.085 114.53C304.302 113.657 304.564 112.602 304.607 111.338C304.751 110.755 304.914 110.1 304.821 109.382C304.729 108.664 304.91 107.936 304.981 107.181L305.042 105.999C305.142 105.599 305.232 105.235 305.04 104.763C304.848 104.29 305.057 103.917 305.083 103.499C305.11 103.08 305.027 102.635 305.026 102.171C305.025 101.708 305.015 101.28 304.969 100.844C304.965 100.385 304.936 99.9268 304.885 99.4709L304.773 98.0527L304.625 96.6254C304.551 96.1436 304.523 95.6344 304.449 95.1527L304.237 93.6709L303.989 92.1802C304.098 91.7435 303.806 91.2076 303.705 90.6804C303.346 88.6988 302.86 86.6084 302.339 84.6635C302.082 83.6729 301.789 82.6732 301.496 81.6735C301.204 80.6738 300.911 79.6742 300.564 78.7383L299.54 75.8578C299.201 74.8855 298.845 73.9859 298.498 73.05C298.151 72.1141 297.74 71.2783 297.42 70.3878L296.306 67.8712C295.557 66.2177 294.809 64.7188 294.079 63.4562C293.349 62.1937 292.738 60.7672 292.117 59.6864L290.721 57.2157C291.688 58.7688 292.983 60.8668 294.388 63.4557C295.127 64.8364 295.912 66.3443 296.724 67.8977L297.92 70.396L299.116 73.0489C299.473 73.9484 299.902 74.866 300.249 75.8019C300.596 76.7378 301.016 77.6918 301.354 78.6641C301.693 79.6364 302.067 80.6177 302.406 81.59L303.393 84.6161C303.979 86.6154 304.528 88.7603 304.978 90.6871C305.088 91.1779 305.234 91.6777 305.335 92.2049C305.436 92.7321 305.519 93.1775 305.62 93.7047C305.721 94.2319 305.803 94.6773 305.904 95.2045L306.125 96.6499L306.337 98.1316L306.485 99.5589L306.633 100.986C306.685 101.442 306.713 101.9 306.718 102.359C306.619 102.759 306.801 103.268 306.811 103.696L306.832 105.014L306.871 106.26L306.873 107.496C306.683 108.26 306.839 109.033 306.768 109.788L306.608 111.834C306.483 113.116 306.322 114.235 306.205 115.172C305.754 116.991 305.501 118.01 305.501 118.01L303.282 117.46L304.085 114.53Z" fill="#314725"/>
<path d="M279.723 152.175C275.086 152.183 270.27 149.328 265.786 148.718C267.121 147.852 268.947 146.721 271.145 145.489C272.362 144.787 273.661 144.066 275.069 143.372L277.277 142.259L279.557 141.163L281.974 140.141L284.472 139.099L287.026 138.149L289.643 137.253C291.406 136.686 293.16 136.155 294.923 135.743L296.204 135.404L297.504 135.147L298.804 134.89L300.095 134.669L301.349 134.44L302.585 134.283L305.004 134.033L306.149 133.931L307.004 133.911C304.881 135.752 303.046 137.901 301.56 140.286C299.375 144.077 296.249 147.24 292.484 149.468C288.498 151.348 284.129 152.274 279.723 152.175Z" fill="#314725"/>
<path d="M307.119 132.047L305.973 132.149L304.782 132.278L302.337 132.637L301.083 132.867L299.792 133.088L298.483 133.381L297.211 133.683L295.893 134.013L294.566 134.379C292.785 134.865 291.013 135.468 289.277 136.081L286.669 137.095L284.125 138.163C283.271 138.492 282.444 138.867 281.654 139.25L279.238 140.427L276.985 141.568L274.832 142.772L270.953 145.017C268.719 146.394 266.912 147.606 265.604 148.518C268.108 145.586 267.355 141.459 269.495 138.127C272.08 134.199 276.015 131.355 280.555 130.132C285.186 128.795 290.06 128.525 294.811 129.342C298.886 130.043 303.289 131.444 307.6 131.973L307.119 132.047Z" fill="#314725"/>
<path d="M316.464 136.102L313.627 135.708L311.853 135.538C311.271 135.394 310.598 135.459 309.907 135.442L308.925 135.198L307.834 135.237L306.715 135.23L305.542 135.286L304.37 135.343L303.142 135.463L301.879 135.575L300.642 135.732L299.333 135.871L298.042 136.091L296.743 136.348L295.406 136.596C293.652 136.972 291.88 137.421 290.099 137.906L287.463 138.721L284.855 139.58L282.338 140.54C281.493 140.832 280.675 141.17 279.903 141.481L277.568 142.485C276.787 142.832 276.051 143.152 275.342 143.517C273.898 144.201 272.535 144.868 271.336 145.497L267.993 147.295C267.185 147.751 266.495 148.198 265.859 148.581C267.194 147.715 269.065 146.556 271.317 145.261C272.535 144.559 273.87 143.847 275.287 143.117L277.449 142.031L279.766 140.944L282.192 139.885C283.018 139.511 283.872 139.182 284.727 138.853L287.289 137.866L289.942 136.979C291.705 136.412 293.496 135.891 295.295 135.487L296.613 135.157L297.958 134.873C298.359 134.972 298.822 134.662 299.258 134.616L300.594 134.368L301.84 134.175L303.121 133.99L304.385 133.879L305.576 133.749L306.712 133.684L307.849 133.618L308.976 133.589L310.058 133.587L312.059 133.619L313.887 133.725L316.861 134.038L319.371 134.66L318.884 136.625L316.464 136.102Z" fill="#314725"/>
<path d="M199.116 240.452C196.136 236.894 195.18 231.403 192.763 227.598C194.328 227.986 196.348 228.719 198.714 229.615L202.872 231.225L205.056 232.076L207.377 233.154L209.752 234.322L212.109 235.564C212.983 235.78 213.711 236.424 214.521 236.896L216.879 238.292C218.445 239.298 219.974 240.295 221.413 241.348L222.524 242.164L223.562 242.962L224.591 243.797L225.583 244.622L226.576 245.448L227.487 246.292L229.236 247.962L230.038 248.778L230.648 249.432C227.844 249.027 224.994 249.063 222.201 249.539C217.902 250.224 213.501 249.809 209.405 248.335C205.41 246.541 201.888 243.842 199.116 240.452Z" fill="#314725"/>
<path d="M231.928 248.32L231.126 247.503L230.252 246.668L228.421 245.017L227.429 244.191L226.391 243.393L225.361 242.558L224.278 241.787L223.167 240.971L222.347 240.227C220.827 239.193 219.252 238.223 217.632 237.28L215.22 235.948L212.753 234.68L210.305 233.493L207.866 232.425L205.528 231.42L203.234 230.542L199.013 229.032C196.502 228.409 194.418 227.622 192.899 227.206C196.754 227.235 199.476 224.048 203.394 223.513C208.101 222.943 212.853 224.122 216.749 226.825C220.734 229.537 224.072 233.095 226.525 237.246C228.622 240.779 230.376 245.077 232.72 248.709L231.928 248.32Z" fill="#314725"/>
<path d="M235.047 258.17C234.628 257.525 234.144 256.672 233.524 255.745L232.531 254.301L231.327 252.767L230.689 251.913L229.997 251.124L229.25 250.243L228.493 249.399L227.664 248.536L226.799 247.665L225.897 246.785C225.598 246.482 225.282 246.197 224.95 245.932L224.012 245.043L223.019 244.217L221.999 243.346L220.933 242.502C219.513 241.377 218.001 240.307 216.481 239.274L214.187 237.777L211.838 236.345L209.499 235.031L207.178 233.799C206.432 233.382 205.667 233.038 204.912 232.657L202.7 231.607C201.281 230.945 199.888 230.33 198.623 229.823L195.102 228.447L192.754 227.633C194.283 228.012 196.339 228.754 198.814 229.677L202.972 231.288L205.056 232.075L207.377 233.153C208.214 233.36 208.97 233.895 209.752 234.321L212.146 235.572L214.549 236.94L216.934 238.382C218.509 239.352 220.066 240.394 221.568 241.501L222.652 242.272L223.717 243.115L224.782 243.959L225.802 244.83L226.795 245.656L227.733 246.545L228.644 247.389L229.51 248.26L230.348 249.086L231.131 249.976L231.86 250.775L232.58 251.61C233.027 252.145 233.482 252.645 233.856 253.162L234.959 254.633C235.615 255.569 236.135 256.431 236.618 257.131L237.923 259.347L236.106 260.287L235.047 258.17Z" fill="#314725"/>
<path d="M195.455 286.359C192.169 289.639 190.788 295.051 188.04 298.657C189.594 298.309 191.685 297.823 194.129 297.155C195.456 296.789 196.874 296.368 198.319 295.838L200.627 295.097L203.044 294.229C203.853 293.927 204.661 293.625 205.488 293.251C206.315 292.877 207.16 292.584 207.978 292.246L210.467 291.087L212.929 289.882C214.564 289.051 216.172 288.176 217.725 287.209L218.897 286.534L220.004 285.804L221.112 285.075L222.148 284.327C222.509 284.102 222.855 283.852 223.183 283.58L224.182 282.823C224.841 282.343 225.468 281.842 226.061 281.319C226.361 281.046 226.688 280.818 226.942 280.572L227.878 280.225C225.061 280.391 222.235 280.12 219.502 279.422C215.281 278.359 210.858 278.392 206.654 279.519C202.436 280.889 198.6 283.232 195.455 286.359Z" fill="#314725"/>
<path d="M229.18 281.36L228.299 282.107L227.346 282.836C226.719 283.337 226.093 283.839 225.394 284.322L224.359 285.069L223.251 285.799L222.143 286.528L221.007 287.212L219.827 287.924L218.655 288.599C217.038 289.511 215.366 290.333 213.677 291.227C212.841 291.638 211.978 292.003 211.115 292.368L208.571 293.437L206.017 294.387L203.519 295.274L201.083 296.06L198.748 296.756L194.412 297.882C191.868 298.487 189.722 298.882 188.141 299.185C191.933 299.469 194.44 302.91 198.279 303.785C202.92 304.707 207.739 303.896 211.823 301.505C216.044 299.166 219.688 295.913 222.489 291.983C224.847 288.706 226.976 284.482 229.634 281.086L229.18 281.36Z" fill="#314725"/>
<path d="M232.981 271.796C232.473 272.442 231.929 273.234 231.249 274.109L230.142 275.456C229.752 275.939 229.253 276.395 228.817 276.905C228.382 277.415 228.345 277.406 228.091 277.652C227.837 277.898 227.574 278.18 227.32 278.426L226.539 279.237L225.695 279.993L224.796 280.813L223.87 281.588L222.899 282.389L221.891 283.182L220.847 283.966L219.775 284.705L218.695 285.48L217.587 286.209C216.061 287.221 214.481 288.143 213.045 288.946L210.602 290.232L208.14 291.437C207.341 291.857 206.514 292.231 205.696 292.569C204.878 292.907 204.088 293.29 203.27 293.628L200.908 294.587L198.654 295.419C197.128 295.968 195.738 296.434 194.438 296.845C193.139 297.257 191.884 297.641 190.812 297.916L188.413 298.557C190.003 298.218 192.13 297.741 194.62 297.045C195.983 296.688 197.41 296.231 198.81 295.728L201.163 294.96L203.544 294.082L206.024 293.114L208.523 292.073L211.049 290.922L213.556 289.69C215.2 288.823 216.844 287.956 218.388 287.026L219.569 286.315L220.686 285.549L221.83 284.828L222.911 284.053L223.946 283.306L224.954 282.513L225.962 281.72L226.888 280.945C227.187 280.672 227.514 280.444 227.778 280.162C228.079 279.917 228.364 279.652 228.631 279.369L229.466 278.649L230.238 277.875C230.709 277.374 231.218 276.882 231.644 276.408L232.833 275.042C233.586 274.186 234.212 273.376 234.72 272.729L236.216 270.59L234.514 269.511L232.981 271.796Z" fill="#314725"/>
<path d="M169.777 271.84C167.724 274.77 165.868 277.832 164.22 281.007C165.402 280.759 166.956 280.411 168.783 279.898L171.991 278.956L173.717 278.38C174.28 278.133 174.908 277.941 175.507 277.704L177.343 277L179.196 276.224L181.031 275.366C181.662 275.102 182.278 274.804 182.875 274.471C184.111 273.851 185.319 273.185 186.454 272.5L187.317 271.981L188.153 271.415L188.979 270.886L189.778 270.312C190.014 270.139 190.287 269.975 190.532 269.765L191.286 269.218L192.693 268.061L193.328 267.523L193.828 267.067C191.721 267.183 189.609 266.985 187.562 266.479C184.413 265.665 181.108 265.683 177.969 266.533C174.863 267.643 172.059 269.46 169.777 271.84Z" fill="#314725"/>
<path d="M194.794 268.157L194.149 268.731L193.432 269.287L191.961 270.39L191.171 270.928C190.925 271.138 190.653 271.302 190.371 271.502L189.545 272.031L188.682 272.551L187.819 273.071L186.92 273.582C185.748 274.257 184.477 274.869 183.25 275.453L181.333 276.329L179.443 277.097L177.526 277.819L175.663 278.477L173.855 279.071L172.11 279.565L168.847 280.417C166.957 280.875 165.375 281.178 164.203 281.39C167.076 281.639 168.881 284.172 171.774 284.813C175.241 285.511 178.843 284.905 181.891 283.112C185.027 281.353 187.739 278.926 189.834 276.004C191.612 273.51 193.188 270.424 195.175 267.865L194.794 268.157Z" fill="#314725"/>
<path d="M197.618 261.132C197.237 261.578 196.819 262.17 196.311 262.816L195.477 263.845C195.195 264.2 194.842 264.537 194.515 264.92C194.328 265.097 194.152 265.286 193.989 265.485L193.38 266.068L192.809 266.66C192.755 266.878 192.373 267.015 192.164 267.234L191.511 267.844L190.793 268.4L190.103 269.002L189.341 269.585L188.578 270.168L187.779 270.743L186.943 271.308L186.108 271.873C184.991 272.639 183.819 273.314 182.611 273.98C181.403 274.646 181.403 274.646 180.785 274.957L178.977 275.86L177.142 276.718L175.325 277.504L173.572 278.189L171.863 278.847L168.701 279.917L165.993 280.713L164.221 281.162C165.402 280.914 166.993 280.574 168.865 280.034L172.073 279.092L173.808 278.48L175.626 277.849L177.461 277.145L179.324 276.332L181.195 275.483C181.813 275.173 182.458 274.908 183.085 274.561C183.712 274.215 185.529 273.275 186.673 272.554L187.581 272.007L188.408 271.478L189.243 270.913L190.042 270.339C190.324 270.138 190.596 269.974 190.841 269.764L191.604 269.181L192.33 268.588L193.011 268.023C193.251 267.835 193.481 267.634 193.701 267.422L194.346 266.848L194.945 266.301L195.517 265.709C195.88 265.336 196.27 265.008 196.597 264.625C196.923 264.243 197.195 263.924 197.468 263.605C197.74 263.286 198.511 262.357 198.901 261.875L199.989 260.291L198.724 259.475L197.618 261.132Z" fill="#314725"/>
<path d="M162.319 246.158C159.086 243.618 157.623 239.238 154.99 236.615C156.264 236.931 158.101 237 160.22 237.333L163.859 238.235L165.86 238.732L167.934 239.246L170.081 239.779C170.809 239.959 171.573 240.149 172.301 240.329L174.521 240.88L176.714 241.694C178.151 242.282 179.589 242.871 180.972 243.523L182.01 244.012L183.002 244.528L183.994 245.045L184.95 245.552L185.896 246.096L186.798 246.667L188.5 247.746L189.292 248.29L189.911 248.753C187.524 248.858 185.166 249.328 182.921 250.148C179.473 251.476 175.738 251.881 172.085 251.323C168.475 250.376 165.133 248.609 162.319 246.158Z" fill="#314725"/>
<path d="M190.927 247.459L190.135 246.915L189.306 246.362L187.486 245.293L186.539 244.749L185.583 244.241L184.591 243.725L183.554 243.236L182.516 242.747L181.425 242.476C179.996 241.851 178.504 241.327 177.057 240.775L174.765 240.206C174 240.017 173.273 239.836 172.509 239.647L168.106 238.554L165.995 238.031L163.994 237.535L160.274 236.96C158.064 236.682 156.245 236.54 154.881 236.433C158.08 235.836 159.666 232.714 163.01 231.69C166.772 230.516 170.834 230.767 174.423 232.396C178.189 233.988 181.55 236.405 184.256 239.47C186.543 242.085 188.668 245.354 191.182 247.986L190.927 247.459Z" fill="#314725"/>
<path d="M194.969 255.145L193.32 253.384L192.264 252.349C191.899 251.95 191.444 251.605 191.034 251.233L190.369 250.643L189.659 250.081L188.921 249.473L188.138 248.893L187.319 248.303L186.454 247.741L185.598 247.143L184.66 246.562L183.714 246.019L182.767 245.475L181.784 244.922L180.756 244.396C179.427 243.681 178.007 243.019 176.578 242.395L174.44 241.517L172.283 240.711L170.064 240.161L167.917 239.628L165.843 239.114L163.841 238.618C162.531 238.293 161.294 237.986 160.202 237.715L157.109 236.948L155.072 236.442C156.345 236.758 158.228 236.8 160.42 237.151L164.104 237.871L166.105 238.368L168.179 238.882L170.362 239.424L172.582 239.974L174.838 240.534L177.067 241.357C178.559 241.727 179.979 242.543 181.363 243.195L182.4 243.684L183.428 244.21L184.457 244.735L185.404 245.279L186.35 245.823L187.288 246.403L188.189 246.974L189.045 247.573L189.873 248.126L190.657 248.706L191.403 249.278L192.113 249.84L193.425 250.938L194.554 251.991L196.349 253.788L197.798 255.422L196.445 256.515L194.969 255.145Z" fill="#314725"/>
<path d="M259.024 120.852C254.969 120.851 250.763 118.34 246.834 117.829C248.024 117.081 249.622 116.087 251.375 115.092C252.411 114.499 253.573 113.861 254.809 113.24L256.744 112.291L258.752 111.36L260.878 110.419L263.067 109.533L265.284 108.693L267.593 107.952C269.105 107.441 270.643 107.01 272.2 106.661L273.355 106.368L274.491 106.148L275.636 105.891L276.727 105.698L277.845 105.55L278.927 105.394L281.027 105.181L282.045 105.124L282.791 105.077C280.944 106.722 279.351 108.631 278.064 110.742C276.12 114.014 273.358 116.723 270.049 118.604C266.586 120.16 262.82 120.928 259.024 120.852Z" fill="#314725"/>
<path d="M282.997 103.313L281.969 103.406L280.933 103.535L278.815 103.821L277.688 104.005L276.588 104.234L275.452 104.454L274.307 104.711L273.152 105.004L271.989 105.334C270.417 105.755 268.899 106.267 267.336 106.806L265.083 107.638L262.839 108.588C262.103 108.907 261.376 109.191 260.667 109.556L258.569 110.542L256.579 111.555L254.672 112.549L251.284 114.529C249.331 115.705 247.751 116.781 246.661 117.593C248.875 115.052 248.195 111.407 250.109 108.521C252.423 105.077 255.924 102.604 259.943 101.574C264.003 100.381 268.279 100.121 272.453 100.814C276.155 101.462 279.731 102.619 283.469 103.121L282.997 103.313Z" fill="#314725"/>
<path d="M291.214 106.934L288.758 106.557L287.212 106.405L285.494 106.327L284.657 106.119L283.693 106.112L282.729 106.104L281.711 106.161L280.656 106.208L279.592 106.292L278.492 106.367L277.411 106.523L276.256 106.662L275.129 106.846L274.002 107.03L272.82 107.278C271.275 107.59 269.712 107.974 268.176 108.405L265.849 109.064L263.568 109.85L261.36 110.654L259.225 111.477L257.154 112.353L255.237 113.23C253.974 113.805 252.784 114.398 251.721 114.946L248.814 116.542L246.925 117.619C248.115 116.871 249.722 115.841 251.684 114.937C252.72 114.344 253.919 113.714 255.155 113.094L257.053 112.135L259.106 111.177L261.223 110.273L263.413 109.386L265.712 108.527L268.029 107.75C269.574 107.284 271.119 106.817 272.673 106.469L273.864 106.185L275.045 105.937L276.182 105.717L277.309 105.533L278.436 105.349L279.554 105.201L280.663 105.09L281.727 105.006L282.754 104.913L283.763 104.893L284.745 104.828L285.655 105.053L287.428 105.068L289.029 105.156L291.621 105.451L293.804 105.993L293.371 107.74L291.214 106.934Z" fill="#314725"/>
<path d="M145.386 157.134C232.953 173.793 327.802 223.391 418.295 224.05C446.083 224.298 460.956 212.923 486.53 215.712C509.085 218.216 536.397 241.407 558.316 248.968C604.428 264.731 670.787 250.25 710.771 275.926C709.065 282.804 707.35 289.717 705.635 296.631L692.928 347.865C696.51 323.299 658.743 315.94 648.502 314.405C618.825 310.404 589.83 306.921 559.836 294.074C536.932 284.26 513.923 262.717 489.907 256.76C467.128 251.11 442.694 260.23 419.459 258.291C322.096 249.98 236.136 188.527 142.154 169.852C143.521 165.692 144.601 161.442 145.386 157.134Z" fill="#314725"/>
<path d="M420.245 226.155L419.554 226.293L419.19 226.203C419.676 226.109 420.175 226.102 420.663 226.182C421.464 226.381 421.046 226.663 419.462 225.884C416.883 224.539 414.494 222.856 412.361 220.878C408.891 217.739 405.651 214.353 402.667 210.749C398.853 206.465 395.272 201.979 391.94 197.311L389.45 193.488L388.903 192.579L389.177 193.188L389.022 192.879L388.739 192.307L387.616 189.981C387.032 188.6 386.876 188.137 386.374 186.737C385.871 185.338 385.541 183.866 385.165 182.111C384.386 178.867 383.578 174.958 382.37 170.796C381.714 168.542 380.877 166.345 379.867 164.227L379.082 162.564L378.872 162.164L378.571 161.665L378.224 161.038L376.774 158.631C376.163 157.669 375.224 156.315 374.422 155.189C373.748 154.376 373.004 153.623 372.199 152.939L370.915 151.886C370.327 151.514 369.709 151.193 369.067 150.926C367.915 150.418 366.684 150.113 365.428 150.023L363.009 149.81L360.263 149.824C358.665 149.819 357.069 149.695 355.489 149.451L354.324 149.162L346.501 147.221L345.373 146.942L341.032 145.131C339.493 144.398 337.993 143.587 336.536 142.703C334.99 141.891 333.518 140.945 332.139 139.874C326.414 135.723 321.112 131.018 316.309 125.828L302.206 110.742C299.992 108.3 297.587 106.004 295.409 103.726C293.232 101.447 290.782 99.4878 288.596 97.5551C286.411 95.6224 284.043 93.9537 281.74 92.4941C279.437 91.0344 277.261 89.6836 274.959 88.6877L268.762 86.1078L263.267 84.745C262.43 84.5374 261.666 84.3479 260.938 84.1674L258.811 84.0258L255.473 83.7774L252.699 83.5917L255.392 84.2595L258.639 84.8718L260.641 85.3682C261.368 85.5487 262.133 85.7382 262.879 86.1551L268.011 88.0459L273.609 91.1725C275.593 92.36 277.424 94.0115 279.454 95.4808C281.485 96.95 283.307 99.1016 285.393 100.816C287.478 102.531 289.229 105.128 291.161 107.462C293.093 109.795 295.025 112.283 297.003 115.052L309.228 131.951C313.807 138.219 318.992 144.021 324.709 149.272C326.171 150.717 327.758 152.029 329.454 153.191C331.116 154.511 332.849 155.74 334.644 156.873L340.633 160.135L342.135 160.932L343.517 161.275L346.238 162.298L348.913 163.348L349.605 163.519L352.479 164.232C354.642 164.825 356.847 165.256 359.074 165.52L362.075 165.878L362.475 165.978C362.234 165.978 361.997 165.919 361.784 165.806L361.211 165.471L360.92 165.399C360.92 165.399 360.564 164.963 360.628 165.326L361.286 166.725L362.463 169.296L362.765 169.951L362.711 170.169L362.985 171.087C363.398 172.429 363.716 173.799 363.938 175.186C364.444 178.286 364.741 181.604 365.249 185.476C365.416 187.295 365.729 189.458 366.069 191.358C366.529 193.657 367.113 195.929 367.818 198.165L368.678 200.619L368.879 201.209L368.988 201.546L369.445 202.509L370.038 203.853C370.878 205.607 371.681 207.196 372.484 208.786C375.588 214.688 379.016 220.413 382.755 225.934C385.956 230.817 389.502 235.466 393.365 239.845C396.747 243.803 400.654 247.28 404.977 250.18C408.94 252.916 413.509 254.645 418.289 255.22C419.569 255.316 420.853 255.338 422.136 255.285L423.354 255.201L424.063 255.145L420.245 226.155Z" fill="#314725"/>
<path d="M300.712 207.402L298.941 208.314C296.965 209.251 295.042 210.296 293.182 211.444C291.774 212.292 290.012 213.323 288.64 214.18L284.218 217.525C281.222 219.95 278.018 222.747 274.832 225.781C268.369 231.903 261.681 239.09 254.437 245.714C250.897 248.958 247.081 251.889 243.033 254.473C239.381 256.915 235.236 258.524 230.894 259.188C229.857 259.317 228.857 259.146 227.838 259.202L227.029 259.195L226.374 259.032L224.336 258.527C221.408 258.032 219.424 257.309 216.768 256.65C211.346 254.902 205.791 253.602 200.157 252.762C194.657 252.128 189.088 252.514 183.729 253.902C179.163 255.317 174.745 257.171 170.536 259.436C167.271 261.227 163.831 262.677 160.269 263.765C157.556 264.556 154.689 264.667 151.923 264.09C150.875 263.972 149.847 263.717 148.866 263.332C148.112 263.05 147.384 262.701 146.691 262.29L144.925 261.312L146.51 262.554C147.124 263.094 147.799 263.56 148.522 263.942C149.458 264.579 150.474 265.091 151.543 265.464C154.456 266.576 157.598 266.957 160.693 266.574C164.611 266.027 168.465 265.094 172.199 263.789C176.282 262.401 180.479 261.374 184.741 260.719C189.337 260.26 193.977 260.69 198.41 261.985C203.3 263.572 208.053 265.552 212.624 267.905C215.2 269.046 218.366 270.45 220.86 271.3L222.807 272.014L223.316 272.141L225.499 272.682C227.235 273.08 228.989 273.386 230.757 273.6C237.605 273.897 244.431 272.631 250.718 269.899C256.241 267.53 261.54 264.669 266.551 261.349C275.805 255.185 283.713 249.151 290.379 244.701C293.685 242.431 296.682 240.625 299.462 239.229L303.059 237.34C304.104 236.865 304.767 236.682 305.512 236.326C307.003 235.702 308.53 235.165 310.083 234.717L312.009 234.113C313.84 233.533 315.538 232.597 317.007 231.36C318.477 230.123 319.688 228.609 320.571 226.903C321.455 225.198 321.994 223.336 322.159 221.422C322.323 219.509 322.108 217.582 321.527 215.751C320.947 213.92 320.011 212.222 318.774 210.753C317.537 209.284 316.022 208.073 314.317 207.189C312.612 206.305 310.75 205.766 308.836 205.602C306.923 205.438 304.996 205.652 303.165 206.233C302.324 206.573 301.505 206.963 300.712 207.402Z" fill="#314725"/>
<path d="M456.223 332.766C452.938 336.045 451.557 341.458 448.817 345.028C450.362 344.716 452.453 344.23 454.907 343.525L459.087 342.244L461.404 341.467C462.204 341.202 463.003 340.937 463.821 340.599L466.256 339.658L468.755 338.617L471.235 337.493L473.697 336.289C475.341 335.422 476.949 334.546 478.493 333.616L479.674 332.904L480.782 332.175L481.881 331.482L482.925 330.698C483.285 330.47 483.631 330.22 483.96 329.95L484.959 329.193C485.625 328.689 486.251 328.188 486.838 327.69L487.719 326.942L488.364 326.368C485.535 326.516 482.7 326.242 479.951 325.557C475.746 324.459 471.326 324.496 467.14 325.662C462.992 327.137 459.251 329.571 456.223 332.766Z" fill="#314725"/>
<path d="M489.775 327.684L488.895 328.431C488.595 328.704 488.268 328.932 487.932 329.197C487.596 329.461 486.679 330.199 485.98 330.682L484.909 331.421L483.846 332.123L482.738 332.853L481.594 333.573L480.422 334.248L479.25 334.923C477.633 335.835 475.962 336.657 474.272 337.551L471.71 338.692L469.175 339.725L466.622 340.675C465.804 341.013 464.959 341.306 464.123 341.562C463.287 341.818 462.487 342.083 461.688 342.348L459.352 343.044L455.199 344.215C452.654 344.82 450.5 345.251 448.927 345.518C452.719 345.802 455.226 349.243 459.074 350.082C463.715 351.022 468.541 350.21 472.618 347.802C476.836 345.459 480.48 342.206 483.285 338.28C485.643 335.002 487.772 330.779 490.429 327.383L489.775 327.684Z" fill="#314725"/>
<path d="M493.567 318.157C493.068 318.768 492.524 319.56 491.844 320.434C491.163 321.308 491.118 321.335 490.701 321.773C490.283 322.21 489.848 322.72 489.412 323.23L488.677 324.013L487.915 324.751L487.134 325.562C486.835 325.835 486.544 326.072 486.281 326.354L485.391 327.138L484.465 327.913L483.494 328.715L482.486 329.508L481.442 330.292L480.361 331.066L479.281 331.841L478.173 332.571C476.656 333.547 475.066 334.504 473.631 335.307L471.215 336.639L468.753 337.844L466.309 338.976C465.519 339.359 464.701 339.697 463.893 339.999L461.53 340.958L459.268 341.826C457.75 342.338 456.351 342.841 455.051 343.252L451.425 344.323L449.035 344.928C450.617 344.625 452.752 344.111 455.242 343.416C456.606 343.059 458.023 342.638 459.432 342.099L461.785 341.33C462.549 341.056 463.348 340.791 464.166 340.453L466.638 339.521C467.492 339.192 468.319 338.818 469.145 338.443C469.972 338.069 470.835 337.704 471.662 337.329L474.169 336.097C475.813 335.23 477.467 334.327 479.002 333.433L480.182 332.722L481.29 331.992C481.663 331.737 482.071 331.491 482.407 331.226L483.479 330.488L484.56 329.713L485.567 328.92L486.566 328.163L487.492 327.389L488.382 326.605L489.235 325.812L490.079 325.056L490.851 324.282C491.323 323.781 491.822 323.325 492.248 322.852L493.446 321.449C494.199 320.593 494.825 319.783 495.333 319.136L496.82 317.033L495.127 315.918L493.567 318.157Z" fill="#314725"/>
<path d="M430.372 318.166C428.329 321.101 426.473 324.163 424.816 327.332C425.997 327.085 427.551 326.736 429.378 326.224C430.369 325.967 431.45 325.656 432.586 325.281L434.313 324.705L436.094 324.065L437.929 323.362L439.783 322.585L441.636 321.654C442.254 321.344 442.899 321.079 443.48 320.76C444.724 320.103 445.924 319.473 447.068 318.753C447.377 318.598 447.658 318.397 447.931 318.233L448.757 317.704L449.584 317.175L450.383 316.601C450.446 316.346 450.9 316.227 451.136 316.054L451.899 315.47L453.297 314.349L453.942 313.775L454.432 313.356C452.327 313.477 450.215 313.266 448.175 312.731C445.021 311.927 441.712 311.959 438.573 312.822C435.459 313.937 432.65 315.767 430.372 318.166Z" fill="#314725"/>
<path d="M455.407 314.409L454.763 314.983L454.054 315.503L452.574 316.642L451.784 317.18L450.994 317.718L450.168 318.247C449.886 318.447 449.577 318.602 449.305 318.767L448.433 319.323L447.543 319.797C446.371 320.472 445.099 321.084 443.864 321.705L441.956 322.545L440.057 323.348C439.421 323.577 438.776 323.842 438.149 324.034L436.286 324.692C435.686 324.93 435.068 325.085 434.478 325.286L432.724 325.817L429.461 326.669C427.58 327.091 425.989 327.43 424.78 327.632C427.663 327.845 429.459 330.415 432.352 331.055C435.818 331.753 439.421 331.148 442.469 329.354C445.605 327.595 448.316 325.169 450.412 322.247C452.162 319.707 453.775 316.631 455.752 314.108L455.407 314.409Z" fill="#314725"/>
<path d="M458.222 307.266C457.868 307.758 457.451 308.349 456.943 308.996L456.117 309.989C456.018 310.389 455.473 310.717 455.146 311.1C454.952 311.269 454.775 311.459 454.62 311.664L454.021 312.211L453.449 312.803C453.386 313.058 453.004 313.195 452.805 313.377L452.151 313.988L451.425 314.58L450.735 315.181L449.972 315.765L449.209 316.348C448.928 316.549 448.655 316.713 448.41 316.922L447.575 317.488L446.739 318.053C445.631 318.783 444.451 319.494 443.242 320.16L441.417 321.136L439.609 322.04L437.783 322.862L435.966 323.647L434.203 324.369L432.504 324.99C431.395 325.41 430.305 325.758 429.341 326.06L426.633 326.856L424.816 327.332C425.997 327.084 427.597 326.709 429.469 326.169C430.46 325.912 431.541 325.601 432.677 325.226L434.403 324.65L436.221 324.019L438.065 323.279L439.919 322.503L441.636 321.654L443.525 320.732C444.734 320.066 445.978 319.409 447.122 318.689L448.022 318.178L448.857 317.613L449.693 317.047L450.492 316.473L451.282 315.935L452.044 315.352L452.771 314.759L453.461 314.158L454.142 313.593L454.786 313.019L455.394 312.436C455.593 312.262 455.781 312.077 455.957 311.88C456.329 311.47 456.719 311.142 457.001 310.787L457.908 309.776C458.498 309.111 458.915 308.519 459.305 308.037L460.43 306.462L459.164 305.646L458.222 307.266Z" fill="#314725"/>
<path d="M422.914 292.483C419.672 289.979 418.209 285.599 415.586 282.94C416.904 283.074 418.705 283.289 420.815 283.658C421.943 283.937 423.18 284.244 424.508 284.342L426.509 284.838C427.164 285.001 427.892 285.181 428.584 285.353L430.73 285.885L432.95 286.436L435.17 286.986L437.363 287.801C438.855 288.171 440.247 288.941 441.631 289.593L442.668 290.082L443.66 290.599L444.652 291.115L445.599 291.659L446.546 292.203L447.419 292.728C448.074 292.891 448.585 293.481 449.149 293.853L449.941 294.397L450.533 294.814C448.153 294.941 445.806 295.427 443.571 296.254C440.123 297.586 436.387 297.991 432.734 297.429C429.119 296.572 425.755 294.878 422.914 292.483Z" fill="#314725"/>
<path d="M451.522 293.785L450.73 293.241L449.893 292.724L448.081 291.618L447.126 291.111L446.17 290.603L445.178 290.087L444.14 289.598L443.103 289.109L442.011 288.838C440.582 288.213 439.099 287.652 437.643 287.136L435.351 286.568L433.095 286.008C432.331 285.819 431.603 285.638 430.875 285.458L428.692 284.916L426.581 284.393L424.58 283.896C423.307 283.581 422.069 283.274 420.86 283.321C418.659 283.007 416.84 282.865 415.476 282.759C418.667 282.198 420.252 279.076 423.596 278.052C427.359 276.885 431.418 277.123 435.018 278.721C438.789 280.317 442.149 282.748 444.843 285.832C447.166 288.455 449.291 291.725 451.805 294.357L451.522 293.785Z" fill="#314725"/>
<path d="M455.565 301.47L453.916 299.709L452.859 298.674C452.486 298.311 452.03 297.966 451.63 297.558L450.956 297.005L450.254 296.406L449.508 295.834L448.725 295.254L447.905 294.664L447.049 294.066L446.185 293.504C445.857 293.422 445.547 293.114 445.247 292.923L444.309 292.343L443.363 291.799L442.38 291.247L441.351 290.721C440.022 290.005 438.594 289.38 437.165 288.756L435.026 287.878L432.87 287.072L430.65 286.522L428.503 285.989L426.429 285.475L424.428 284.979L420.789 284.076L417.696 283.309L415.613 282.985C416.887 283.301 418.769 283.343 420.952 283.73C422.08 284.01 423.317 284.317 424.645 284.414L430.904 285.967L433.123 286.517L435.379 287.077L437.609 287.9C439.046 288.489 440.521 289.086 441.904 289.738L442.932 290.263L443.961 290.789L444.953 291.305L445.936 291.858L446.883 292.402L447.82 292.982L448.731 293.517L449.586 294.116L450.415 294.669L451.189 295.286L451.945 295.821L452.646 296.419L453.957 297.517L455.096 298.534C455.815 299.214 456.389 299.859 456.854 300.322L458.33 302.001L456.986 303.058L455.565 301.47Z" fill="#314725"/>
<path d="M564.066 260.514L562.203 261.326C560.331 262.136 558.514 263.066 556.762 264.11C555.499 264.84 554.028 265.633 552.684 266.536L548.461 269.545C545.565 271.723 542.423 274.266 539.201 277.136C532.701 282.786 525.73 289.709 517.895 296.225C514.005 299.544 509.819 302.501 505.391 305.059C501.074 307.498 496.269 308.945 491.323 309.296C490.114 309.343 488.931 309.127 487.704 309.093L486.831 308.876C486.831 308.876 486.43 308.777 486.503 308.795L483.956 308.164C481.154 307.469 478.789 306.882 476.196 305.968C470.99 304.051 465.63 302.58 460.175 301.57C454.987 300.794 449.699 300.989 444.582 302.145C440.165 303.405 435.874 305.069 431.761 307.115C428.371 308.782 424.822 310.101 421.166 311.054C418.364 311.747 415.434 311.737 412.637 311.024C411.58 310.787 410.555 310.429 409.58 309.957C408.841 309.653 408.131 309.283 407.459 308.851L405.757 307.772L407.387 308.988C408.017 309.488 408.701 309.917 409.426 310.266C410.381 310.83 411.394 311.288 412.447 311.634C415.333 312.6 418.408 312.859 421.414 312.39C425.236 311.703 428.981 310.639 432.593 309.214C436.651 307.619 440.837 306.37 445.106 305.481C449.892 304.797 454.763 305.022 459.465 306.145C464.559 307.52 469.524 309.334 474.306 311.564C476.872 312.587 479.775 313.809 482.367 314.568L484.405 315.073L485.606 315.371L486.734 315.651C488.262 316.03 489.827 316.418 491.464 316.36C497.683 316.422 503.837 315.084 509.469 312.444C514.619 310.014 519.537 307.123 524.165 303.806C533.065 297.515 540.545 291.182 547.156 286.332C550.47 283.871 553.494 281.801 556.201 280.078L560.006 277.816C561.133 277.168 562.114 276.793 563.004 276.319C564.569 275.525 566.195 274.856 567.865 274.319L569.773 273.633C571.568 272.953 573.024 271.594 573.826 269.85C574.627 268.105 574.711 266.116 574.058 264.31C573.405 262.505 572.068 261.029 570.336 260.201C568.604 259.373 566.616 259.259 564.801 259.885L564.066 260.514Z" fill="#314725"/>
<path d="M147.169 157.267C142.964 155.22 138.731 152.818 134.644 150.298C132.614 148.983 130.62 147.678 128.681 146.308C126.741 144.939 124.784 143.488 122.953 141.991C121.123 140.494 119.356 138.897 117.625 137.309C116.787 136.483 116.04 135.602 115.202 134.776C114.41 133.938 113.676 133.046 113.006 132.107C112.261 131.236 111.587 130.307 110.991 129.329C110.374 128.4 109.814 127.435 109.312 126.44C108.947 125.422 108.418 124.441 108.097 123.396L107.364 120.279L106.961 118.479L105.724 118.172L39.7654 94.2809L103.741 123.05L102.1 120.789L102.726 124.807C103.056 126.124 103.586 127.415 103.997 128.714C104.499 129.978 105.084 131.208 105.75 132.393C106.366 133.579 107.064 134.72 107.839 135.808C108.527 136.927 109.295 137.995 110.136 139.005C110.965 140.022 111.749 141.066 112.633 142.019C114.355 143.953 116.132 145.822 118.017 147.565C119.903 149.307 121.833 151.022 123.737 152.846C125.641 154.67 127.735 156.039 129.756 157.545C133.881 160.538 138.024 163.458 142.566 166.014C143.119 166.385 143.742 166.639 144.396 166.761C145.051 166.882 145.724 166.868 146.373 166.719C147.022 166.57 147.634 166.289 148.171 165.895C148.707 165.5 149.157 165 149.493 164.425C149.829 163.85 150.043 163.212 150.122 162.551C150.202 161.889 150.145 161.219 149.956 160.581C149.766 159.942 149.448 159.349 149.02 158.839C148.592 158.328 148.065 157.911 147.469 157.612L147.142 157.531L147.169 157.267Z" fill="#314725"/>
<path d="M150.64 161.026L114.719 168.494L113.655 168.732L113.165 169.306L84.1236 203.858L117.046 172.972L115.492 173.785L152.076 170.652C153.383 170.546 154.594 169.925 155.443 168.926C156.292 167.927 156.71 166.631 156.603 165.325C156.497 164.018 155.876 162.807 154.877 161.957C153.878 161.108 152.583 160.691 151.276 160.797L150.64 161.026Z" fill="#314725"/>
</svg>
